<svg width="142" height="142" viewBox="0 0 142 142" fill="none" xmlns="http://www.w3.org/2000/svg">
<path d="M20.0714 94.7329C16.1316 92.8362 12.7262 89.9884 10.1625 86.4464C7.59869 82.9044 5.95725 78.7797 5.3863 74.4446C4.81535 70.1096 5.33285 65.7006 6.89209 61.6155C8.45134 57.5305 11.0033 53.898 14.3175 51.0459M14.515 50.5127C12.356 47.2819 11.4097 43.3914 11.8436 39.5299C12.2776 35.6684 14.0639 32.085 16.8862 29.4141C19.7085 26.7431 23.3848 25.1569 27.2644 24.9362C31.1439 24.7156 34.9764 25.8747 38.0834 28.2084M39.6502 28.6363C38.6 26.4048 38.0647 23.9659 38.0839 21.4997C38.103 19.0335 38.6762 16.6032 39.761 14.3883C40.8458 12.1735 42.4145 10.2308 44.3511 8.70373C46.2878 7.1767 48.5428 6.10442 50.9496 5.56615C53.3564 5.02788 55.8534 5.03739 58.256 5.59397C60.6586 6.15055 62.9054 7.23997 64.8304 8.7817C66.7553 10.3234 68.3092 12.2781 69.3771 14.5011C70.445 16.7242 70.9996 19.1588 71 21.625M71 21.625V123.667M71 21.625C71.0004 19.1588 71.5551 16.7242 72.623 14.5011C73.6909 12.2781 75.2447 10.3234 77.1697 8.7817C79.0946 7.23997 81.3414 6.15055 83.7441 5.59397C86.1467 5.03739 88.6437 5.02788 91.0504 5.56615C93.4572 6.10442 95.7123 7.1767 97.6489 8.70373C99.5855 10.2308 101.154 12.1735 102.239 14.3883C103.324 16.6032 103.897 19.0335 103.916 21.4997C103.935 23.9659 103.4 26.4048 102.35 28.6363M71 123.667C71 127.159 69.6128 130.508 67.1436 132.977C64.6744 135.446 61.3254 136.833 57.8334 136.833C54.3413 136.833 50.9923 135.446 48.5231 132.977C46.0539 130.508 44.6667 127.159 44.6667 123.667M71 123.667C71 127.159 72.3872 130.508 74.8565 132.977C77.3257 135.446 80.6747 136.833 84.1667 136.833M71 38.0834C71 43.3214 73.0808 48.3449 76.7847 52.0487C80.4885 55.7526 85.512 57.8334 90.75 57.8334M127.683 51.0459C130.557 53.5151 132.863 56.5769 134.442 60.0212C136.022 63.4655 136.838 67.2108 136.833 71C136.833 75.6281 135.642 79.9797 133.542 83.7585M127.485 50.5127C129.644 47.2819 130.59 43.3914 130.156 39.5299C129.722 35.6684 127.936 32.085 125.114 29.4141C122.292 26.7431 118.615 25.1569 114.736 24.9362C110.856 24.7156 107.024 25.8747 103.917 28.2084M114.891 97.3334L103.917 117.083H130.25L119.276 136.833" stroke="#433129" stroke-width="10" stroke-linecap="round" stroke-linejoin="round"/>
</svg>
