<svg width="28" height="28" viewBox="0 0 28 28" fill="none" xmlns="http://www.w3.org/2000/svg">
<path d="M20.0435 0H7.38446C5.42662 0.00209432 3.54957 0.78077 2.16517 2.16517C0.78077 3.54957 0.00209432 5.42662 0 7.38446V20.0435C0.00209432 22.0014 0.78077 23.8784 2.16517 25.2628C3.54957 26.6472 5.42662 27.4259 7.38446 27.428H20.0435C22.0014 27.4259 23.8784 26.6472 25.2628 25.2628C26.6472 23.8784 27.4259 22.0014 27.428 20.0435V7.38446C27.4259 5.42662 26.6472 3.54957 25.2628 2.16517C23.8784 0.78077 22.0014 0.00209432 20.0435 0ZM13.714 20.0435C12.4621 20.0435 11.2384 19.6723 10.1975 18.9768C9.1566 18.2813 8.34533 17.2928 7.86626 16.1362C7.3872 14.9796 7.26185 13.707 7.50608 12.4792C7.7503 11.2514 8.35313 10.1235 9.23834 9.23834C10.1235 8.35313 11.2514 7.7503 12.4792 7.50608C13.707 7.26185 14.9796 7.3872 16.1362 7.86626C17.2928 8.34533 18.2813 9.1566 18.9768 10.1975C19.6723 11.2384 20.0435 12.4621 20.0435 13.714C20.0418 15.3922 19.3744 17.0011 18.1877 18.1877C17.0011 19.3744 15.3922 20.0418 13.714 20.0435ZM21.6259 7.38446C21.3129 7.38446 21.007 7.29165 20.7468 7.11778C20.4866 6.9439 20.2837 6.69677 20.164 6.40763C20.0442 6.11848 20.0129 5.80032 20.0739 5.49337C20.135 5.18641 20.2857 4.90446 20.507 4.68316C20.7283 4.46186 21.0103 4.31115 21.3172 4.25009C21.6242 4.18904 21.9423 4.22037 22.2315 4.34014C22.5206 4.45991 22.7677 4.66273 22.9416 4.92295C23.1155 5.18317 23.2083 5.48911 23.2083 5.80207C23.2083 6.22175 23.0416 6.62423 22.7448 6.92099C22.4481 7.21774 22.0456 7.38446 21.6259 7.38446ZM17.9337 13.714C17.9337 14.5486 17.6862 15.3644 17.2225 16.0583C16.7589 16.7523 16.0998 17.2931 15.3288 17.6125C14.5577 17.9319 13.7093 18.0154 12.8908 17.8526C12.0722 17.6898 11.3204 17.2879 10.7302 16.6978C10.1401 16.1076 9.7382 15.3558 9.57538 14.5372C9.41256 13.7187 9.49613 12.8702 9.81551 12.0992C10.1349 11.3281 10.6757 10.6691 11.3697 10.2054C12.0636 9.74178 12.8794 9.4943 13.714 9.4943C14.8331 9.4943 15.9064 9.93888 16.6978 10.7302C17.4891 11.5216 17.9337 12.5949 17.9337 13.714Z" fill="#768471"/>
</svg>
