<svg width="28" height="27" viewBox="0 0 28 27" fill="none" xmlns="http://www.w3.org/2000/svg">
<path d="M24.8084 0C25.6167 0 26.3918 0.313614 26.9634 0.871849C27.5349 1.43009 27.856 2.18722 27.856 2.97668V23.8134C27.856 24.6029 27.5349 25.36 26.9634 25.9183C26.3918 26.4765 25.6167 26.7901 24.8084 26.7901H3.47553C2.66727 26.7901 1.89211 26.4765 1.32059 25.9183C0.749059 25.36 0.427979 24.6029 0.427979 23.8134V2.97668C0.427979 2.18722 0.749059 1.43009 1.32059 0.871849C1.89211 0.313614 2.66727 0 3.47553 0H24.8084ZM24.0465 23.0693V15.1811C24.0465 13.8942 23.5232 12.6601 22.5916 11.7502C21.66 10.8403 20.3965 10.3291 19.079 10.3291C17.7838 10.3291 16.2753 11.103 15.5438 12.2639V10.6119H11.2925V23.0693H15.5438V15.7318C15.5438 14.5857 16.4886 13.6481 17.6619 13.6481C18.2277 13.6481 18.7703 13.8676 19.1704 14.2584C19.5704 14.6491 19.7952 15.1791 19.7952 15.7318V23.0693H24.0465ZM6.34023 8.27517C7.01917 8.27517 7.67031 8.01174 8.15039 7.54282C8.63047 7.0739 8.90018 6.43791 8.90018 5.77476C8.90018 4.3906 7.75735 3.25946 6.34023 3.25946C5.65725 3.25946 5.00224 3.52447 4.5193 3.99618C4.03636 4.46789 3.76505 5.10766 3.76505 5.77476C3.76505 7.15892 4.92312 8.27517 6.34023 8.27517ZM8.45828 23.0693V10.6119H4.23742V23.0693H8.45828Z" fill="#768471"/>
</svg>
