<svg width="43" height="42" viewBox="0 0 43 42" fill="none" xmlns="http://www.w3.org/2000/svg">
<path d="M38.2222 0C39.4894 0 40.7046 0.491665 41.6006 1.36683C42.4966 2.242 43 3.42899 43 4.66667V37.3333C43 38.571 42.4966 39.758 41.6006 40.6332C40.7046 41.5083 39.4894 42 38.2222 42H4.77778C3.51063 42 2.29539 41.5083 1.39938 40.6332C0.503371 39.758 0 38.571 0 37.3333V4.66667C0 3.42899 0.503371 2.242 1.39938 1.36683C2.29539 0.491665 3.51063 0 4.77778 0H38.2222ZM37.0278 36.1667V23.8C37.0278 21.7826 36.2073 19.8478 34.7468 18.4213C33.2863 16.9947 31.3054 16.1933 29.24 16.1933C27.2094 16.1933 24.8444 17.4067 23.6978 19.2267V16.6367H17.0328V36.1667H23.6978V24.6633C23.6978 22.8667 25.1789 21.3967 27.0183 21.3967C27.9053 21.3967 28.756 21.7408 29.3832 22.3535C30.0104 22.9661 30.3628 23.797 30.3628 24.6633V36.1667H37.0278ZM9.26889 12.9733C10.3333 12.9733 11.3541 12.5603 12.1067 11.8252C12.8594 11.09 13.2822 10.093 13.2822 9.05333C13.2822 6.88333 11.4906 5.11 9.26889 5.11C8.19815 5.11 7.17127 5.52546 6.41414 6.26498C5.65702 7.00449 5.23167 8.0075 5.23167 9.05333C5.23167 11.2233 7.04722 12.9733 9.26889 12.9733ZM12.5894 36.1667V16.6367H5.97222V36.1667H12.5894Z" fill="white"/>
</svg>
