<?xml version="1.0" encoding="UTF-8"?>
<svg id="Layer_1" data-name="Layer 1" xmlns="http://www.w3.org/2000/svg" viewBox="0 0 561.27 357.13">
  <path d="M561.27,0H280.63V.02C175.2,.67,103.81,74.48,103.81,178.56c0,40.35,10.82,76.07,30.11,104.76H0v73.8H280.63v-.02c.47,0,.93,.02,1.4,.02,104.88,0,178.89-74.02,178.89-178.57,0-40.23-10.89-76-30.33-104.76h130.68V0ZM282.7,279.46c-49.12,0-90.61-34.84-90.61-101.23s40.82-100.56,90.61-100.56,90.27,34.51,90.27,100.56-41.15,101.23-90.27,101.23Z" style="fill: #456b40;"/>
</svg>