<svg width="342" height="234" viewBox="0 0 342 234" fill="none" xmlns="http://www.w3.org/2000/svg">
<mask id="mask0_173_959" style="mask-type:alpha" maskUnits="userSpaceOnUse" x="122" y="70" width="110" height="102">
<rect x="124.905" y="73.0156" width="104.1" height="96.1168" fill="#D9D9D9" stroke="#433129" stroke-width="5"/>
</mask>
<g mask="url(#mask0_173_959)">
<mask id="path-2-inside-1_173_959" fill="white">
<path fill-rule="evenodd" clip-rule="evenodd" d="M183.623 145.046C194.072 142.303 201.779 132.794 201.779 121.484C201.779 108.031 190.873 97.1252 177.42 97.1252C163.967 97.1252 153.061 108.031 153.061 121.484C153.061 132.794 160.768 142.303 171.217 145.046L143.692 166.454L177.42 321.977L211.148 166.454L183.623 145.046Z"/>
</mask>
<path d="M183.623 145.046L182.353 140.21L172.565 142.78L180.553 148.993L183.623 145.046ZM171.217 145.046L174.287 148.993L182.275 142.78L172.487 140.21L171.217 145.046ZM143.692 166.454L140.623 162.508L138.139 164.439L138.806 167.514L143.692 166.454ZM177.42 321.977L172.534 323.037L182.307 323.037L177.42 321.977ZM211.148 166.454L216.034 167.514L216.701 164.439L214.218 162.508L211.148 166.454ZM196.779 121.484C196.779 130.465 190.659 138.03 182.353 140.21L184.893 149.882C197.485 146.576 206.779 135.122 206.779 121.484H196.779ZM177.42 102.125C188.112 102.125 196.779 110.793 196.779 121.484H206.779C206.779 105.27 193.634 92.1252 177.42 92.1252V102.125ZM158.061 121.484C158.061 110.793 166.728 102.125 177.42 102.125V92.1252C161.205 92.1252 148.061 105.27 148.061 121.484H158.061ZM172.487 140.21C164.181 138.03 158.061 130.465 158.061 121.484H148.061C148.061 135.122 157.355 146.576 169.947 149.882L172.487 140.21ZM168.147 141.1L140.623 162.508L146.762 170.401L174.287 148.993L168.147 141.1ZM138.806 167.514L172.534 323.037L182.307 320.917L148.579 165.395L138.806 167.514ZM182.307 323.037L216.034 167.514L206.261 165.395L172.534 320.917L182.307 323.037ZM214.218 162.508L186.693 141.1L180.553 148.993L208.078 170.401L214.218 162.508Z" fill="#433129" mask="url(#path-2-inside-1_173_959)"/>
</g>
<mask id="path-4-inside-2_173_959" fill="white">
<rect x="122.405" y="169.637" width="109.632" height="63.8632" rx="2"/>
</mask>
<rect x="122.405" y="169.637" width="109.632" height="63.8632" rx="2" stroke="#433129" stroke-width="6" mask="url(#path-4-inside-2_173_959)"/>
<path d="M168.107 214.848C164.804 214.848 161.501 214.806 158.2 214.871C157.009 214.895 156.456 214.706 156.465 213.291C156.492 209.432 156.417 209.432 160.288 209.432C161.741 209.432 163.197 209.373 164.647 209.448C166.008 209.518 166.179 209.182 165.614 207.909C163.42 202.969 163.574 198.105 166.684 193.576C169.319 189.74 173.344 188.452 177.715 188.341C183.919 188.183 190.131 188.324 196.338 188.274C197.529 188.264 197.933 188.619 197.956 189.843C198.034 193.883 198.081 193.883 194.103 193.874C192.716 193.871 191.325 193.921 189.944 193.836C188.501 193.747 188.477 194.186 189.011 195.398C191.947 202.045 190.17 209.126 184.729 212.699C182.578 214.111 180.177 214.803 177.615 214.837C174.446 214.879 171.276 214.846 168.105 214.848H168.107ZM170.609 201.534C170.589 206.093 173.36 209.215 177.379 209.165C181.384 209.115 183.992 206.158 184.022 201.633C184.052 197.14 181.417 194.178 177.371 194.159C173.311 194.141 170.63 197.066 170.609 201.532V201.534Z" fill="#433129"/>
<path fill-rule="evenodd" clip-rule="evenodd" d="M6.65242 3.99145H335.282C336.752 3.99145 337.943 5.18281 337.943 6.65242V182.276C337.943 183.746 336.752 184.937 335.282 184.937H228.843V188.929H335.282C338.956 188.929 341.934 185.95 341.934 182.276V6.65242C341.934 2.97839 338.956 0 335.282 0H6.65242C2.97839 0 0 2.97839 0 6.65242V182.276C0 185.95 2.97839 188.929 6.65242 188.929H123.735V184.937H6.65242C5.18281 184.937 3.99145 183.746 3.99145 182.276V6.65242C3.99145 5.18281 5.18281 3.99145 6.65242 3.99145Z" fill="#433129"/>
<path fill-rule="evenodd" clip-rule="evenodd" d="M324.638 15.9658H250.337C248.868 15.9658 247.677 17.1572 247.677 18.6268V23.2835C247.677 24.7531 248.868 25.9445 250.337 25.9445H324.638C326.108 25.9445 327.299 24.7531 327.299 23.2835V18.6268C327.299 17.1572 326.108 15.9658 324.638 15.9658ZM250.337 11.9744C246.663 11.9744 243.685 14.9528 243.685 18.6268V23.2835C243.685 26.9575 246.663 29.9359 250.337 29.9359H324.638C328.312 29.9359 331.291 26.9575 331.291 23.2835V18.6268C331.291 14.9528 328.312 11.9744 324.638 11.9744H250.337Z" fill="#433129"/>
<path fill-rule="evenodd" clip-rule="evenodd" d="M324.638 35.9231H250.337C248.868 35.9231 247.677 37.1144 247.677 38.5841V43.2408C247.677 44.7104 248.868 45.9017 250.337 45.9017H324.638C326.108 45.9017 327.299 44.7104 327.299 43.2408V38.5841C327.299 37.1144 326.108 35.9231 324.638 35.9231ZM250.337 31.9316C246.663 31.9316 243.685 34.91 243.685 38.5841V43.2408C243.685 46.9148 246.663 49.8932 250.337 49.8932H324.638C328.312 49.8932 331.291 46.9148 331.291 43.2408V38.5841C331.291 34.91 328.312 31.9316 324.638 31.9316H250.337Z" fill="#433129"/>
<path fill-rule="evenodd" clip-rule="evenodd" d="M324.638 55.8804H250.337C248.868 55.8804 247.677 57.0717 247.677 58.5413V63.198C247.677 64.6676 248.868 65.859 250.337 65.859H324.638C326.108 65.859 327.299 64.6676 327.299 63.198V58.5413C327.299 57.0717 326.108 55.8804 324.638 55.8804ZM250.337 51.8889C246.663 51.8889 243.685 54.8673 243.685 58.5413V63.198C243.685 66.8721 246.663 69.8505 250.337 69.8505H324.638C328.312 69.8505 331.291 66.8721 331.291 63.198V58.5413C331.291 54.8673 328.312 51.8889 324.638 51.8889H250.337Z" fill="#433129"/>
<path fill-rule="evenodd" clip-rule="evenodd" d="M319.765 20.2002C319.528 20.4052 319.23 20.8376 319.23 21.454C319.23 22.0704 319.528 22.5029 319.765 22.7078C319.994 22.9057 320.209 22.9508 320.34 22.9508C320.47 22.9508 320.686 22.9057 320.914 22.7078C321.151 22.5029 321.449 22.0704 321.449 21.454C321.449 20.8376 321.151 20.4052 320.914 20.2002C320.686 20.0024 320.47 19.9572 320.34 19.9572C320.209 19.9572 319.994 20.0024 319.765 20.2002ZM320.34 23.9487C321.931 23.9487 323.222 22.8318 323.222 21.454C323.222 20.0762 321.931 18.9594 320.34 18.9594C318.748 18.9594 317.458 20.0762 317.458 21.454C317.458 22.8318 318.748 23.9487 320.34 23.9487Z" fill="#433129"/>
<path fill-rule="evenodd" clip-rule="evenodd" d="M319.765 40.1576C319.528 40.3626 319.23 40.795 319.23 41.4114C319.23 42.0278 319.528 42.4603 319.765 42.6652C319.994 42.8631 320.209 42.9082 320.34 42.9082C320.47 42.9082 320.686 42.8631 320.914 42.6652C321.151 42.4603 321.449 42.0278 321.449 41.4114C321.449 40.795 321.151 40.3626 320.914 40.1576C320.686 39.9597 320.47 39.9146 320.34 39.9146C320.209 39.9146 319.994 39.9597 319.765 40.1576ZM320.34 43.9061C321.931 43.9061 323.222 42.7892 323.222 41.4114C323.222 40.0336 321.931 38.9167 320.34 38.9167C318.748 38.9167 317.458 40.0336 317.458 41.4114C317.458 42.7892 318.748 43.9061 320.34 43.9061Z" fill="#433129"/>
<path fill-rule="evenodd" clip-rule="evenodd" d="M319.765 60.1149C319.528 60.3198 319.23 60.7522 319.23 61.3687C319.23 61.9851 319.528 62.4175 319.765 62.6225C319.994 62.8203 320.209 62.8655 320.34 62.8655C320.47 62.8655 320.686 62.8203 320.914 62.6225C321.151 62.4175 321.449 61.9851 321.449 61.3687C321.449 60.7522 321.151 60.3198 320.914 60.1149C320.686 59.917 320.47 59.8719 320.34 59.8719C320.209 59.8719 319.994 59.917 319.765 60.1149ZM320.34 63.8633C321.931 63.8633 323.222 62.7464 323.222 61.3687C323.222 59.9909 321.931 58.874 320.34 58.874C318.748 58.874 317.458 59.9909 317.458 61.3687C317.458 62.7464 318.748 63.8633 320.34 63.8633Z" fill="#433129"/>
<path fill-rule="evenodd" clip-rule="evenodd" d="M319.765 79.7394C319.528 79.9443 319.23 80.3768 319.23 80.9932C319.23 81.6096 319.528 82.042 319.765 82.247C319.994 82.4448 320.209 82.49 320.34 82.49C320.471 82.49 320.686 82.4448 320.915 82.247C321.151 82.042 321.45 81.6096 321.45 80.9932C321.45 80.3768 321.151 79.9443 320.915 79.7394C320.686 79.5415 320.471 79.4964 320.34 79.4964C320.209 79.4964 319.994 79.5415 319.765 79.7394ZM320.34 83.4879C321.931 83.4879 323.222 82.371 323.222 80.9932C323.222 79.6154 321.931 78.4985 320.34 78.4985C318.748 78.4985 317.458 79.6154 317.458 80.9932C317.458 82.371 318.748 83.4879 320.34 83.4879Z" fill="#433129"/>
<path fill-rule="evenodd" clip-rule="evenodd" d="M324.638 75.8376H248.801C247.331 75.8376 246.14 77.029 246.14 78.4986V166.311C246.14 167.78 247.331 168.972 248.801 168.972H324.638C326.108 168.972 327.299 167.78 327.299 166.311V78.4986C327.299 77.029 326.108 75.8376 324.638 75.8376ZM248.801 71.8462C245.127 71.8462 242.148 74.8246 242.148 78.4986V166.311C242.148 169.985 245.127 172.963 248.801 172.963H324.638C328.312 172.963 331.291 169.985 331.291 166.311V78.4986C331.291 74.8246 328.312 71.8462 324.638 71.8462H248.801Z" fill="#433129"/>
<path fill-rule="evenodd" clip-rule="evenodd" d="M318.995 89.1423H254.444V85.1509H318.995V89.1423Z" fill="#433129"/>
<path fill-rule="evenodd" clip-rule="evenodd" d="M318.995 126.396H254.444V122.405H318.995V126.396Z" fill="#433129"/>
<path fill-rule="evenodd" clip-rule="evenodd" d="M318.995 131.718H254.444V127.727H318.995V131.718Z" fill="#433129"/>
<path fill-rule="evenodd" clip-rule="evenodd" d="M318.995 137.04H254.444V133.048H318.995V137.04Z" fill="#433129"/>
<path fill-rule="evenodd" clip-rule="evenodd" d="M318.995 142.362H254.444V138.37H318.995V142.362Z" fill="#433129"/>
<path fill-rule="evenodd" clip-rule="evenodd" d="M318.995 147.684H254.444V143.692H318.995V147.684Z" fill="#433129"/>
<path fill-rule="evenodd" clip-rule="evenodd" d="M318.995 153.006H254.444V149.014H318.995V153.006Z" fill="#433129"/>
<path fill-rule="evenodd" clip-rule="evenodd" d="M318.995 158.328H254.444V154.336H318.995V158.328Z" fill="#433129"/>
<path fill-rule="evenodd" clip-rule="evenodd" d="M318.995 163.65H254.444V159.658H318.995V163.65Z" fill="#433129"/>
<path fill-rule="evenodd" clip-rule="evenodd" d="M302.089 94.4644H254.444V90.4729H302.089V94.4644Z" fill="#433129"/>
<path fill-rule="evenodd" clip-rule="evenodd" d="M302.089 103.778H254.444V99.7864H302.089V103.778Z" fill="#433129"/>
<path fill-rule="evenodd" clip-rule="evenodd" d="M79.7978 46.5669C79.8185 46.126 79.8289 45.6824 79.8289 45.2364C79.8289 29.8055 67.3197 17.2963 51.8888 17.2963C36.4578 17.2963 23.9486 29.8055 23.9486 45.2364C23.9486 45.6824 23.9591 46.126 23.9797 46.5669H19.9844C19.9663 46.1257 19.9572 45.6821 19.9572 45.2364C19.9572 27.6011 34.2534 13.3048 51.8888 13.3048C69.5241 13.3048 83.8204 27.6011 83.8204 45.2364C83.8204 45.6821 83.8113 46.1257 83.7932 46.5669H79.7978Z" fill="#433129"/>
<path fill-rule="evenodd" clip-rule="evenodd" d="M51.8888 47.8975C52.6236 47.8975 53.2193 47.3019 53.2193 46.5671C53.2193 45.8322 52.6236 45.2366 51.8888 45.2366C51.154 45.2366 50.5583 45.8322 50.5583 46.5671C50.5583 47.3019 51.154 47.8975 51.8888 47.8975ZM51.8888 51.889C54.8281 51.889 57.2108 49.5063 57.2108 46.5671C57.2108 43.6278 54.8281 41.2451 51.8888 41.2451C48.9496 41.2451 46.5669 43.6278 46.5669 46.5671C46.5669 49.5063 48.9496 51.889 51.8888 51.889Z" fill="#433129"/>
<path fill-rule="evenodd" clip-rule="evenodd" d="M71.4608 30.6012L57.2108 43.4517L54.5377 40.4875L68.7878 27.637L71.4608 30.6012Z" fill="#433129"/>
<path fill-rule="evenodd" clip-rule="evenodd" d="M22.6183 62.7544C20.6588 62.7544 19.0703 61.1659 19.0703 59.2064C19.0703 57.2469 20.6588 55.6584 22.6183 55.6584C24.3504 55.6584 25.7926 56.8997 26.104 58.5412H85.151V59.8716H26.104C25.7926 61.5132 24.3504 62.7544 22.6183 62.7544Z" fill="#433129"/>
<path fill-rule="evenodd" clip-rule="evenodd" d="M22.6183 74.7287C20.6588 74.7287 19.0703 73.1403 19.0703 71.1808C19.0703 69.2213 20.6588 67.6328 22.6183 67.6328C24.3504 67.6328 25.7926 68.874 26.104 70.5155H85.151V71.846H26.104C25.7926 73.4875 24.3504 74.7287 22.6183 74.7287Z" fill="#433129"/>
<path fill-rule="evenodd" clip-rule="evenodd" d="M22.6183 86.7031C20.6588 86.7031 19.0703 85.1146 19.0703 83.1551C19.0703 81.1957 20.6588 79.6072 22.6183 79.6072C24.3504 79.6072 25.7926 80.8484 26.104 82.4899H85.151V83.8204H26.104C25.7926 85.4619 24.3504 86.7031 22.6183 86.7031Z" fill="#433129"/>
<g clip-path="url(#clip0_173_959)">
<path fill-rule="evenodd" clip-rule="evenodd" d="M194.251 59.4632V51.1415L185.372 49.7943L184.866 48.2275C184.519 47.152 183.96 45.7871 183.16 44.1134L182.501 42.734L183.361 41.4699C183.953 40.5983 184.809 39.4574 185.903 38.068C186.665 37.1003 187.256 36.3415 187.683 35.7856C187.453 35.4845 187.136 35.1034 186.716 34.6353C185.598 33.3898 183.921 31.7171 181.656 29.6012L174.536 34.9861L173.049 34.2222C171.678 33.5182 170.484 33.0299 169.458 32.7273L167.831 32.2474L166.472 23.1885H158.084C157.756 24.7146 157.414 27.1052 157.075 30.4439L156.9 32.167L155.254 32.7046C153.825 33.1709 152.582 33.6922 151.514 34.2597L149.985 35.0713L142.96 29.5584C142.95 29.5659 142.939 29.5736 142.929 29.5814C142.357 30.0094 141.559 30.7131 140.513 31.7446C138.724 33.5086 137.495 34.8275 136.754 35.7374C138.573 37.9397 140.076 39.8759 141.251 41.5392L142.179 42.8527L141.447 44.2849C140.742 45.6652 140.229 46.8982 139.887 47.9895L139.392 49.5691L130.388 50.9671V59.2409L139.283 60.6493L139.778 62.2206C140.154 63.4142 140.717 64.7504 141.491 66.2342L142.252 67.6939L141.285 69.0265C140.675 69.8675 139.801 71.0045 138.676 72.4234C137.904 73.3981 137.333 74.1307 136.949 74.6368C137.18 74.9391 137.499 75.3228 137.923 75.795C139.041 77.0405 140.717 78.7132 142.982 80.8291L150.102 75.4442L151.59 76.2081C152.96 76.9121 154.154 77.4004 155.18 77.703L156.808 78.1829L158.166 87.2418H166.551C166.882 85.6823 167.224 83.2716 167.563 79.9322L167.743 78.1647L169.444 77.6529C170.73 77.266 171.966 76.7669 173.154 76.1551L174.672 75.3736L181.671 80.866C181.676 80.8619 181.682 80.8577 181.688 80.8535C182.254 80.4231 183.045 79.7144 184.082 78.6744C185.829 76.9232 187.069 75.5934 187.854 74.6559C186.049 72.4689 184.556 70.5451 183.388 68.8911L182.46 67.5776L183.191 66.1454C183.896 64.7651 184.409 63.5321 184.752 62.4408L185.247 60.8612L194.251 59.4632ZM190.426 73.5887C190.678 73.9862 190.804 74.3475 190.804 74.6727C190.804 75.1063 190.678 75.4496 190.426 75.7025C190.344 75.8094 190.256 75.9214 190.161 76.0386C189.516 76.8389 188.573 77.8807 187.332 79.164C186.911 79.5993 186.456 80.0625 185.966 80.5534C183.822 82.7033 182.408 83.7782 181.723 83.7782C181.327 83.7782 180.949 83.6518 180.588 83.3988L174.373 78.5209C173.039 79.2074 171.652 79.7675 170.211 80.2011C169.814 84.1034 169.4 86.9037 168.967 88.602C168.715 89.4692 168.175 89.9028 167.346 89.9028H157.292C156.896 89.9028 156.536 89.7673 156.211 89.4963C155.887 89.2253 155.707 88.9091 155.671 88.5478L154.428 80.2553C153.203 79.8939 151.851 79.3339 150.374 78.5751L143.996 83.3988C143.744 83.6518 143.383 83.7782 142.915 83.7782C142.518 83.7782 142.14 83.6337 141.78 83.3446C136.591 78.539 133.996 75.6483 133.996 74.6727C133.996 74.3475 134.123 74.0043 134.375 73.6429C134.735 73.1371 135.474 72.1796 136.591 70.7704C137.708 69.3612 138.555 68.2591 139.131 67.4642C138.303 65.8744 137.672 64.3929 137.24 63.0199L129.024 61.7191C128.663 61.6829 128.357 61.5113 128.105 61.2042C127.853 60.8971 127.727 60.5448 127.727 60.1473V50.1204C127.727 49.7591 127.853 49.4068 128.105 49.0635C128.357 48.7202 128.645 48.5305 128.97 48.4944L137.348 47.1936C137.744 45.929 138.321 44.5559 139.077 43.0745C137.852 41.3401 136.231 39.2624 134.213 36.8415C133.96 36.4441 133.834 36.0827 133.834 35.7576C133.834 35.324 133.96 34.9626 134.213 34.6736C135.005 33.5896 136.483 31.9817 138.645 29.8498C140.807 27.718 142.23 26.6521 142.915 26.6521C143.311 26.6521 143.69 26.7785 144.05 27.0314L150.266 31.9094C151.491 31.259 152.878 30.6809 154.428 30.175C154.824 26.2727 155.238 23.4904 155.671 21.8283C155.923 20.9611 156.464 20.5275 157.292 20.5275H167.346C167.742 20.5275 168.103 20.663 168.427 20.934C168.751 21.205 168.931 21.5212 168.967 21.8825L170.211 30.175C171.436 30.5363 172.787 31.0964 174.264 31.8552L180.642 27.0314C180.931 26.7785 181.291 26.6521 181.723 26.6521C182.12 26.6521 182.498 26.7966 182.859 27.0856C184.666 28.7594 186.158 30.2009 187.336 31.4101C188.496 32.6012 189.351 33.567 189.901 34.3073C190.395 34.9731 190.642 35.4565 190.642 35.7576C190.642 36.0466 190.516 36.3899 190.263 36.7873C189.831 37.3655 189.074 38.3411 187.993 39.7141C186.912 41.0872 186.102 42.1712 185.561 42.9661C186.39 44.7005 187.002 46.1819 187.399 47.4104L195.615 48.657C195.975 48.7293 196.281 48.919 196.533 49.2261C196.786 49.5332 196.912 49.8855 196.912 50.283V60.3099C196.912 60.6712 196.786 61.0235 196.533 61.3668C196.281 61.71 195.993 61.8997 195.669 61.9359L187.291 63.2367C186.894 64.5013 186.318 65.8744 185.561 67.3558C186.786 69.0902 188.408 71.1678 190.426 73.5887ZM191.661 78.3932C190.549 78.6488 189.993 78.9082 189.993 79.1713V86.7592C189.993 87.3373 192.678 87.8974 198.047 88.4394C198.479 89.415 199.02 90.3544 199.668 91.2578C197.831 95.3408 196.912 97.834 196.912 98.7373C196.912 98.8818 196.984 99.0083 197.128 99.1167C201.524 101.682 203.758 102.965 203.83 102.965C204.119 102.965 204.947 102.116 206.317 100.417C207.686 98.7192 208.623 97.4907 209.127 96.7319C209.848 96.8042 210.388 96.8403 210.749 96.8403C211.109 96.8403 211.65 96.8042 212.37 96.7319C212.875 97.4907 213.812 98.7192 215.181 100.417C216.55 102.116 217.379 102.965 217.667 102.965C217.739 102.965 219.973 101.682 224.37 99.1167C224.514 99.0083 224.586 98.8818 224.586 98.7373C224.586 97.834 223.667 95.3408 221.829 91.2578C222.478 90.3544 223.018 89.415 223.451 88.4394C228.82 87.8974 231.504 87.3373 231.504 86.7592V79.1713C231.504 78.5932 228.82 78.0331 223.451 77.4911C222.982 76.4433 222.442 75.5038 221.829 74.6727C223.667 70.5897 224.586 68.0965 224.586 67.1932C224.586 67.0487 224.514 66.9222 224.37 66.8138C220.046 64.2845 217.811 63.0199 217.667 63.0199L217.343 63.1283C215.866 64.6097 214.208 66.6332 212.37 69.1986C211.65 69.1263 211.109 69.0902 210.749 69.0902C210.388 69.0902 209.848 69.1263 209.127 69.1986C208.623 68.4398 207.686 67.2203 206.317 65.5401C204.947 63.86 204.119 63.0199 203.83 63.0199C203.758 63.0199 203.218 63.3089 202.209 63.8871C201.2 64.4652 200.137 65.0794 199.02 65.7298C197.903 66.3802 197.272 66.7416 197.128 66.8138C196.984 66.9222 196.912 67.0487 196.912 67.1932C196.912 68.0965 197.831 70.5897 199.668 74.6727C199.056 75.5038 198.515 76.4433 198.047 77.4911C195.121 77.7864 192.993 78.0871 191.661 78.3932ZM198.047 21.9909C192.678 22.5329 189.993 23.093 189.993 23.6711V31.259C189.993 31.5059 190.483 31.7495 191.462 31.9898C192.776 32.3122 194.971 32.6286 198.047 32.9392C198.479 33.9148 199.02 34.8542 199.668 35.7576C197.831 39.8406 196.912 42.3337 196.912 43.2371C196.912 43.3816 196.984 43.5081 197.128 43.6165C201.524 46.1819 203.758 47.4646 203.83 47.4646C204.119 47.4646 204.947 46.6155 206.317 44.9173C207.686 43.219 208.623 41.9905 209.127 41.2317C209.848 41.304 210.388 41.3401 210.749 41.3401C211.109 41.3401 211.65 41.304 212.37 41.2317C212.875 41.9905 213.812 43.219 215.181 44.9173C216.55 46.6155 217.379 47.4646 217.667 47.4646C217.739 47.4646 219.973 46.1819 224.37 43.6165C224.514 43.5081 224.586 43.3816 224.586 43.2371C224.586 42.3337 223.667 39.8406 221.829 35.7576C222.478 34.8542 223.018 33.9148 223.451 32.9392C228.82 32.3972 231.504 31.8371 231.504 31.259V23.6711C231.504 23.093 228.82 22.5329 223.451 21.9909C222.982 20.943 222.442 20.0036 221.829 19.1725C223.667 15.0895 224.586 12.5963 224.586 11.693C224.586 11.5485 224.514 11.422 224.37 11.3136C220.046 8.78431 217.811 7.51965 217.667 7.51965L217.343 7.62805C215.866 9.1095 214.208 11.1329 212.37 13.6984C211.65 13.6261 211.109 13.59 210.749 13.59C210.388 13.59 209.848 13.6261 209.127 13.6984C208.623 12.9396 207.686 11.7201 206.317 10.0399C204.947 8.35974 204.119 7.51965 203.83 7.51965C203.758 7.51965 203.218 7.80872 202.209 8.38684C201.2 8.96497 200.137 9.57923 199.02 10.2296C197.903 10.88 197.272 11.2413 197.128 11.3136C196.984 11.422 196.912 11.5485 196.912 11.693C196.912 12.5963 197.831 15.0895 199.668 19.1725C199.056 20.0036 198.515 20.943 198.047 21.9909ZM199.909 12.7909C199.964 12.9527 200.027 13.1289 200.098 13.3202C200.526 14.4828 201.187 16.0628 202.095 18.0804L202.733 19.4991L201.81 20.7514C201.323 21.413 200.875 22.1841 200.476 23.0769L199.847 24.4836L198.314 24.6384C195.727 24.8995 193.86 25.1567 192.654 25.4009V29.5292C193.86 29.7734 195.727 30.0306 198.314 30.2917L199.853 30.447L200.48 31.8609C200.835 32.6629 201.283 33.4442 201.83 34.2055L202.724 35.4513L202.095 36.8497C201.187 38.8673 200.526 40.4473 200.098 41.6099C200.025 41.8071 199.96 41.9884 199.904 42.1544C201.399 43.0255 202.573 43.7054 203.426 44.1949C203.433 44.1995 203.441 44.204 203.449 44.2085C203.679 43.9401 203.944 43.6209 204.245 43.247C205.614 41.5493 206.481 40.4051 206.911 39.7585L207.798 38.4241L209.393 38.584C210.094 38.6544 210.527 38.6791 210.749 38.6791C210.971 38.6791 211.403 38.6544 212.105 38.584L213.699 38.4241L214.586 39.7585C215.016 40.4051 215.884 41.5493 217.252 43.247C217.554 43.6209 217.819 43.9401 218.048 44.2085C218.056 44.204 218.064 44.1995 218.072 44.1949C218.925 43.7054 220.098 43.0255 221.594 42.1544C221.537 41.9884 221.473 41.8071 221.4 41.6099C220.971 40.4473 220.311 38.8673 219.403 36.8497L218.773 35.4513L219.668 34.2055C220.214 33.4442 220.663 32.6629 221.018 31.8609L221.645 30.447L223.183 30.2917C225.77 30.0306 227.638 29.7734 228.843 29.5292V25.4009C227.638 25.1567 225.77 24.8995 223.183 24.6384L221.65 24.4836L221.021 23.0769C220.622 22.1841 220.175 21.413 219.687 20.7514L218.764 19.4991L219.403 18.0804C220.311 16.0628 220.971 14.4828 221.4 13.3202C221.473 13.1226 221.537 12.941 221.594 12.7748C220.133 11.9235 218.982 11.2605 218.14 10.7838C218.116 10.7704 218.093 10.7571 218.07 10.7439C217.01 11.9407 215.831 13.4362 214.534 15.248L213.637 16.4997L212.105 16.3461C211.403 16.2757 210.971 16.251 210.749 16.251C210.527 16.251 210.094 16.2757 209.393 16.3461L207.798 16.5059L206.911 15.1716C206.486 14.5312 205.622 13.4001 204.254 11.721C203.944 11.341 203.673 11.0183 203.44 10.7484C202.464 11.3078 201.437 11.9014 200.359 12.5292C200.201 12.6208 200.051 12.7081 199.909 12.7909ZM229.962 25.6907C229.98 25.6982 229.978 25.6983 229.96 25.6897C229.961 25.6901 229.961 25.6904 229.962 25.6907ZM229.962 29.2393C229.961 29.2397 229.961 29.24 229.96 29.2404C229.978 29.2318 229.98 29.2319 229.962 29.2393ZM191.535 29.2393C191.518 29.2319 191.52 29.2317 191.538 29.2404C191.537 29.24 191.536 29.2397 191.535 29.2393ZM191.535 25.6907C191.536 25.6904 191.537 25.6901 191.538 25.6897C191.52 25.6983 191.518 25.6982 191.535 25.6907ZM199.909 68.2911C199.964 68.4529 200.027 68.6291 200.098 68.8204C200.526 69.983 201.187 71.563 202.095 73.5806L202.733 74.9993L201.81 76.2516C201.323 76.9132 200.875 77.6843 200.476 78.5771L199.847 79.9838L198.314 80.1386C195.727 80.3997 193.86 80.6569 192.654 80.9011V85.0294C193.86 85.2736 195.727 85.5308 198.314 85.7919L199.853 85.9472L200.48 87.3611C200.835 88.1631 201.283 88.9444 201.83 89.7057L202.724 90.9515L202.095 92.3499C201.187 94.3675 200.526 95.9475 200.098 97.1101C200.025 97.3074 199.96 97.4887 199.904 97.6546C201.399 98.5257 202.573 99.2056 203.426 99.6951C203.433 99.6997 203.441 99.7042 203.449 99.7087C203.679 99.4403 203.944 99.1211 204.245 98.7472C205.614 97.0495 206.481 95.9053 206.911 95.2587L207.798 93.9243L209.393 94.0842C210.094 94.1546 210.527 94.1793 210.749 94.1793C210.971 94.1793 211.403 94.1546 212.105 94.0842L213.699 93.9243L214.586 95.2587C215.016 95.9053 215.884 97.0495 217.252 98.7472C217.554 99.1211 217.819 99.4403 218.048 99.7087C218.056 99.7042 218.064 99.6997 218.072 99.6951C218.925 99.2056 220.098 98.5257 221.594 97.6546C221.537 97.4886 221.473 97.3074 221.4 97.1101C220.971 95.9475 220.311 94.3675 219.403 92.3499L218.773 90.9515L219.668 89.7057C220.214 88.9444 220.663 88.1631 221.018 87.3611L221.645 85.9472L223.183 85.7919C225.77 85.5308 227.638 85.2736 228.843 85.0294V80.9011C227.638 80.6569 225.77 80.3997 223.183 80.1386L221.65 79.9838L221.021 78.5771C220.622 77.6843 220.175 76.9132 219.687 76.2516L218.764 74.9993L219.403 73.5806C220.311 71.563 220.971 69.983 221.4 68.8204C221.473 68.6228 221.537 68.4412 221.594 68.275C220.133 67.4238 218.982 66.7607 218.14 66.284C218.116 66.2706 218.093 66.2573 218.07 66.2441C217.01 67.441 215.831 68.9364 214.534 70.7482L213.637 71.9999L212.105 71.8463C211.403 71.7759 210.971 71.7512 210.749 71.7512C210.527 71.7512 210.094 71.7759 209.393 71.8463L207.798 72.0061L206.911 70.6718C206.486 70.0314 205.622 68.9003 204.254 67.2212C203.944 66.8412 203.673 66.5185 203.44 66.2486C202.464 66.808 201.437 67.4016 200.359 68.0294C200.201 68.121 200.051 68.2083 199.909 68.2911ZM229.962 84.7395C229.961 84.7399 229.961 84.7402 229.96 84.7406C229.978 84.732 229.98 84.7321 229.962 84.7395ZM191.535 84.7395C191.518 84.7321 191.52 84.7319 191.538 84.7406C191.537 84.7402 191.536 84.7399 191.535 84.7395ZM191.535 81.191C191.536 81.1906 191.537 81.1902 191.538 81.1899C191.52 81.1985 191.518 81.1984 191.535 81.191ZM143.498 29.2111C143.497 29.2116 143.488 29.2162 143.471 29.2231C143.489 29.214 143.498 29.2105 143.498 29.2111ZM181.129 81.2231C181.129 81.2227 181.138 81.218 181.155 81.2109C181.137 81.2201 181.129 81.2236 181.129 81.2231ZM173.987 43.526C177.187 46.7352 178.817 50.6812 178.817 55.2151C178.817 59.7491 177.187 63.695 173.987 66.9042C170.786 70.1137 166.847 71.7512 162.319 71.7512C157.791 71.7512 153.852 70.1137 150.652 66.9042C147.451 63.695 145.821 59.7491 145.821 55.2151C145.821 50.6812 147.451 46.7352 150.652 43.526C153.852 40.3166 157.791 38.6791 162.319 38.6791C166.847 38.6791 170.786 40.3166 173.987 43.526ZM217.498 76.2083C219.346 78.0623 220.328 80.357 220.328 82.9652C220.328 85.5842 219.374 87.8951 217.525 89.7493C215.675 91.6038 213.367 92.5637 210.749 92.5637C208.13 92.5637 205.822 91.6038 203.973 89.7493C202.124 87.8951 201.169 85.5842 201.169 82.9652C201.169 80.357 202.151 78.0623 204 76.2083C205.849 74.3541 208.141 73.3668 210.749 73.3668C213.357 73.3668 215.648 74.3541 217.498 76.2083ZM217.498 20.7081C219.346 22.5621 220.328 24.8568 220.328 27.465C220.328 30.084 219.374 32.3949 217.525 34.2491C215.675 36.1036 213.367 37.0635 210.749 37.0635C208.13 37.0635 205.822 36.1036 203.973 34.2491C202.124 32.3949 201.169 30.084 201.169 27.465C201.169 24.8568 202.151 22.5621 204 20.7081C205.849 18.8539 208.141 17.8665 210.749 17.8665C213.357 17.8665 215.648 18.8539 217.498 20.7081ZM172.102 45.405C174.805 48.115 176.156 51.3851 176.156 55.2151C176.156 59.0452 174.805 62.3153 172.102 65.0252C169.4 67.7352 166.139 69.0902 162.319 69.0902C158.5 69.0902 155.238 67.7352 152.536 65.0252C149.833 62.3153 148.482 59.0452 148.482 55.2151C148.482 51.3851 149.833 48.115 152.536 45.405C155.238 42.6951 158.5 41.3401 162.319 41.3401C166.139 41.3401 169.4 42.6951 172.102 45.405ZM215.613 78.0873C216.983 79.4604 217.667 81.0863 217.667 82.9652C217.667 84.8803 216.992 86.5153 215.64 87.8703C214.289 89.2253 212.659 89.9028 210.749 89.9028C208.839 89.9028 207.208 89.2253 205.857 87.8703C204.506 86.5153 203.83 84.8803 203.83 82.9652C203.83 81.0863 204.515 79.4604 205.884 78.0873C207.253 76.7142 208.875 76.0277 210.749 76.0277C212.623 76.0277 214.244 76.7142 215.613 78.0873ZM215.613 22.5871C216.983 23.9601 217.667 25.5861 217.667 27.465C217.667 29.3801 216.992 31.0151 215.64 32.3701C214.289 33.7251 212.659 34.4026 210.749 34.4026C208.839 34.4026 207.208 33.7251 205.857 32.3701C204.506 31.0151 203.83 29.3801 203.83 27.465C203.83 25.5861 204.515 23.9601 205.884 22.5871C207.253 21.214 208.875 20.5275 210.749 20.5275C212.623 20.5275 214.244 21.214 215.613 22.5871Z" fill="#433129"/>
</g>
<path d="M49.8932 111.095C49.8932 120.326 43.5068 128.957 34.9252 131.053C26.3436 128.957 19.9573 120.326 19.9573 111.095V101.117L34.9252 94.4644L49.8932 101.117V111.095ZM34.9252 127.726C41.1619 126.063 46.567 118.646 46.567 111.461V103.279L34.9252 98.0899L23.2835 103.279V111.461C23.2835 118.646 28.6886 126.063 34.9252 127.726ZM39.5819 111.095V108.601C39.5819 106.272 37.2536 104.443 34.9252 104.443C32.5969 104.443 30.2685 106.272 30.2685 108.601V111.095C29.2707 111.095 28.2728 112.093 28.2728 113.091V118.912C28.2728 120.076 29.2707 121.074 30.2685 121.074H39.4156C40.5798 121.074 41.5776 120.076 41.5776 119.078V113.257C41.5776 112.093 40.5798 111.095 39.5819 111.095ZM37.4199 111.095H32.4306V108.601C32.4306 107.27 33.5947 106.439 34.9252 106.439C36.2557 106.439 37.4199 107.27 37.4199 108.601V111.095Z" fill="#433129"/>
<path fill-rule="evenodd" clip-rule="evenodd" d="M63.8633 102.004C61.9038 102.004 60.3153 100.415 60.3153 98.4557C60.3153 96.4962 61.9038 94.9077 63.8633 94.9077C65.5954 94.9077 67.0376 96.1489 67.349 97.7904H126.396V99.1209H67.349C67.0376 100.762 65.5954 102.004 63.8633 102.004Z" fill="#433129"/>
<path fill-rule="evenodd" clip-rule="evenodd" d="M63.8633 113.978C61.9038 113.978 60.3153 112.39 60.3153 110.43C60.3153 108.471 61.9038 106.882 63.8633 106.882C65.5954 106.882 67.0376 108.123 67.349 109.765H126.396V111.095H67.349C67.0376 112.737 65.5954 113.978 63.8633 113.978Z" fill="#433129"/>
<path fill-rule="evenodd" clip-rule="evenodd" d="M63.8633 125.952C61.9038 125.952 60.3153 124.364 60.3153 122.404C60.3153 120.445 61.9038 118.856 63.8633 118.856C65.5954 118.856 67.0376 120.098 67.349 121.739H126.396V123.07H67.349C67.0376 124.711 65.5954 125.952 63.8633 125.952Z" fill="#433129"/>
<defs>
<clipPath id="clip0_173_959">
<rect width="103.778" height="97.1254" fill="white" transform="translate(127.727 6.65247)"/>
</clipPath>
</defs>
</svg>
