<?xml version="1.0" encoding="utf-8"?>
<!-- Generator: Adobe Illustrator 27.0.0, SVG Export Plug-In . SVG Version: 6.00 Build 0)  -->
<svg version="1.1" id="Layer_1" xmlns="http://www.w3.org/2000/svg" xmlns:xlink="http://www.w3.org/1999/xlink" x="0px" y="0px"
	 viewBox="0 0 550 780" style="enable-background:new 0 0 550 780;" xml:space="preserve">
<style type="text/css">
	.st0{fill:url(#SVGID_1_);filter:url(#Adobe_OpacityMaskFilter);}
	.st1{mask:url(#mask0_138_57_00000102523841257678569260000014595228268087223212_);}
	.st2{fill:url(#SVGID_00000153699020881520960570000015916524930259552666_);}
	.st3{fill:none;stroke:#904B2C;stroke-width:5;}
	.st4{fill:#7BB868;}
	.st5{fill:#438348;}
</style>
<defs>
	<filter id="Adobe_OpacityMaskFilter" filterUnits="userSpaceOnUse" x="0.6" y="26.5" width="540.5" height="803">
		<feColorMatrix  type="matrix" values="1 0 0 0 0  0 1 0 0 0  0 0 1 0 0  0 0 0 1 0"/>
	</filter>
</defs>
<mask maskUnits="userSpaceOnUse" x="0.6" y="26.5" width="540.5" height="803" id="mask0_138_57_00000102523841257678569260000014595228268087223212_">
	
		<linearGradient id="SVGID_1_" gradientUnits="userSpaceOnUse" x1="265.1435" y1="819.8819" x2="265.1435" y2="-36.1181" gradientTransform="matrix(1 0 0 -1 0 780.8819)">
		<stop  offset="0" style="stop-color:#D9D9D8"/>
		<stop  offset="0.7344" style="stop-color:#D9D9D8"/>
		<stop  offset="0.8594" style="stop-color:#D9D9D8;stop-opacity:0.15"/>
		<stop  offset="0.9479" style="stop-color:#D9D9D8;stop-opacity:0"/>
	</linearGradient>
	<rect x="-598.9" y="-39" class="st0" width="1728" height="856"/>
</mask>
<g class="st1">
	
		<linearGradient id="SVGID_00000179621718596598938800000003106009829567884687_" gradientUnits="userSpaceOnUse" x1="266.6337" y1="751.8819" x2="266.6337" y2="-48.6181" gradientTransform="matrix(1 0 0 -1 0 780.8819)">
		<stop  offset="0" style="stop-color:#D9D9D8"/>
		<stop  offset="0.7344" style="stop-color:#D9D9D8"/>
		<stop  offset="0.8594" style="stop-color:#D9D9D8;stop-opacity:0.15"/>
		<stop  offset="0.9479" style="stop-color:#D9D9D8;stop-opacity:0"/>
	</linearGradient>
	<path style="fill:url(#SVGID_00000179621718596598938800000003106009829567884687_);" d="M266.6,127.5c0-2.1,0-4.5,0-7V127.5z"/>
	<path class="st3" d="M266.6,829.5c0,0,0-185,0-273.5 M266.6,556c0-15,8.4-36.5,46-36.5s102.3,0,130,0 M266.6,556
		c0-12.1,0-33.9,0-46 M442.6,519.5c16.5,0,46,4,46,46 M442.6,519.5h66c13,0,30,4.4,30-30 M266.6,510c0-13-3.9-43.5-41.5-43.5
		c-23.5,0-76.3,0-125,0 M266.6,510c0-52.3,0-206.7,0-259 M100.1,466.5c-29.1,0-56.8,0-76,0c-7-0.2-21,3.8-21,21 M100.1,466.5
		c-15,0-41-1-41-41 M266.6,251c0-16,5.6-46,46-46s103.5,0,130,0 M266.6,251c0-83.4,0-90.5,0-90.5 M442.6,205c12.5,0,40-1.6,40-40
		 M442.6,205h51.5c7.7,0,23,4.6,23,23 M266.6,160.5c0-15,0.1-41.5-41.5-41.5s-100.7,0-125,0 M266.6,160.5v-33 M266.6,127.5
		c0-15.5-2.4-46,46-46 M266.6,127.5v-66c0-12-2.9-32.5-32.5-32.5"/>
</g>
<path class="st4" d="M527.9,469.3h21.4v21.4h-21.4V469.3z"/>
<rect x="471.9" y="144.2" transform="matrix(0.7071 -0.7071 0.7071 0.7071 31.8316 386.6499)" class="st4" width="21.4" height="21.4"/>
<ellipse class="st4" cx="59.1" cy="417.8" rx="15.5" ry="8.5"/>
<path class="st5" d="M231.5,11.3L245.8,36h-28.6L231.5,11.3z"/>
<path class="st4" d="M312,71.3h34l-9,23h-34L312,71.3z"/>
</svg>
