<svg height="22.486" viewBox="0 0 133.447 22.486" width="133.447" xmlns="http://www.w3.org/2000/svg"
>
    <clipPath id="a">
        <path d="m0-78.616h133.447v-22.484h-133.447z" transform="translate(0 101.102)"></path>
    </clipPath>
    <g clip-path="url(#a)">
        <path d="m-5.921-14.073c0-1.971-.5-2.082-1.693-2.082v-.611h8.3v.611c-1.249 0-1.832.111-1.832 2.082v15.435c0 1.916.583 2.082 1.8 2.082v.611h-8.268v-.611c1.194 0 1.666-.167 1.666-2.082zm5.247 7.246 5.8-6.663c1.388-1.582.944-2.665-.722-2.665v-.611h5.969v.611c-.722 0-1.416.222-2.86 1.888l-4.439 5.08 6.026 10.744c.944 1.693 1.221 1.888 1.915 1.888v.611h-7.858v-.612c1.471 0 1.471-.528.888-1.61l-4.719-8.384zm15.485 11.215a3.856 3.856 0 0 1 -4-4.136c0-2.693 1.61-3.859 3.886-4.553a17.449 17.449 0 0 0 3.082-1.027c.916-.472 1.36-1.249 1.36-2.776 0-1.5-.5-2.443-1.888-2.443-1.721 0-1.666 1.555-1.888 2.915a1.886 1.886 0 0 1 -2.051 1.832 1.868 1.868 0 0 1 -2.054-1.943c0-2.193 2.526-3.97 6.385-3.97 3.248 0 5.663 1.249 5.663 4.886v7.662c0 .694.222 1.166.722 1.166a1.237 1.237 0 0 0 .972-.611l.333.305a3.9 3.9 0 0 1 -3.581 2.637 2.537 2.537 0 0 1 -2.859-2.3 4.791 4.791 0 0 1 -4.081 2.36m.416-5.025c0 1.61.666 2.443 1.777 2.443a2.244 2.244 0 0 0 1.859-1.11v-5.556a2.231 2.231 0 0 1 -.777.75c-.444.333-1.027.528-1.61.888a2.725 2.725 0 0 0 -1.25 2.581m17.137 4.692h-6.913v-.583c.611 0 1.111-.222 1.111-1.638v-8.384c0-1.915-.028-2.3-1.194-2.137v-.583l5.691-2.443v3.054a5.691 5.691 0 0 1 4.692-3.054c2.637 0 3.914 1.61 3.914 4.442v9.105c0 1.416.472 1.638 1.194 1.638v.583h-6.94v-.583c.8 0 1.249-.194 1.249-1.638v-8.772c0-1.3-.555-1.888-1.638-1.888a3.15 3.15 0 0 0 -2.471 1.555v9.105c0 1.444.389 1.638 1.3 1.638zm13.1.333a3.856 3.856 0 0 1 -4-4.136c0-2.693 1.61-3.859 3.886-4.553a17.449 17.449 0 0 0 3.082-1.027c.921-.472 1.368-1.249 1.368-2.772 0-1.5-.5-2.443-1.888-2.443-1.721 0-1.666 1.555-1.888 2.915a1.886 1.886 0 0 1 -2.056 1.828 1.868 1.868 0 0 1 -2.054-1.943c0-2.193 2.526-3.97 6.385-3.97 3.248 0 5.663 1.249 5.663 4.886v7.662c0 .694.222 1.166.722 1.166a1.237 1.237 0 0 0 .972-.611l.333.305a3.9 3.9 0 0 1 -3.581 2.637 2.537 2.537 0 0 1 -2.859-2.3 4.791 4.791 0 0 1 -4.081 2.36m.417-5.025c0 1.61.666 2.443 1.777 2.443a2.244 2.244 0 0 0 1.858-1.11v-5.556a2.231 2.231 0 0 1 -.777.75c-.444.333-1.027.528-1.61.888a2.725 2.725 0 0 0 -1.25 2.581m17.15 4.692h-6.94v-.583c.639 0 1.138-.222 1.138-1.638v-14.991c0-1.86-.028-2.249-1.277-2.082v-.611l5.775-2.25v9.383a5.648 5.648 0 0 1 4.664-3c2.637 0 3.942 1.61 3.942 4.442v9.109c0 1.416.472 1.638 1.194 1.638v.583h-6.94v-.583c.805 0 1.249-.194 1.249-1.638v-8.772c0-1.3-.555-1.888-1.638-1.888a3.15 3.15 0 0 0 -2.471 1.555v9.105c0 1.444.389 1.638 1.3 1.638zm16.384.222c-4.053 0-7.3-3.276-7.3-7.967 0-4.719 3.165-7.94 7.3-7.94 4.053 0 7.273 3.3 7.273 8 0 4.719-3.137 7.912-7.273 7.912m.639-1.166c1.277 0 2.138-1.194 2.138-3.8 0-4.275-.888-9.772-3.387-9.772-1.3 0-2.165 1.138-2.165 3.72 0 4.164.916 9.855 3.415 9.855m14.266.944h-6.83v-.591c.611 0 1.11-.222 1.11-1.638v-8.384c0-1.915-.028-2.3-1.194-2.137v-.583l5.691-2.443v2.887a5.354 5.354 0 0 1 4.358-2.887 3.387 3.387 0 0 1 3.609 3.165c.944-1.61 2.415-3.165 4.581-3.165 2.554 0 3.831 1.582 3.831 4.47v9.077c0 1.416.472 1.638 1.194 1.638v.583h-6.885v-.583c.777 0 1.194-.194 1.194-1.638v-8.744c0-1.36-.527-1.916-1.5-1.916a2.856 2.856 0 0 0 -2.193 1.471v9.189c0 1.416.389 1.638 1.221 1.638v.583h-6.91v-.583c.777 0 1.194-.194 1.194-1.638v-8.744c0-1.36-.5-1.916-1.5-1.916a2.975 2.975 0 0 0 -2.194 1.471v9.189c0 1.444.389 1.638 1.221 1.638zm20.99.333a3.856 3.856 0 0 1 -4-4.136c0-2.693 1.61-3.859 3.886-4.553a17.45 17.45 0 0 0 3.082-1.027c.916-.472 1.36-1.249 1.36-2.776 0-1.5-.5-2.443-1.888-2.443-1.721 0-1.666 1.555-1.888 2.915a1.886 1.886 0 0 1 -2.052 1.824 1.868 1.868 0 0 1 -2.054-1.943c0-2.193 2.526-3.97 6.385-3.97 3.248 0 5.663 1.249 5.663 4.886v7.662c0 .694.222 1.166.722 1.166a1.237 1.237 0 0 0 .971-.611l.333.305a3.9 3.9 0 0 1 -3.581 2.637 2.537 2.537 0 0 1 -2.859-2.3 4.791 4.791 0 0 1 -4.081 2.36m.416-5.025c0 1.61.666 2.443 1.777 2.443a2.245 2.245 0 0 0 1.86-1.11v-5.556a2.231 2.231 0 0 1 -.777.75c-.444.333-1.027.528-1.61.888a2.725 2.725 0 0 0 -1.249 2.582"
              fill="#264934" transform="translate(7.614 18.098)"></path>
    </g>
</svg>