<?xml version="1.0" encoding="UTF-8"?><svg id="a" xmlns="http://www.w3.org/2000/svg" viewBox="0 0 465.16 465.17"><path d="M232.58,0C104.34,0,0,104.34,0,232.58s104.34,232.58,232.58,232.58,232.58-104.34,232.58-232.58S360.83,0,232.58,0Zm0,440.46c-114.62,0-207.88-93.25-207.88-207.88S117.96,24.7,232.58,24.7s207.88,93.25,207.88,207.88-93.25,207.88-207.88,207.88Z" style="fill:#456b40;"/><g><path d="M109.91,245.48h-20.1v38.66h-20.98v-104.8h44.07c22.14,0,37.13,13.37,37.13,33.04,0,14.03-7.38,24.7-19.44,29.75l22.66,41.88h-23.1l-20.24-38.52Zm-20.1-18.56h23.1c10.82,0,16.66-7.02,16.66-14.69s-6.07-14.62-16.66-14.62h-23.1v29.31Z" style="fill:#456b40;"/><path d="M236.57,252.06h-54.96c2.12,11.62,10.67,16.37,25.73,16.37,12.28,0,21.27-3.36,25.21-4.68v17.1c-4.9,1.61-13.81,4.97-28.28,4.97-26.9,0-42.02-16.66-42.02-38.88s14.47-39.9,37.79-39.9c21.56,0,37.05,15.64,37.05,39.1,0,3.14-.22,4.46-.51,5.92Zm-54.59-13.89h37.49c-2.05-9.14-9.21-13.96-18.93-13.96s-16.23,4.46-18.56,13.96Z" style="fill:#456b40;"/><path d="M396.33,179.34l-31.94,104.8h-18.56l-25.21-67.68-25.07,67.68h-18.56l-31.72-104.8h21.78l20.54,70.53,24.78-68.19h16.96l24.12,68.85,21.05-71.19h21.85Z" style="fill:#3c2b27;"/></g></svg>