<svg width="359" height="244" viewBox="0 0 359 244" fill="none" xmlns="http://www.w3.org/2000/svg">
<mask id="mask0_175_747" style="mask-type:alpha" maskUnits="userSpaceOnUse" x="122" y="52" width="129" height="120">
<rect x="124.779" y="54.5" width="123.55" height="114.144" fill="#D9D9D9" stroke="#433129" stroke-width="5"/>
</mask>
<g mask="url(#mask0_175_747)">
<mask id="path-2-inside-1_175_747" fill="white">
<path fill-rule="evenodd" clip-rule="evenodd" d="M194.412 139.552C206.724 136.319 215.805 125.115 215.805 111.789C215.805 95.9376 202.955 83.0874 187.103 83.0874C171.252 83.0874 158.402 95.9376 158.402 111.789C158.402 125.115 167.483 136.319 179.794 139.552L147.362 164.777L187.103 348.026L226.844 164.777L194.412 139.552Z"/>
</mask>
<path d="M194.412 139.552L193.143 134.716L183.354 137.286L191.343 143.499L194.412 139.552ZM179.794 139.552L182.864 143.499L190.852 137.286L181.064 134.716L179.794 139.552ZM147.362 164.777L144.293 160.83L141.809 162.762L142.476 165.836L147.362 164.777ZM187.103 348.026L182.217 349.086H191.99L187.103 348.026ZM226.844 164.777L231.731 165.836L232.397 162.762L229.914 160.83L226.844 164.777ZM210.805 111.789C210.805 122.786 203.311 132.046 193.143 134.716L195.682 144.388C210.137 140.593 220.805 127.443 220.805 111.789H210.805ZM187.103 88.0874C200.193 88.0874 210.805 98.699 210.805 111.789H220.805C220.805 93.1762 205.716 78.0874 187.103 78.0874V88.0874ZM163.402 111.789C163.402 98.699 174.013 88.0874 187.103 88.0874V78.0874C168.49 78.0874 153.402 93.1762 153.402 111.789H163.402ZM181.064 134.716C170.896 132.046 163.402 122.786 163.402 111.789H153.402C153.402 127.443 164.07 140.593 178.525 144.388L181.064 134.716ZM176.725 135.605L144.293 160.83L150.432 168.723L182.864 143.499L176.725 135.605ZM142.476 165.836L182.217 349.086L191.99 346.966L152.249 163.717L142.476 165.836ZM191.99 349.086L231.731 165.836L221.958 163.717L182.217 346.966L191.99 349.086ZM229.914 160.83L197.482 135.605L191.343 143.499L223.774 168.723L229.914 160.83Z" fill="#433129" mask="url(#path-2-inside-1_175_747)"/>
</g>
<mask id="path-4-inside-2_175_747" fill="white">
<rect x="122.279" y="168.526" width="129.177" height="75.2489" rx="2"/>
</mask>
<rect x="122.279" y="168.526" width="129.177" height="75.2489" rx="2" stroke="#433129" stroke-width="6" mask="url(#path-4-inside-2_175_747)"/>
<path d="M176.13 221.798C172.238 221.798 168.347 221.748 164.457 221.825C163.053 221.853 162.402 221.63 162.413 219.963C162.444 215.416 162.356 215.416 166.917 215.416C168.629 215.416 170.345 215.346 172.053 215.435C173.657 215.517 173.858 215.122 173.192 213.622C170.607 207.801 170.789 202.07 174.453 196.733C177.558 192.214 182.301 190.695 187.451 190.565C194.761 190.379 202.08 190.545 209.394 190.486C210.798 190.475 211.273 190.892 211.301 192.335C211.392 197.095 211.447 197.095 206.761 197.084C205.126 197.081 203.488 197.139 201.86 197.04C200.159 196.935 200.132 197.452 200.761 198.88C204.22 206.713 202.126 215.056 195.715 219.266C193.181 220.93 190.352 221.744 187.334 221.785C183.6 221.834 179.864 221.796 176.128 221.798H176.13ZM179.079 206.11C179.055 211.482 182.319 215.161 187.055 215.102C191.774 215.043 194.847 211.559 194.882 206.227C194.917 200.932 191.813 197.443 187.046 197.421C182.262 197.399 179.103 200.846 179.079 206.108V206.11Z" fill="#433129"/>
<path fill-rule="evenodd" clip-rule="evenodd" d="M14.1092 213.205L122.279 213.205L122.279 216.341L14.1092 216.341L14.1092 213.205Z" fill="#433129"/>
<path fill-rule="evenodd" clip-rule="evenodd" d="M357.432 213.205H249.262V210.07H357.432V213.205Z" fill="#433129"/>
<path fill-rule="evenodd" clip-rule="evenodd" d="M56.4367 208.502H14.1092V213.205H56.4367V208.502ZM12.5415 206.934V214.773H58.0044V206.934H12.5415Z" fill="#433129"/>
<path fill-rule="evenodd" clip-rule="evenodd" d="M61.1397 200.664H18.8122V205.367H61.1397V200.664ZM17.2445 199.096V206.934H62.7074V199.096H17.2445Z" fill="#433129"/>
<path fill-rule="evenodd" clip-rule="evenodd" d="M56.4367 192.825H14.1092V197.528H56.4367V192.825ZM12.5415 191.257V199.096H58.0044V191.257H12.5415Z" fill="#433129"/>
<path fill-rule="evenodd" clip-rule="evenodd" d="M54.869 184.987H12.5415V189.69H54.869V184.987ZM10.9738 183.419V191.258H56.4367V183.419H10.9738Z" fill="#433129"/>
<path fill-rule="evenodd" clip-rule="evenodd" d="M54.869 177.148H12.5415V181.852H54.869V177.148ZM10.9738 175.581V183.419H56.4367V175.581H10.9738Z" fill="#433129"/>
<path fill-rule="evenodd" clip-rule="evenodd" d="M58.0043 169.31H15.6768V174.013H58.0043V169.31ZM14.1091 167.742V175.581H59.572V167.742H14.1091Z" fill="#433129"/>
<path fill-rule="evenodd" clip-rule="evenodd" d="M299.428 206.935H257.1V211.638H299.428V206.935ZM255.533 205.367V213.205H300.996V205.367H255.533Z" fill="#433129"/>
<path fill-rule="evenodd" clip-rule="evenodd" d="M304.131 199.096H261.804V203.799H304.131V199.096ZM260.236 197.528V205.367H305.699V197.528H260.236Z" fill="#433129"/>
<path fill-rule="evenodd" clip-rule="evenodd" d="M299.428 191.258H257.1V195.961H299.428V191.258ZM255.533 189.69V197.528H300.996V189.69H255.533Z" fill="#433129"/>
<path fill-rule="evenodd" clip-rule="evenodd" d="M297.86 183.419H255.533V188.122H297.86V183.419ZM253.965 181.852V189.69H299.428V181.852H253.965Z" fill="#433129"/>
<path fill-rule="evenodd" clip-rule="evenodd" d="M111.306 138.74H78.3843C75.354 138.74 72.8974 141.197 72.8974 144.227V200.664C72.8974 203.694 75.354 206.151 78.3843 206.151H111.306C114.336 206.151 116.793 203.694 116.793 200.664V144.227C116.793 141.197 114.336 138.74 111.306 138.74ZM78.3843 136.389C74.0553 136.389 70.5459 139.898 70.5459 144.227V200.664C70.5459 204.993 74.0553 208.502 78.3843 208.502H111.306C115.635 208.502 119.144 204.993 119.144 200.664V144.227C119.144 139.898 115.635 136.389 111.306 136.389H78.3843Z" fill="#433129"/>
<path fill-rule="evenodd" clip-rule="evenodd" d="M111.306 147.362L84.655 147.362L84.655 145.011L111.306 145.011L111.306 147.362Z" fill="#433129"/>
<path fill-rule="evenodd" clip-rule="evenodd" d="M111.306 155.201L84.655 155.201L84.655 152.849L111.306 152.849L111.306 155.201Z" fill="#433129"/>
<path fill-rule="evenodd" clip-rule="evenodd" d="M111.306 163.039L84.655 163.039L84.655 160.688L111.306 160.688L111.306 163.039Z" fill="#433129"/>
<path fill-rule="evenodd" clip-rule="evenodd" d="M111.306 170.878L84.655 170.878L84.655 168.526L111.306 168.526L111.306 170.878Z" fill="#433129"/>
<path fill-rule="evenodd" clip-rule="evenodd" d="M111.306 178.717L84.655 178.717L84.655 176.365L111.306 176.365L111.306 178.717Z" fill="#433129"/>
<path fill-rule="evenodd" clip-rule="evenodd" d="M111.306 186.555L84.655 186.555L84.655 184.203L111.306 184.203L111.306 186.555Z" fill="#433129"/>
<path fill-rule="evenodd" clip-rule="evenodd" d="M111.306 194.393L84.655 194.393L84.655 192.042L111.306 192.042L111.306 194.393Z" fill="#433129"/>
<path fill-rule="evenodd" clip-rule="evenodd" d="M111.306 202.232L84.655 202.232L84.655 199.88L111.306 199.88L111.306 202.232Z" fill="#433129"/>
<path d="M83.5326 143.416L78.8779 147.758L76.888 145.625L77.4349 145.115L78.9148 146.697L83.0225 142.869L83.5326 143.416Z" fill="#433129"/>
<path d="M83.5326 151.254L78.8779 155.596L76.888 153.463L77.4349 152.953L78.9148 154.535L83.0225 150.708L83.5326 151.254Z" fill="#433129"/>
<path d="M83.5326 159.093L78.8779 163.435L76.888 161.302L77.4349 160.791L78.9148 162.374L83.0225 158.546L83.5326 159.093Z" fill="#433129"/>
<path d="M83.5326 166.931L78.8779 171.273L76.888 169.14L77.4349 168.63L78.9148 170.212L83.0225 166.385L83.5326 166.931Z" fill="#433129"/>
<path d="M83.5326 174.77L78.8779 179.112L76.888 176.978L77.4349 176.468L78.9148 178.051L83.0225 174.223L83.5326 174.77Z" fill="#433129"/>
<path d="M83.5326 182.608L78.8779 186.95L76.888 184.817L77.4349 184.306L78.9148 185.889L83.0225 182.061L83.5326 182.608Z" fill="#433129"/>
<path fill-rule="evenodd" clip-rule="evenodd" d="M336.056 183.195H323.94L329.998 172.445L336.056 183.195ZM332.032 180.844L329.998 177.235L327.964 180.844H332.032ZM343.596 196.632H316.4L322.432 185.883H337.564L343.596 196.632ZM339.58 194.281L336.187 188.234H323.809L320.416 194.281H339.58ZM308.834 210.07H351.162L345.103 199.32H314.892L308.834 210.07ZM312.859 207.718H347.137L343.729 201.671H316.266L312.859 207.718Z" fill="#433129"/>
<path fill-rule="evenodd" clip-rule="evenodd" d="M280.616 72.1135C299.664 72.1135 315.105 56.6723 315.105 37.6245C315.105 18.5767 299.664 3.13537 280.616 3.13537C261.568 3.13537 246.127 18.5767 246.127 37.6245C246.127 56.6723 261.568 72.1135 280.616 72.1135ZM280.616 75.2489C301.395 75.2489 318.24 58.4039 318.24 37.6245C318.24 16.845 301.395 0 280.616 0C259.836 0 242.991 16.845 242.991 37.6245C242.991 58.4039 259.836 75.2489 280.616 75.2489Z" fill="#433129"/>
<path fill-rule="evenodd" clip-rule="evenodd" d="M277.48 14.1091H280.616V38.472L290.926 45.7498L289.118 48.3113L277.48 40.0966V14.1091Z" fill="#433129"/>
<path fill-rule="evenodd" clip-rule="evenodd" d="M86.2227 64.9565H7.83843C4.8081 64.9565 2.35153 67.4131 2.35153 70.4434V124.156C2.35153 127.186 4.8081 129.643 7.83843 129.643H86.2227C89.2531 129.643 91.7096 127.186 91.7096 124.156V70.4434C91.7096 67.4131 89.2531 64.9565 86.2227 64.9565ZM7.83843 62.605C3.50938 62.605 0 66.1144 0 70.4434V124.156C0 128.485 3.50938 131.994 7.83843 131.994H86.2227C90.5518 131.994 94.0611 128.485 94.0611 124.156V70.4434C94.0611 66.1144 90.5518 62.605 86.2227 62.605H7.83843Z" fill="#433129"/>
<path fill-rule="evenodd" clip-rule="evenodd" d="M93.2897 79.9712H1.54156V77.6196H93.2897V79.9712Z" fill="#433129"/>
<path fill-rule="evenodd" clip-rule="evenodd" d="M71.6196 58.7883H69.626V70.827H71.6196V58.7883ZM67.2745 56.4368V73.1785H73.9712V56.4368H67.2745Z" fill="#433129"/>
<path fill-rule="evenodd" clip-rule="evenodd" d="M26.4166 58.7883H24.4229V70.827H26.4166V58.7883ZM22.0714 56.4368V73.1785H28.7681V56.4368H22.0714Z" fill="#433129"/>
<path fill-rule="evenodd" clip-rule="evenodd" d="M26.9465 88.0857H16.2297V98.8025H26.9465V88.0857ZM13.8782 85.7341V101.154H29.2981V85.7341H13.8782Z" fill="#433129"/>
<path fill-rule="evenodd" clip-rule="evenodd" d="M26.9465 111.216H16.2297V121.933H26.9465V111.216ZM13.8782 108.865V124.284H29.2981V108.865H13.8782Z" fill="#433129"/>
<path fill-rule="evenodd" clip-rule="evenodd" d="M53.1602 88.0857H42.4434V98.8025H53.1602V88.0857ZM40.0919 85.7341V101.154H55.5118V85.7341H40.0919Z" fill="#433129"/>
<path fill-rule="evenodd" clip-rule="evenodd" d="M53.1602 111.216H42.4434V121.933H53.1602V111.216ZM40.0919 108.865V124.284H55.5118V108.865H40.0919Z" fill="#433129"/>
<path fill-rule="evenodd" clip-rule="evenodd" d="M79.3739 88.0857H68.6571V98.8025H79.3739V88.0857ZM66.3056 85.7341V101.154H81.7255V85.7341H66.3056Z" fill="#433129"/>
<path fill-rule="evenodd" clip-rule="evenodd" d="M79.3739 111.216H68.6571V121.933H79.3739V111.216ZM66.3056 108.865V124.284H81.7255V108.865H66.3056Z" fill="#433129"/>
<path fill-rule="evenodd" clip-rule="evenodd" d="M248.745 116.793L255.533 105.035L262.321 116.793L256.709 116.793L256.709 163.039L254.357 163.039L254.357 116.793L248.745 116.793Z" fill="#433129"/>
<path fill-rule="evenodd" clip-rule="evenodd" d="M306.483 156.251L318.24 163.039L306.483 169.828L306.483 164.215L254.357 164.215L254.357 161.863L306.483 161.863L306.483 156.251Z" fill="#433129"/>
<path fill-rule="evenodd" clip-rule="evenodd" d="M268.858 118.36H264.155V157.552H268.858V118.36ZM261.804 116.009V159.904H271.21V116.009H261.804Z" fill="#433129"/>
<path fill-rule="evenodd" clip-rule="evenodd" d="M282.967 143.443H278.264V157.552H282.967V143.443ZM275.913 141.092V159.904H285.319V141.092H275.913Z" fill="#433129"/>
<path fill-rule="evenodd" clip-rule="evenodd" d="M297.077 134.037H292.374V157.553H297.077V134.037ZM290.022 131.686V159.904H299.428V131.686H290.022Z" fill="#433129"/>
<path d="M148.46 109.738H125.885C125.76 109.738 125.641 109.786 125.553 109.871C125.464 109.956 125.415 110.071 125.415 110.192V125.621C125.415 125.982 125.564 126.329 125.828 126.584C126.093 126.839 126.452 126.983 126.826 126.983H147.519C147.893 126.983 148.252 126.839 148.517 126.584C148.781 126.329 148.93 125.982 148.93 125.621V110.192C148.93 110.071 148.881 109.956 148.792 109.871C148.704 109.786 148.585 109.738 148.46 109.738ZM147.251 110.646L137.172 119.559L127.094 110.646H147.251ZM147.519 126.075H126.826C126.701 126.075 126.581 126.027 126.493 125.942C126.405 125.857 126.355 125.742 126.355 125.621V111.223L136.855 120.516C136.942 120.592 137.055 120.635 137.172 120.635C137.29 120.635 137.403 120.592 137.49 120.516L147.99 111.223V125.621C147.99 125.742 147.94 125.857 147.852 125.942C147.764 126.027 147.644 126.075 147.519 126.075Z" fill="#433129"/>
<path fill-rule="evenodd" clip-rule="evenodd" d="M103.467 123.847L123.847 123.847L123.847 124.631L103.467 124.631L103.467 123.847Z" fill="#433129"/>
<path fill-rule="evenodd" clip-rule="evenodd" d="M108.17 122.28L123.847 122.28L123.847 123.063L108.17 123.063L108.17 122.28Z" fill="#433129"/>
<path fill-rule="evenodd" clip-rule="evenodd" d="M114.441 120.712L123.847 120.712L123.847 121.496L114.441 121.496L114.441 120.712Z" fill="#433129"/>
<path d="M229.352 76.8164H251.927C252.052 76.8164 252.172 76.8642 252.26 76.9493C252.348 77.0344 252.397 77.1499 252.397 77.2702V92.6995C252.397 93.0606 252.249 93.4069 251.984 93.6622C251.72 93.9175 251.361 94.0609 250.987 94.0609H230.293C229.919 94.0609 229.56 93.9175 229.295 93.6622C229.031 93.4069 228.882 93.0606 228.882 92.6995V77.2702C228.882 77.1499 228.932 77.0344 229.02 76.9493C229.108 76.8642 229.228 76.8164 229.352 76.8164ZM230.561 77.724L240.64 86.6379L250.718 77.724H230.561ZM230.293 93.1533H250.987C251.111 93.1533 251.231 93.1055 251.319 93.0204C251.407 92.9353 251.457 92.8199 251.457 92.6995V78.3015L240.957 87.5942C240.871 87.6708 240.757 87.7132 240.64 87.7132C240.522 87.7132 240.409 87.6708 240.322 87.5942L229.823 78.3015V92.6995C229.823 92.8199 229.872 92.9353 229.961 93.0204C230.049 93.1055 230.168 93.1533 230.293 93.1533Z" fill="#433129"/>
<path fill-rule="evenodd" clip-rule="evenodd" d="M274.345 90.9256L253.965 90.9256L253.965 91.7095L274.345 91.7095L274.345 90.9256Z" fill="#433129"/>
<path fill-rule="evenodd" clip-rule="evenodd" d="M269.642 89.358L253.965 89.358L253.965 90.1418L269.642 90.1418L269.642 89.358Z" fill="#433129"/>
<path fill-rule="evenodd" clip-rule="evenodd" d="M263.371 87.7904L253.965 87.7904L253.965 88.5742L263.371 88.5742L263.371 87.7904Z" fill="#433129"/>
<path fill-rule="evenodd" clip-rule="evenodd" d="M224.541 17.2445H172.445C169.848 17.2445 167.742 19.3501 167.742 21.9476V36.5901C167.742 39.1875 169.848 41.2932 172.445 41.2932H224.541C227.139 41.2932 229.244 39.1875 229.244 36.5901V21.9476C229.244 19.3501 227.139 17.2445 224.541 17.2445ZM232.38 21.9476C232.38 17.6185 228.87 14.1091 224.541 14.1091H172.445C168.116 14.1091 164.607 17.6185 164.607 21.9476V36.5901C164.607 40.9191 168.116 44.4285 172.445 44.4285H224.541C225.752 44.4285 226.898 44.1543 227.921 43.6645V44.7665C228.118 44.7665 228.456 44.8197 228.925 44.9349C229.379 45.0462 229.901 45.2017 230.446 45.3758C231.715 45.7809 233.724 45.9418 235.066 45.9611C235.409 45.966 235.721 45.9619 235.979 45.9488C236.217 45.9369 236.47 45.9151 236.657 45.8654C236.708 45.852 236.785 45.8287 236.868 45.7874C236.922 45.7602 237.126 45.6561 237.247 45.4125C237.319 45.2688 237.352 45.095 237.32 44.9142C237.29 44.7446 237.213 44.6203 237.15 44.5429C237.037 44.4036 236.904 44.3337 236.853 44.3081C236.732 44.2469 236.596 44.2092 236.493 44.1839C236.376 44.1553 236.236 44.1279 236.076 44.1012C235.328 43.9767 234.596 43.3464 233.952 42.4037C233.327 41.4873 232.89 40.427 232.685 39.7446L231.561 40.0816C232.085 39.0303 232.38 37.8446 232.38 36.5901V21.9476ZM231.301 40.5604C231.571 41.3404 232.028 42.3651 232.658 43.2877C232.896 43.6367 233.171 43.989 233.484 44.3123C232.536 44.2317 231.576 44.0908 230.923 43.8824C230.364 43.7039 229.803 43.5362 229.299 43.4124C229.078 43.3581 228.856 43.3091 228.642 43.2718C229.735 42.5997 230.65 41.6671 231.301 40.5604Z" fill="#433129"/>
<path fill-rule="evenodd" clip-rule="evenodd" d="M225.246 23.0264H169.957V21.4587H225.246V23.0264Z" fill="#433129"/>
<path fill-rule="evenodd" clip-rule="evenodd" d="M225.246 26.5934H169.957V25.0258H225.246V26.5934Z" fill="#433129"/>
<path fill-rule="evenodd" clip-rule="evenodd" d="M225.246 30.1603H169.957V28.5927H225.246V30.1603Z" fill="#433129"/>
<path fill-rule="evenodd" clip-rule="evenodd" d="M225.246 33.7275H169.957V32.1598H225.246V33.7275Z" fill="#433129"/>
<path fill-rule="evenodd" clip-rule="evenodd" d="M225.246 37.2945H202.952V35.7268H225.246V37.2945Z" fill="#433129"/>
<path fill-rule="evenodd" clip-rule="evenodd" d="M138.206 53.3014H190.302C192.899 53.3014 195.005 55.407 195.005 58.0044V72.647C195.005 75.2444 192.899 77.35 190.302 77.35H138.206C135.608 77.35 133.503 75.2444 133.503 72.647V58.0044C133.503 55.407 135.608 53.3014 138.206 53.3014ZM130.367 58.0044C130.367 53.6754 133.877 50.166 138.206 50.166H190.302C194.631 50.166 198.14 53.6754 198.14 58.0044V72.647C198.14 76.976 194.631 80.4854 190.302 80.4854H138.206C136.995 80.4854 135.849 80.2112 134.826 79.7214V80.8234C134.629 80.8234 134.291 80.8766 133.822 80.9918C133.369 81.1031 132.846 81.2586 132.301 81.4326C131.032 81.8378 129.023 81.9987 127.681 82.0179C127.338 82.0229 127.026 82.0188 126.768 82.0057C126.53 81.9937 126.277 81.972 126.09 81.9223C126.039 81.9089 125.962 81.8856 125.879 81.8443C125.825 81.8171 125.621 81.713 125.5 81.4694C125.428 81.3256 125.395 81.1519 125.427 80.9711C125.457 80.8015 125.534 80.6772 125.597 80.5997C125.71 80.4605 125.843 80.3906 125.894 80.365C126.015 80.3038 126.151 80.2661 126.254 80.2408C126.371 80.2122 126.511 80.1848 126.671 80.1581C127.419 80.0336 128.151 79.4033 128.795 78.4605C129.42 77.5442 129.857 76.4839 130.062 75.8014L131.186 76.1385C130.662 75.0872 130.367 73.9015 130.367 72.647V58.0044ZM131.446 76.6173C131.176 77.3973 130.719 78.422 130.089 79.3446C129.851 79.6936 129.576 80.0459 129.263 80.3692C130.211 80.2886 131.171 80.1476 131.824 79.9393C132.383 79.7608 132.944 79.593 133.448 79.4693C133.669 79.415 133.892 79.366 134.105 79.3287C133.012 78.6566 132.097 77.724 131.446 76.6173Z" fill="#433129"/>
<path fill-rule="evenodd" clip-rule="evenodd" d="M137.501 59.0836H192.79V57.5159H137.501V59.0836Z" fill="#433129"/>
<path fill-rule="evenodd" clip-rule="evenodd" d="M137.501 62.6504H192.79V61.0828H137.501V62.6504Z" fill="#433129"/>
<path fill-rule="evenodd" clip-rule="evenodd" d="M137.501 66.2176H192.79V64.6499H137.501V66.2176Z" fill="#433129"/>
<path fill-rule="evenodd" clip-rule="evenodd" d="M137.501 69.7845H192.79V68.2168H137.501V69.7845Z" fill="#433129"/>
<path fill-rule="evenodd" clip-rule="evenodd" d="M137.501 73.3514H159.795V71.7837H137.501V73.3514Z" fill="#433129"/>
<path d="M45.4629 145.795L43.8952 142.659H31.3537V169.31H34.4891V158.336H42.3275L43.8952 161.472H54.869V145.795H45.4629ZM51.7336 158.336H45.4629L43.8952 155.201H34.4891V145.795H42.3275L43.8952 148.93H51.7336V158.336Z" fill="#433129"/>
<path d="M313.81 129.123C317.965 135.008 324.79 138.774 332.524 138.774C335.941 138.774 339.171 138.037 342.089 136.692L337.221 128.265C335.757 128.834 334.171 129.126 332.525 129.126M313.81 129.123L332.524 128.376M313.81 129.123C313.666 128.919 313.524 128.712 313.386 128.502L312.736 128.878C312.873 129.088 313.014 129.295 313.158 129.5L313.81 129.123ZM332.525 129.126C332.524 129.126 332.524 129.126 332.524 129.126V128.376M332.525 129.126C332.525 129.126 332.525 129.126 332.526 129.126L332.524 128.376M332.525 129.126C330.442 129.132 328.388 128.645 326.529 127.706C324.871 126.868 323.411 125.69 322.242 124.253M332.524 128.376C330.559 128.382 328.621 127.923 326.867 127.036C325.114 126.15 323.595 124.861 322.435 123.276M322.242 124.253L322.81 123.925L322.435 123.276M322.242 124.253C322.1 124.079 321.963 123.901 321.829 123.719L322.435 123.276M322.242 124.253L322.435 123.276M311.667 125.399C310.288 122.404 309.575 119.141 309.584 115.837V115.835C309.584 103.88 318.72 94.0656 330.38 92.9557V102.723C324.06 103.75 319.232 109.212 319.232 115.835C319.232 117.482 319.524 119.068 320.094 120.532L311.667 125.399ZM345.637 117.978H355.401C355.081 121.262 354.061 124.442 352.405 127.302C350.749 130.163 348.499 132.633 345.811 134.546L340.942 126.115C343.384 124.12 345.109 121.248 345.637 117.978ZM344.71 103.648C342.738 101.675 340.197 100.379 337.454 99.935V90.1686C348.422 91.2109 357.147 99.936 358.19 110.904H348.423C347.979 108.161 346.683 105.621 344.71 103.648Z" stroke="#433129" stroke-width="1.5"/>
</svg>
