<svg width="37" height="37" viewBox="0 0 37 37" fill="none" xmlns="http://www.w3.org/2000/svg">
<path d="M33.5023 14.3573H3.4977C2.07616 14.3573 1.46693 12.8089 2.58386 12.0727L17.5862 2.24886C17.8631 2.08592 18.1787 2 18.5 2C18.8214 2 19.1369 2.08592 19.4139 2.24886L34.4162 12.0727C35.5331 12.8089 34.9239 14.3573 33.5023 14.3573Z" stroke="#768471" stroke-width="3" stroke-linecap="round" stroke-linejoin="round"/>
<path d="M33.7308 28.3188H3.26923C2.56825 28.3188 2 28.8871 2 29.5881V33.3958C2 34.0967 2.56825 34.665 3.26923 34.665H33.7308C34.4317 34.665 35 34.0967 35 33.3958V29.5881C35 28.8871 34.4317 28.3188 33.7308 28.3188Z" stroke="#768471" stroke-width="3" stroke-linecap="round" stroke-linejoin="round"/>
<path d="M5.80768 14.3573V28.3188M12.1538 14.3573V28.3188M18.5 14.3573V28.3188M24.8461 14.3573V28.3188M31.1923 14.3573V28.3188" stroke="#768471" stroke-width="3" stroke-linecap="round" stroke-linejoin="round"/>
</svg>
