<svg width="43" height="43" viewBox="0 0 43 43" fill="none" xmlns="http://www.w3.org/2000/svg">
<path d="M31.4231 0H11.5769C8.50754 0.00328335 5.56481 1.22405 3.39443 3.39443C1.22405 5.56481 0.00328335 8.50754 0 11.5769V31.4231C0.00328335 34.4925 1.22405 37.4352 3.39443 39.6056C5.56481 41.776 8.50754 42.9967 11.5769 43H31.4231C34.4925 42.9967 37.4352 41.776 39.6056 39.6056C41.776 37.4352 42.9967 34.4925 43 31.4231V11.5769C42.9967 8.50754 41.776 5.56481 39.6056 3.39443C37.4352 1.22405 34.4925 0.00328335 31.4231 0ZM21.5 31.4231C19.5374 31.4231 17.6189 30.8411 15.987 29.7507C14.3552 28.6604 13.0833 27.1106 12.3323 25.2974C11.5812 23.4842 11.3847 21.489 11.7676 19.5641C12.1505 17.6392 13.0956 15.8711 14.4833 14.4833C15.8711 13.0956 17.6392 12.1505 19.5641 11.7676C21.489 11.3847 23.4842 11.5812 25.2974 12.3323C27.1106 13.0833 28.6604 14.3552 29.7507 15.987C30.8411 17.6189 31.4231 19.5374 31.4231 21.5C31.4203 24.1309 30.374 26.6533 28.5137 28.5137C26.6533 30.374 24.1309 31.4203 21.5 31.4231ZM33.9038 11.5769C33.4132 11.5769 32.9336 11.4314 32.5256 11.1588C32.1176 10.8862 31.7997 10.4988 31.6119 10.0455C31.4242 9.5922 31.375 9.0934 31.4707 8.61218C31.5665 8.13096 31.8027 7.68893 32.1497 7.34198C32.4966 6.99504 32.9387 6.75877 33.4199 6.66305C33.9011 6.56733 34.3999 6.61646 34.8532 6.80422C35.3065 6.99199 35.6939 7.30995 35.9665 7.71791C36.2391 8.12587 36.3846 8.6055 36.3846 9.09615C36.3846 9.7541 36.1232 10.3851 35.658 10.8503C35.1928 11.3156 34.5618 11.5769 33.9038 11.5769ZM28.1154 21.5C28.1154 22.8084 27.7274 24.0874 27.0005 25.1753C26.2736 26.2632 25.2404 27.1111 24.0316 27.6118C22.8228 28.1125 21.4927 28.2435 20.2094 27.9883C18.9261 27.733 17.7474 27.103 16.8222 26.1778C15.897 25.2526 15.267 24.0739 15.0117 22.7906C14.7565 21.5073 14.8875 20.1772 15.3882 18.9684C15.8889 17.7596 16.7368 16.7264 17.8247 15.9995C18.9126 15.2726 20.1916 14.8846 21.5 14.8846C23.2545 14.8846 24.9372 15.5816 26.1778 16.8222C27.4184 18.0628 28.1154 19.7455 28.1154 21.5Z" fill="white"/>
</svg>
