<?xml version="1.0" encoding="UTF-8"?><svg id="a" xmlns="http://www.w3.org/2000/svg" viewBox="0 0 733.54 93.67"><path d="M35.03,59.27H17.89v32.97H0V2.87H37.58c18.88,0,31.66,11.4,31.66,28.17,0,11.97-6.29,21.06-16.58,25.37l19.32,35.71h-19.69l-17.26-32.84Zm-17.14-15.83h19.69c9.22,0,14.21-5.98,14.21-12.53s-5.17-12.47-14.21-12.47H17.89v24.99Z" style="fill:#456b40;"/><path d="M143.02,64.88h-46.87c1.81,9.91,9.1,13.96,21.94,13.96,10.47,0,18.14-2.87,21.5-3.99v14.58c-4.18,1.37-11.78,4.24-24.12,4.24-22.93,0-35.83-14.21-35.83-33.15s12.34-34.03,32.22-34.03c18.39,0,31.6,13.34,31.6,33.34,0,2.68-.19,3.8-.44,5.05Zm-46.56-11.84h31.97c-1.75-7.79-7.85-11.9-16.14-11.9s-13.84,3.8-15.83,11.9Z" style="fill:#456b40;"/><g><polygon points="260.62 2.87 242.67 63.57 222.1 4.86 207.64 4.86 186.52 63.01 169 2.87 150.43 2.87 177.48 92.24 193.31 92.24 214.69 34.53 236.19 92.24 252.02 92.24 279.25 2.87 260.62 2.87" style="fill:#3c2b27;"/><path d="M309.72,26.61c-19.94,0-33.47,13.9-33.47,33.53s13.71,33.53,33.47,33.53,33.59-13.9,33.59-33.53-13.71-33.53-33.59-33.53Zm.13,52.47c-9.22,0-17.01-6.54-17.01-19.01s7.66-18.88,17.01-18.88,16.95,6.48,16.95,18.88-7.73,19.01-16.95,19.01Z" style="fill:#3c2b27;"/><path d="M371.91,36.02v-7.6h-17.01l.06,63.75h16.95v-30.35c.06-11.4,4.99-17.39,14.52-17.39,2.8,0,5.61,.37,8.66,1.06V26.92c-.69-.06-1.87-.13-3.18-.13-9.16,.44-15.83,3.86-20.01,9.22Z" style="fill:#3c2b27;"/><polygon points="467.63 28.42 447.56 28.42 423.07 60.08 423.07 2.87 406.06 2.87 406.06 92.24 423.07 92.24 423.07 61.14 423.2 61.26 450.37 92.24 470.81 92.24 441.96 59.08 467.63 28.42" style="fill:#3c2b27;"/><path d="M715.84,28.42l-11.47,39.95-16.14-39.95h-12.77l-15.95,39.7-12.05-41.51h-53.57s-.04,0-.06,0c-19.94,0-33.47,13.9-33.47,33.53,0,7.58,2.04,14.28,5.66,19.67h-17.87V0h-41.25V.25l-.07-.25c-22.62,0-22.62,17.32-22.62,25.86v2.56h-10.16v13.4h10.16v50.42h17.14V41.82h19.19v-13.4h-19.19v-4.05c0-5.3,.02-10.3,8.72-10.51h20.94V93.67h62.88c19.66-.03,33.53-13.92,33.53-33.53,0-7.56-2.05-14.27-5.71-19.67h12.28l16.73,51.77h15.14l16.02-39.51,16.58,39.51h15.02l20.07-63.82h-17.7Zm-121.9,50.67c-9.22,0-17.01-6.54-17.01-19.01s7.66-18.88,17.01-18.88,16.95,6.48,16.95,18.88-7.73,19.01-16.95,19.01Z" style="fill:#3c2b27;"/></g></svg>