<svg width="359" height="220" viewBox="0 0 359 220" fill="none" xmlns="http://www.w3.org/2000/svg">
<mask id="mask0_173_1147" style="mask-type:alpha" maskUnits="userSpaceOnUse" x="29" y="47" width="115" height="107">
<rect x="31.8347" y="49.9941" width="109.545" height="101.163" fill="#D9D9D9" stroke="#433129" stroke-width="5"/>
</mask>
<g mask="url(#mask0_173_1147)">
<mask id="path-2-inside-1_173_1147" fill="white">
<path fill-rule="evenodd" clip-rule="evenodd" d="M93.6086 125.744C104.579 122.864 112.671 112.88 112.671 101.006C112.671 86.8818 101.22 75.4316 87.0959 75.4316C72.9714 75.4316 61.5212 86.8818 61.5212 101.006C61.5212 112.88 69.6131 122.864 80.5832 125.744L51.6848 148.221L87.096 311.505L122.507 148.221L93.6086 125.744Z"/>
</mask>
<path d="M93.6086 125.744L92.3389 120.908L82.5508 123.478L90.5389 129.691L93.6086 125.744ZM80.5832 125.744L83.6529 129.691L91.641 123.478L81.853 120.908L80.5832 125.744ZM51.6848 148.221L48.6151 144.274L46.1316 146.206L46.7984 149.281L51.6848 148.221ZM87.096 311.505L82.2096 312.565H91.9824L87.096 311.505ZM122.507 148.221L127.393 149.281L128.06 146.206L125.577 144.274L122.507 148.221ZM107.671 101.006C107.671 110.552 101.166 118.591 92.3389 120.908L94.8783 130.58C107.992 127.137 117.671 115.209 117.671 101.006H107.671ZM87.0959 80.4316C98.459 80.4316 107.671 89.6432 107.671 101.006H117.671C117.671 84.1204 103.982 70.4316 87.0959 70.4316V80.4316ZM66.5212 101.006C66.5212 89.6432 75.7328 80.4316 87.0959 80.4316V70.4316C70.21 70.4316 56.5212 84.1204 56.5212 101.006H66.5212ZM81.853 120.908C73.0262 118.591 66.5212 110.552 66.5212 101.006H56.5212C56.5212 115.209 66.2001 127.137 79.3135 130.58L81.853 120.908ZM77.5135 121.798L48.6151 144.274L54.7545 152.168L83.6529 129.691L77.5135 121.798ZM46.7984 149.281L82.2096 312.565L91.9824 310.446L56.5712 147.161L46.7984 149.281ZM91.9824 312.565L127.393 149.281L117.621 147.161L82.2096 310.446L91.9824 312.565ZM125.577 144.274L96.6783 121.798L90.5389 129.691L119.437 152.168L125.577 144.274Z" fill="#433129" mask="url(#path-2-inside-1_173_1147)"/>
</g>
<mask id="path-4-inside-2_173_1147" fill="white">
<rect x="29.3347" y="152.261" width="115.104" height="67.0506" rx="2"/>
</mask>
<rect x="29.3347" y="152.261" width="115.104" height="67.0506" rx="2" stroke="#433129" stroke-width="6" mask="url(#path-4-inside-2_173_1147)"/>
<path d="M77.3181 199.728C73.8504 199.728 70.3827 199.684 66.9166 199.753C65.6658 199.777 65.0854 199.579 65.0952 198.093C65.123 194.042 65.0445 194.042 69.109 194.042C70.6344 194.042 72.1631 193.98 73.6853 194.058C75.1142 194.132 75.2941 193.78 74.7006 192.443C72.3969 187.256 72.5588 182.15 75.8238 177.394C78.5901 173.368 82.8165 172.014 87.4058 171.898C93.9195 171.733 100.441 171.88 106.958 171.828C108.209 171.818 108.632 172.19 108.657 173.476C108.739 177.717 108.788 177.717 104.612 177.707C103.155 177.704 101.695 177.756 100.245 177.668C98.7295 177.575 98.705 178.035 99.2658 179.308C102.348 186.287 100.482 193.721 94.7696 197.472C92.5118 198.955 89.9907 199.681 87.3012 199.717C83.974 199.761 80.6453 199.727 77.3165 199.728H77.3181ZM79.9455 185.749C79.9243 190.536 82.8328 193.814 87.0527 193.762C91.2578 193.709 93.9963 190.605 94.0274 185.854C94.0584 181.136 91.2921 178.027 87.0445 178.007C82.7822 177.987 79.9668 181.059 79.9455 185.748V185.749Z" fill="#433129"/>
<path d="M208.715 81.5004L201.384 68.8074C204.958 66.1812 207.439 62.0961 207.949 57.4274H222.648C222.347 62.2445 220.932 66.926 218.514 71.1033C216.096 75.2806 212.742 78.8397 208.715 81.5004ZM197.116 35.6523V20.9531C212.8 21.9015 225.347 34.4486 226.296 50.1325H211.597C211.189 46.4321 209.533 42.981 206.9 40.3485C204.268 37.7161 200.817 36.0596 197.116 35.6523ZM175.232 55.6037C175.232 57.938 175.706 60.163 176.618 62.1691L163.925 69.5004C161.754 65.1904 160.629 60.4295 160.642 55.6037C160.642 39.0808 173.554 25.5854 189.822 24.6006V39.2997C181.615 40.2115 175.232 47.1417 175.232 55.6037ZM191.645 86.6068C180.812 86.6068 171.293 81.1357 165.749 72.6736L178.442 65.3423C179.96 67.4172 181.948 69.1036 184.243 70.2636C186.537 71.4237 189.074 72.0245 191.645 72.0171C193.98 72.0171 196.204 71.5429 198.211 70.6311L205.542 83.3241C201.347 85.4396 196.642 86.6068 191.645 86.6068Z" fill="#433129"/>
<path d="M41.1618 35.4H55V37.72H41.1618V35.4ZM41.1618 40.04H55V42.36H41.1618V40.04ZM41.1618 44.68H50.3873V47H41.1618V44.68Z" fill="#433129"/>
<path d="M48.0809 18C47.061 18.0031 46.071 18.3463 45.2659 18.9761C44.4608 19.6059 43.8861 20.4865 43.6319 21.48H34.2427V18H25.0173V27.28H34.2427V23.8H43.6319C43.7393 24.2152 43.9043 24.6131 44.122 24.982L31.9583 37.2177C31.2552 36.7916 30.4508 36.5643 29.63 36.56C28.7665 36.5567 27.9195 36.7974 27.1853 37.2544C26.451 37.7115 25.8591 38.3667 25.4768 39.1455C25.0945 39.9243 24.9371 40.7954 25.0227 41.6597C25.1083 42.524 25.4333 43.3468 25.9608 44.0345C26.4882 44.7222 27.197 45.2471 28.0064 45.5495C28.8159 45.852 29.6934 45.9199 30.5393 45.7454C31.3852 45.5709 32.1654 45.1611 32.7911 44.5626C33.4169 43.9641 33.8631 43.201 34.079 42.36H38.8555V40.04H34.079C33.9716 39.6248 33.8066 39.2269 33.5889 38.858L45.7526 26.6223C46.4557 27.0484 47.2601 27.2757 48.0809 27.28C49.3043 27.28 50.4775 26.7911 51.3426 25.921C52.2077 25.0508 52.6936 23.8706 52.6936 22.64C52.6936 21.4094 52.2077 20.2292 51.3426 19.359C50.4775 18.4889 49.3043 18 48.0809 18ZM31.9364 24.96H27.3236V20.32H31.9364V24.96ZM29.63 43.52C29.1738 43.52 28.7279 43.3839 28.3487 43.129C27.9694 42.8741 27.6738 42.5117 27.4992 42.0878C27.3246 41.6639 27.279 41.1974 27.368 40.7474C27.4569 40.2974 27.6766 39.884 27.9992 39.5595C28.3217 39.2351 28.7327 39.0141 29.1801 38.9246C29.6274 38.8351 30.0912 38.881 30.5126 39.0566C30.934 39.2322 31.2942 39.5296 31.5477 39.9111C31.8011 40.2926 31.9364 40.7411 31.9364 41.2C31.9358 41.8151 31.6926 42.4049 31.2602 42.8398C30.8278 43.2748 30.2415 43.5194 29.63 43.52ZM48.0809 24.96C47.6248 24.96 47.1788 24.8239 46.7996 24.569C46.4203 24.3141 46.1247 23.9517 45.9501 23.5278C45.7755 23.1039 45.7299 22.6374 45.8189 22.1874C45.9079 21.7374 46.1275 21.324 46.4501 20.9995C46.7726 20.6751 47.1836 20.4541 47.631 20.3646C48.0784 20.2751 48.5421 20.321 48.9635 20.4966C49.3849 20.6722 49.7452 20.9696 49.9986 21.3511C50.252 21.7326 50.3873 22.1811 50.3873 22.64C50.3867 23.2551 50.1435 23.8449 49.7111 24.2798C49.2787 24.7148 48.6924 24.9594 48.0809 24.96Z" fill="#433129"/>
<path fill-rule="evenodd" clip-rule="evenodd" d="M251.44 80.5536C249.383 80.5536 247.715 78.8858 247.715 76.8285C247.715 74.7713 249.383 73.1035 251.44 73.1035C253.258 73.1035 254.773 74.4067 255.1 76.1301L331.063 76.1301L331.063 77.527L255.1 77.527C254.773 79.2504 253.258 80.5536 251.44 80.5536Z" fill="#433129"/>
<path fill-rule="evenodd" clip-rule="evenodd" d="M251.44 69.3783C249.383 69.3783 247.715 67.7105 247.715 65.6533C247.715 63.596 249.383 61.9282 251.44 61.9282C253.258 61.9282 254.773 63.2314 255.1 64.9548L331.063 64.9548L331.063 66.3517L255.1 66.3517C254.773 68.0751 253.258 69.3783 251.44 69.3783Z" fill="#433129"/>
<path fill-rule="evenodd" clip-rule="evenodd" d="M251.44 58.2032C249.383 58.2032 247.715 56.5355 247.715 54.4782C247.715 52.4209 249.383 50.7532 251.44 50.7532C253.258 50.7532 254.773 52.0563 255.1 53.7798L331.063 53.7798L331.063 55.1767L255.1 55.1767C254.773 56.9001 253.258 58.2032 251.44 58.2032Z" fill="#433129"/>
<path fill-rule="evenodd" clip-rule="evenodd" d="M251.44 47.0279C249.383 47.0279 247.715 45.3602 247.715 43.3029C247.715 41.2456 249.383 39.5779 251.44 39.5779C253.258 39.5779 254.773 40.881 255.1 42.6045L331.063 42.6045L331.063 44.0014L255.1 44.0014C254.773 45.7248 253.258 47.0279 251.44 47.0279Z" fill="#433129"/>
<path fill-rule="evenodd" clip-rule="evenodd" d="M251.44 35.8531C249.383 35.8531 247.715 34.1854 247.715 32.1281C247.715 30.0708 249.383 28.4031 251.44 28.4031C253.258 28.4031 254.773 29.7062 255.1 31.4297L331.062 31.4297L331.062 32.8266L255.1 32.8266C254.773 34.55 253.258 35.8531 251.44 35.8531Z" fill="#433129"/>
<path fill-rule="evenodd" clip-rule="evenodd" d="M69.8446 69.3785C67.7873 69.3785 66.1196 67.7108 66.1196 65.6535C66.1196 63.5962 67.7873 61.9285 69.8446 61.9285C71.6632 61.9285 73.1773 63.2316 73.5043 64.9551L149.467 64.9551L149.467 66.352L73.5043 66.3519C73.1773 68.0754 71.6632 69.3785 69.8446 69.3785Z" fill="#433129"/>
<path fill-rule="evenodd" clip-rule="evenodd" d="M69.8446 58.2035C67.7873 58.2035 66.1196 56.5357 66.1196 54.4785C66.1196 52.4212 67.7873 50.7534 69.8446 50.7534C71.6632 50.7534 73.1773 52.0566 73.5043 53.78L149.467 53.78L149.467 55.1769L73.5043 55.1769C73.1773 56.9003 71.6632 58.2035 69.8446 58.2035Z" fill="#433129"/>
<path fill-rule="evenodd" clip-rule="evenodd" d="M69.8446 47.0282C67.7873 47.0282 66.1196 45.3604 66.1196 43.3032C66.1196 41.2459 67.7873 39.5781 69.8446 39.5781C71.6632 39.5781 73.1773 40.8813 73.5043 42.6047L149.467 42.6047L149.467 44.0016L73.5043 44.0016C73.1773 45.725 71.6632 47.0282 69.8446 47.0282Z" fill="#433129"/>
<path fill-rule="evenodd" clip-rule="evenodd" d="M69.8446 35.8534C67.7873 35.8534 66.1196 34.1856 66.1196 32.1284C66.1196 30.0711 67.7873 28.4033 69.8446 28.4033C71.6632 28.4033 73.1773 29.7065 73.5043 31.4299L149.467 31.4299L149.467 32.8268L73.5043 32.8268C73.1773 34.5502 71.6632 35.8534 69.8446 35.8534Z" fill="#433129"/>
<path fill-rule="evenodd" clip-rule="evenodd" d="M69.8446 24.6781C67.7873 24.6781 66.1196 23.0103 66.1196 20.9531C66.1196 18.8958 67.7873 17.228 69.8446 17.228C71.6632 17.228 73.1773 18.5312 73.5043 20.2546L149.467 20.2546L149.467 21.6515L73.5043 21.6515C73.1773 23.3749 71.6632 24.6781 69.8446 24.6781Z" fill="#433129"/>
<path d="M160.642 153.29H167.553V184.389H160.642V153.29ZM171.008 160.201H177.919V184.389H171.008V160.201ZM209.018 139.468H215.929V184.389H209.018V139.468ZM219.385 146.379H226.296V184.389H219.385V146.379ZM184.83 118.735H191.741V184.389H184.83V118.735ZM195.197 125.646H202.108V184.389H195.197V125.646Z" fill="#433129"/>
<g clip-path="url(#clip0_173_1147)">
<path d="M44.1766 76.8289H55.0897V87.742H50.7245V96.4726H31.0807V100.838H35.446V111.751H24.5328V100.838H28.8981V87.742H24.5328V76.8289H35.446V87.742H31.0807V94.2899H48.5418V87.742H44.1766V76.8289ZM26.7155 85.5594H33.2634V79.0115H26.7155V85.5594ZM33.2634 109.568V103.02H26.7155V109.568H33.2634ZM52.9071 85.5594V79.0115H46.3592V85.5594H52.9071Z" fill="#433129"/>
</g>
<path fill-rule="evenodd" clip-rule="evenodd" d="M6.98444 4.19066H352.016C353.559 4.19066 354.809 5.44148 354.809 6.98444V191.374C354.809 192.917 353.559 194.167 352.016 194.167H141.086V198.358H352.016C355.873 198.358 359 195.231 359 191.374V6.98444C359 3.12704 355.873 0 352.016 0H6.98444C3.12704 0 0 3.12704 0 6.98444V191.374C0 195.231 3.12704 198.358 6.98444 198.358H30.7315V194.167H6.98444C5.44148 194.167 4.19066 192.917 4.19066 191.374V6.98444C4.19066 5.44148 5.44148 4.19066 6.98444 4.19066Z" fill="#433129"/>
<path d="M243 184H331V112H243V184ZM263 180V168H295V180H263ZM295 148H263V136H295V148ZM295 152V164H263V152H295ZM327 180H299V168H327V180ZM327 164H299V152H327V164ZM327 148H299V136H327V148ZM247 116H327V132H247V116ZM247 136H259V148H247V136ZM247 152H259V164H247V152ZM247 168H259V180H247V168Z" fill="#433129"/>
<defs>
<clipPath id="clip0_173_1147">
<rect width="34.9222" height="34.9222" fill="white" transform="translate(22.3502 76.8289)"/>
</clipPath>
</defs>
</svg>
