<svg width="390" height="241" viewBox="0 0 390 241" fill="none" xmlns="http://www.w3.org/2000/svg">
<mask id="mask0_173_1130" style="mask-type:alpha" maskUnits="userSpaceOnUse" x="107" y="64" width="119" height="110">
<rect x="110.102" y="66.9424" width="112.428" height="103.836" fill="#D9D9D9" stroke="#433129" stroke-width="5"/>
</mask>
<g mask="url(#mask0_173_1130)">
<mask id="path-2-inside-1_173_1130" fill="white">
<path fill-rule="evenodd" clip-rule="evenodd" d="M173.494 144.663C184.74 141.71 193.036 131.475 193.036 119.302C193.036 104.822 181.297 93.0835 166.817 93.0835C152.337 93.0835 140.599 104.822 140.599 119.302C140.599 131.475 148.895 141.71 160.141 144.663L130.515 167.705L166.818 335.1L203.12 167.705L173.494 144.663Z"/>
</mask>
<path d="M173.494 144.663L172.224 139.827L162.436 142.397L170.424 148.61L173.494 144.663ZM160.141 144.663L163.211 148.61L171.199 142.397L161.411 139.827L160.141 144.663ZM130.515 167.705L127.445 163.758L124.962 165.69L125.628 168.765L130.515 167.705ZM166.818 335.1L161.931 336.16H171.704L166.818 335.1ZM203.12 167.705L208.006 168.765L208.673 165.69L206.19 163.758L203.12 167.705ZM188.036 119.302C188.036 129.146 181.327 137.437 172.224 139.827L174.764 149.499C188.153 145.983 198.036 133.803 198.036 119.302H188.036ZM166.817 98.0835C178.536 98.0835 188.036 107.583 188.036 119.302H198.036C198.036 102.06 184.059 88.0835 166.817 88.0835V98.0835ZM145.599 119.302C145.599 107.583 155.099 98.0835 166.817 98.0835V88.0835C149.576 88.0835 135.599 102.06 135.599 119.302H145.599ZM161.411 139.827C152.308 137.437 145.599 129.146 145.599 119.302H135.599C135.599 133.803 145.482 145.983 158.871 149.499L161.411 139.827ZM157.071 140.716L127.445 163.758L133.585 171.652L163.211 148.61L157.071 140.716ZM125.628 168.765L161.931 336.16L171.704 334.04L135.401 166.646L125.628 168.765ZM171.704 336.16L208.006 168.765L198.233 166.646L161.931 334.04L171.704 336.16ZM206.19 163.758L176.564 140.716L170.424 148.61L200.05 171.652L206.19 163.758Z" fill="#433129" mask="url(#path-2-inside-1_173_1130)"/>
</g>
<mask id="path-4-inside-2_173_1130" fill="white">
<rect x="107.602" y="171.846" width="118.001" height="68.7385" rx="2"/>
</mask>
<rect x="107.602" y="171.846" width="118.001" height="68.7385" rx="2" stroke="#433129" stroke-width="6" mask="url(#path-4-inside-2_173_1130)"/>
<path d="M156.793 220.509C153.238 220.509 149.683 220.463 146.13 220.534C144.848 220.559 144.253 220.356 144.263 218.833C144.291 214.679 144.211 214.679 148.378 214.679C149.941 214.679 151.509 214.615 153.069 214.696C154.534 214.772 154.718 214.411 154.11 213.04C151.748 207.723 151.914 202.488 155.261 197.613C158.097 193.485 162.43 192.097 167.135 191.978C173.813 191.808 180.499 191.96 187.18 191.906C188.462 191.896 188.896 192.277 188.921 193.595C189.005 197.943 189.055 197.943 184.774 197.933C183.281 197.93 181.784 197.984 180.298 197.893C178.744 197.797 178.719 198.269 179.294 199.574C182.453 206.729 180.541 214.35 174.684 218.196C172.37 219.716 169.785 220.46 167.028 220.497C163.617 220.542 160.204 220.507 156.792 220.509H156.793ZM159.487 206.178C159.465 211.085 162.447 214.446 166.773 214.392C171.084 214.338 173.891 211.156 173.923 206.285C173.955 201.449 171.119 198.261 166.765 198.241C162.395 198.221 159.509 201.37 159.487 206.176V206.178Z" fill="#433129"/>
<path d="M356.098 229.12C355.072 229.12 354.047 229.106 353.022 229.128C352.652 229.135 352.48 229.074 352.483 228.617C352.491 227.371 352.468 227.371 353.67 227.371C354.121 227.371 354.573 227.352 355.023 227.376C355.446 227.399 355.499 227.291 355.323 226.879C354.642 225.284 354.69 223.714 355.656 222.251C356.474 221.013 357.724 220.597 359.081 220.561C361.007 220.51 362.936 220.555 364.863 220.539C365.233 220.536 365.358 220.651 365.365 221.046C365.389 222.351 365.404 222.351 364.169 222.347C363.738 222.346 363.306 222.363 362.878 222.335C362.429 222.307 362.422 222.448 362.588 222.84C363.499 224.986 362.948 227.272 361.258 228.426C360.591 228.882 359.845 229.105 359.05 229.117C358.066 229.13 357.081 229.12 356.097 229.12H356.098ZM356.875 224.821C356.868 226.293 357.728 227.301 358.976 227.285C360.22 227.269 361.03 226.314 361.039 224.853C361.048 223.402 360.23 222.446 358.974 222.44C357.713 222.434 356.881 223.378 356.875 224.82V224.821Z" fill="#433129"/>
<path d="M354.43 6.99487V10.9061H350.519L352.454 8.97097L354.43 6.99487Z" fill="#4E6C3C"/>
<path d="M390 27.3714V52.6505C390 53.1945 389.784 53.7163 389.399 54.101C389.015 54.4857 388.493 54.7018 387.949 54.7018H337.35C336.922 54.7017 336.504 54.5678 336.156 54.3188C335.808 54.0698 335.547 53.7181 335.408 53.313C335.334 53.1047 335.297 52.8852 335.298 52.6641V27.3714C335.298 27.0643 335.367 26.761 335.499 26.484C335.632 26.2069 335.825 25.9632 336.064 25.7707L343.524 19.8082V12.95C343.524 12.4076 343.738 11.8871 344.119 11.501L355.032 0.601039C355.417 0.217621 355.938 0.00163855 356.482 0H379.723C380.267 0 380.789 0.216124 381.173 0.60082C381.558 0.985517 381.774 1.50727 381.774 2.05132V20.0414L389.199 25.7433C389.448 25.9353 389.65 26.1819 389.789 26.4642C389.928 26.7465 390 27.0568 390 27.3714ZM385.897 48.9102V30.8853L372.653 38.3863L385.897 48.9102ZM381.774 28.5058L384.249 27.1109L381.774 25.2107V28.5058ZM343.339 50.6053H381.439L362.635 35.6642L343.339 50.6053ZM377.672 30.8306V4.09511H358.533V12.95C358.533 13.494 358.317 14.0158 357.932 14.4005C357.547 14.7852 357.026 15.0013 356.482 15.0013H347.627V31.0145L355.778 35.7866L361.392 31.4385C361.755 31.1561 362.202 31.0039 362.662 31.0064C363.122 31.0089 363.568 31.1659 363.928 31.4522L369.193 35.6368L377.672 30.8306ZM354.43 10.9062V6.99499L352.454 8.97109L350.519 10.9062H354.43ZM339.401 48.4719L352.283 38.4957L339.401 30.9462V48.4719ZM343.524 28.6084V25.0596L340.96 27.1109L343.524 28.6084Z" fill="#433129"/>
<path d="M115.88 27.2843C115.88 26.8845 115.722 26.5011 115.439 26.2184C115.156 25.9357 114.773 25.7769 114.373 25.7769H75.1801C74.7803 25.7769 74.3968 25.9357 74.1142 26.2184C73.8315 26.5011 73.6726 26.8845 73.6726 27.2843V52.9105C73.657 53.0204 73.657 53.1321 73.6726 53.2421C73.6658 53.3223 73.6658 53.403 73.6726 53.4833C73.6726 53.5737 73.7782 53.634 73.8234 53.7094C73.8801 53.801 73.9458 53.8869 74.0193 53.9657C74.0924 54.0228 74.1738 54.0685 74.2605 54.1013L74.4414 54.2219C74.671 54.3387 74.9228 54.4054 75.1801 54.4179H114.373C114.563 54.412 114.752 54.3764 114.931 54.3124L115.112 54.1918C115.198 54.159 115.28 54.1132 115.353 54.0561C115.426 53.9773 115.492 53.8915 115.549 53.7998C115.549 53.7998 115.654 53.6642 115.7 53.5737C115.706 53.4935 115.706 53.4128 115.7 53.3325C115.787 53.2051 115.848 53.0617 115.88 52.9105V27.2843ZM76.6875 30.0127L87.0887 36.8564L76.6875 48.9158V30.0127ZM94.7766 38.2885L80.3053 28.7917H109.248L94.7766 38.2885ZM89.6362 38.5296L93.9475 41.3636C94.1936 41.5257 94.4818 41.6121 94.7766 41.6121C95.0713 41.6121 95.3595 41.5257 95.6056 41.3636L99.9169 38.5296L111.072 51.403H78.4813L89.6362 38.5296ZM102.464 36.8564L112.866 30.0127V48.8706L102.464 36.8564Z" fill="#433129"/>
<path fill-rule="evenodd" clip-rule="evenodd" d="M30.2712 49.8822L71.2502 49.8822V52.7463L30.2712 52.7463V49.8822Z" fill="#433129"/>
<path fill-rule="evenodd" clip-rule="evenodd" d="M49.5554 42.6505H71.2502V45.5146H49.5554V42.6505Z" fill="#433129"/>
<path fill-rule="evenodd" clip-rule="evenodd" d="M42.3238 35.4191L71.2502 35.4191L71.2502 38.2832L42.3238 38.2832L42.3238 35.4191Z" fill="#433129"/>
<path d="M204.668 55.9254C204.668 55.5256 204.509 55.1422 204.226 54.8595C203.943 54.5768 203.56 54.418 203.16 54.418H163.967C163.568 54.418 163.184 54.5768 162.901 54.8595C162.619 55.1422 162.46 55.5256 162.46 55.9254V81.5516C162.444 81.6616 162.444 81.7732 162.46 81.8832C162.453 81.9635 162.453 82.0441 162.46 82.1244C162.46 82.2148 162.565 82.2751 162.611 82.3505C162.667 82.4422 162.733 82.528 162.807 82.6068C162.88 82.6639 162.961 82.7096 163.048 82.7424L163.229 82.863C163.458 82.9798 163.71 83.0466 163.967 83.059H203.16C203.351 83.0531 203.539 83.0175 203.718 82.9535L203.899 82.8329C203.986 82.8001 204.067 82.7543 204.14 82.6972C204.214 82.6184 204.279 82.5326 204.336 82.441C204.336 82.441 204.442 82.3053 204.487 82.2148C204.494 82.1346 204.494 82.0539 204.487 81.9737C204.574 81.8462 204.636 81.7028 204.668 81.5516V55.9254ZM165.475 58.6538L175.876 65.4975L165.475 77.5569V58.6538ZM183.564 66.9296L169.093 57.4328H198.035L183.564 66.9296ZM178.423 67.1708L182.735 70.0047C182.981 70.1668 183.269 70.2532 183.564 70.2532C183.858 70.2532 184.147 70.1668 184.393 70.0047L188.704 67.1708L199.859 80.0442H167.269L178.423 67.1708ZM191.252 65.4975L201.653 58.6538V77.5117L191.252 65.4975Z" fill="#433129"/>
<path fill-rule="evenodd" clip-rule="evenodd" d="M119.058 78.5233H160.037V81.3875H119.058V78.5233Z" fill="#433129"/>
<path fill-rule="evenodd" clip-rule="evenodd" d="M138.343 71.2917H160.037V74.1558H138.343V71.2917Z" fill="#433129"/>
<path fill-rule="evenodd" clip-rule="evenodd" d="M131.111 64.0602L160.037 64.0602L160.037 66.9243L131.111 66.9243L131.111 64.0602Z" fill="#433129"/>
<path d="M85.8075 159.033C85.8075 158.633 85.6487 158.25 85.366 157.967C85.0833 157.684 84.6998 157.526 84.3 157.526H45.1071C44.7073 157.526 44.3239 157.684 44.0412 157.967C43.7585 158.25 43.5996 158.633 43.5996 159.033V184.659C43.584 184.769 43.584 184.881 43.5996 184.991C43.5928 185.071 43.5928 185.152 43.5996 185.232C43.5996 185.323 43.7052 185.383 43.7504 185.458C43.8071 185.55 43.8728 185.636 43.9463 185.714C44.0194 185.772 44.1008 185.817 44.1875 185.85L44.3684 185.971C44.598 186.087 44.8498 186.154 45.1071 186.167H84.3C84.4903 186.161 84.6785 186.125 84.8578 186.061L85.0387 185.941C85.1255 185.908 85.2068 185.862 85.2799 185.805C85.3534 185.726 85.4191 185.64 85.4758 185.549C85.4758 185.549 85.5814 185.413 85.6266 185.323C85.6334 185.242 85.6334 185.162 85.6266 185.081C85.714 184.954 85.7755 184.81 85.8075 184.659V159.033ZM46.6145 161.761L57.0157 168.605L46.6145 180.665V161.761ZM64.7036 170.037L50.2323 160.54H79.1748L64.7036 170.037ZM59.5632 170.278L63.8745 173.112C64.1206 173.274 64.4088 173.361 64.7036 173.361C64.9983 173.361 65.2865 173.274 65.5326 173.112L69.8439 170.278L80.9988 183.152H48.4083L59.5632 170.278ZM72.3914 168.605L82.7926 161.761V180.619L72.3914 168.605Z" fill="#433129"/>
<path fill-rule="evenodd" clip-rule="evenodd" d="M0.19817 181.631H41.1772V184.495H0.19817V181.631Z" fill="#433129"/>
<path fill-rule="evenodd" clip-rule="evenodd" d="M19.4824 174.399H41.1772V177.263H19.4824V174.399Z" fill="#433129"/>
<path fill-rule="evenodd" clip-rule="evenodd" d="M12.2508 167.168L41.1772 167.168L41.1772 170.032L12.2508 170.032L12.2508 167.168Z" fill="#433129"/>
<path fill-rule="evenodd" clip-rule="evenodd" d="M335.298 34.3692H247.943C242.407 34.3692 237.919 38.8572 237.919 44.3935V226.264C237.919 231.8 242.407 236.288 247.943 236.288H368.235C373.772 236.288 378.26 231.8 378.26 226.264V54.4179H382.556V226.264C382.556 234.173 376.144 240.585 368.235 240.585H247.943C240.034 240.585 233.623 234.173 233.623 226.264V44.3935C233.623 36.4845 240.034 30.073 247.943 30.073H335.298V34.3692Z" fill="#433129"/>
<path fill-rule="evenodd" clip-rule="evenodd" d="M260.831 64.4422H355.347C357.719 64.4422 359.643 66.3657 359.643 68.7384V103.108C359.643 105.48 357.719 107.404 355.347 107.404H260.831C258.458 107.404 256.535 105.48 256.535 103.108V68.7384C256.535 66.3657 258.458 64.4422 260.831 64.4422ZM253.671 68.7384C253.671 64.7839 256.877 61.5781 260.831 61.5781H355.347C359.301 61.5781 362.507 64.7839 362.507 68.7384V103.108C362.507 107.062 359.301 110.268 355.347 110.268H260.831C260.445 110.268 259.849 110.367 259.089 110.554C258.344 110.737 257.491 110.991 256.611 111.272C254.653 111.897 251.494 112.156 249.35 112.186C248.807 112.194 248.318 112.187 247.918 112.167C247.537 112.148 247.182 112.114 246.94 112.051C246.877 112.034 246.792 112.008 246.706 111.965C246.646 111.935 246.453 111.834 246.34 111.606C246.273 111.472 246.243 111.31 246.272 111.142C246.3 110.984 246.372 110.867 246.432 110.793C246.54 110.66 246.671 110.59 246.731 110.559C246.869 110.49 247.037 110.441 247.195 110.402C247.365 110.361 247.575 110.319 247.825 110.278C249.249 110.04 250.535 108.873 251.594 107.322C252.606 105.839 253.318 104.14 253.671 103.001V68.7384ZM254.152 105.693C253.778 106.494 253.318 107.337 252.776 108.13C252.115 109.099 251.297 110.043 250.325 110.725C252.305 110.64 254.688 110.383 256.175 109.908C256.645 109.758 257.113 109.613 257.566 109.482C256.012 108.684 254.788 107.335 254.152 105.693Z" fill="#433129"/>
<path fill-rule="evenodd" clip-rule="evenodd" d="M356.779 123.156H262.264C259.891 123.156 257.968 125.08 257.968 127.452V161.822C257.968 164.194 259.891 166.118 262.264 166.118H356.779C359.152 166.118 361.076 164.194 361.076 161.822V127.452C361.076 125.08 359.152 123.156 356.779 123.156ZM363.94 127.452C363.94 123.498 360.734 120.292 356.779 120.292H262.264C258.31 120.292 255.104 123.498 255.104 127.452V161.822C255.104 165.776 258.31 168.982 262.264 168.982H356.779C357.166 168.982 357.761 169.081 358.521 169.268C359.267 169.451 360.12 169.705 361 169.986C362.958 170.611 366.117 170.87 368.26 170.9C368.803 170.908 369.293 170.902 369.693 170.881C370.074 170.862 370.429 170.829 370.67 170.765C370.734 170.748 370.819 170.722 370.904 170.679C370.964 170.649 371.157 170.548 371.271 170.32C371.338 170.186 371.368 170.024 371.339 169.856C371.311 169.698 371.239 169.581 371.179 169.508C371.07 169.374 370.94 169.304 370.88 169.273C370.742 169.204 370.574 169.155 370.416 169.116C370.246 169.075 370.035 169.033 369.786 168.992C368.362 168.754 367.076 167.587 366.017 166.036C365.004 164.553 364.292 162.854 363.94 161.715V127.452ZM363.459 164.407C363.833 165.208 364.293 166.051 364.834 166.844C365.496 167.813 366.314 168.757 367.285 169.44C365.305 169.355 362.923 169.097 361.436 168.622C360.966 168.472 360.498 168.328 360.044 168.196C361.598 167.399 362.823 166.049 363.459 164.407Z" fill="#433129"/>
<path fill-rule="evenodd" clip-rule="evenodd" d="M260.832 179.006H280.88C283.253 179.006 285.176 180.93 285.176 183.303V186.167C285.176 188.539 283.253 190.463 280.88 190.463H260.832C258.459 190.463 256.535 188.539 256.535 186.167V183.303C256.535 180.93 258.459 179.006 260.832 179.006ZM253.671 183.303C253.671 179.348 256.877 176.142 260.832 176.142H280.88C284.835 176.142 288.041 179.348 288.041 183.303V186.167C288.041 190.121 284.835 193.327 280.88 193.327H261.082C260.695 193.327 260.1 193.426 259.34 193.613C258.594 193.796 257.741 194.05 256.861 194.331C254.903 194.956 251.744 195.215 249.6 195.245C249.058 195.253 248.568 195.247 248.168 195.226C247.787 195.207 247.432 195.174 247.191 195.11C247.127 195.093 247.042 195.067 246.957 195.024C246.897 194.994 246.704 194.893 246.59 194.665C246.523 194.531 246.493 194.369 246.522 194.201C246.55 194.043 246.622 193.926 246.682 193.852C246.791 193.719 246.921 193.649 246.981 193.618C247.119 193.549 247.287 193.5 247.445 193.461C247.615 193.42 247.826 193.378 248.075 193.337C249.499 193.099 250.785 191.932 251.844 190.381C252.673 189.168 253.3 187.81 253.693 186.733C253.679 186.546 253.671 186.357 253.671 186.167V183.303ZM254.268 189.033C253.92 189.748 253.505 190.488 253.027 191.189C252.365 192.158 251.547 193.102 250.576 193.784C252.556 193.7 254.938 193.442 256.425 192.967C256.84 192.834 257.255 192.706 257.659 192.587C256.151 191.841 254.945 190.58 254.268 189.033Z" fill="#433129"/>
<path d="M263.696 184.735C263.696 185.525 263.054 186.167 262.264 186.167C261.473 186.167 260.832 185.525 260.832 184.735C260.832 183.944 261.473 183.302 262.264 183.302C263.054 183.302 263.696 183.944 263.696 184.735Z" fill="#433129"/>
<path d="M267.992 184.735C267.992 185.525 267.351 186.167 266.56 186.167C265.769 186.167 265.128 185.525 265.128 184.735C265.128 183.944 265.769 183.302 266.56 183.302C267.351 183.302 267.992 183.944 267.992 184.735Z" fill="#433129"/>
<path d="M272.288 184.735C272.288 185.525 271.647 186.167 270.856 186.167C270.065 186.167 269.424 185.525 269.424 184.735C269.424 183.944 270.065 183.302 270.856 183.302C271.647 183.302 272.288 183.944 272.288 184.735Z" fill="#433129"/>
<path fill-rule="evenodd" clip-rule="evenodd" d="M352.483 75.8988H263.696V73.0347H352.483V75.8988Z" fill="#433129"/>
<path fill-rule="evenodd" clip-rule="evenodd" d="M352.483 134.613H263.696V131.749H352.483V134.613Z" fill="#433129"/>
<path fill-rule="evenodd" clip-rule="evenodd" d="M352.483 81.6268H263.696V78.7627H352.483V81.6268Z" fill="#433129"/>
<path fill-rule="evenodd" clip-rule="evenodd" d="M352.483 140.341H263.696V137.477H352.483V140.341Z" fill="#433129"/>
<path fill-rule="evenodd" clip-rule="evenodd" d="M352.483 87.3551H263.696V84.491H352.483V87.3551Z" fill="#433129"/>
<path fill-rule="evenodd" clip-rule="evenodd" d="M352.483 146.069H263.696V143.205H352.483V146.069Z" fill="#433129"/>
<path fill-rule="evenodd" clip-rule="evenodd" d="M352.483 93.0833H263.696V90.2192H352.483V93.0833Z" fill="#433129"/>
<path fill-rule="evenodd" clip-rule="evenodd" d="M352.483 151.797H263.696V148.933H352.483V151.797Z" fill="#433129"/>
<path fill-rule="evenodd" clip-rule="evenodd" d="M299.497 98.8116H263.696V95.9475H299.497V98.8116Z" fill="#433129"/>
<path fill-rule="evenodd" clip-rule="evenodd" d="M352.483 157.526H316.682V154.662H352.483V157.526Z" fill="#433129"/>
<path fill-rule="evenodd" clip-rule="evenodd" d="M363.939 219.104H253.671C250.508 219.104 247.943 221.669 247.943 224.832C247.943 227.996 250.508 230.56 253.671 230.56H363.939C367.103 230.56 369.668 227.996 369.668 224.832C369.668 221.669 367.103 219.104 363.939 219.104ZM253.671 217.672C249.717 217.672 246.511 220.878 246.511 224.832C246.511 228.787 249.717 231.992 253.671 231.992H363.939C367.894 231.992 371.1 228.787 371.1 224.832C371.1 220.878 367.894 217.672 363.939 217.672H253.671Z" fill="#433129"/>
</svg>
