<svg width="309" height="277" viewBox="0 0 309 277" fill="none" xmlns="http://www.w3.org/2000/svg">
<mask id="mask0_175_417" style="mask-type:alpha" maskUnits="userSpaceOnUse" x="0" y="0" width="96" height="89">
<rect x="2.5" y="2.5" width="90.697" height="83.6948" fill="#D9D9D9" stroke="#433129" stroke-width="5"/>
</mask>
<g mask="url(#mask0_175_417)">
<mask id="path-2-inside-1_175_417" fill="white">
<path fill-rule="evenodd" clip-rule="evenodd" d="M53.6981 67.0743C62.8631 64.668 69.6235 56.3269 69.6235 46.4068C69.6235 34.6064 60.0574 25.0403 48.257 25.0403C36.4566 25.0403 26.8905 34.6064 26.8905 46.4068C26.8905 56.3268 33.6509 64.6679 42.8159 67.0742L18.6726 85.8524L48.2571 222.269L77.8413 85.8524L53.6981 67.0743Z"/>
</mask>
<path d="M53.6981 67.0743L52.4284 62.2382L42.6403 64.8081L50.6284 71.021L53.6981 67.0743ZM42.8159 67.0742L45.8856 71.021L53.8736 64.8081L44.0856 62.2382L42.8159 67.0742ZM18.6726 85.8524L15.6029 81.9056L13.1194 83.8372L13.7862 86.9121L18.6726 85.8524ZM48.2571 222.269L43.3707 223.329L53.1435 223.329L48.2571 222.269ZM77.8413 85.8524L82.7278 86.9121L83.3946 83.8372L80.911 81.9056L77.8413 85.8524ZM64.6235 46.4068C64.6235 53.9985 59.45 60.3946 52.4284 62.2382L54.9678 71.9104C66.2762 68.9413 74.6235 58.6552 74.6235 46.4068H64.6235ZM48.257 30.0403C57.296 30.0403 64.6235 37.3678 64.6235 46.4068H74.6235C74.6235 31.845 62.8188 20.0403 48.257 20.0403V30.0403ZM31.8905 46.4068C31.8905 37.3678 39.2181 30.0403 48.257 30.0403V20.0403C33.6952 20.0403 21.8905 31.845 21.8905 46.4068H31.8905ZM44.0856 62.2382C37.064 60.3946 31.8905 53.9985 31.8905 46.4068H21.8905C21.8905 58.6552 30.2378 68.9412 41.5461 71.9103L44.0856 62.2382ZM39.7462 63.1275L15.6029 81.9056L21.7423 89.7991L45.8856 71.021L39.7462 63.1275ZM13.7862 86.9121L43.3707 223.329L53.1435 221.21L23.559 84.7926L13.7862 86.9121ZM53.1435 223.329L82.7278 86.9121L72.9549 84.7927L43.3706 221.21L53.1435 223.329ZM80.911 81.9056L56.7678 63.1275L50.6284 71.021L74.7716 89.7991L80.911 81.9056Z" fill="#433129" mask="url(#path-2-inside-1_175_417)"/>
</g>
<mask id="mask1_175_417" style="mask-type:alpha" maskUnits="userSpaceOnUse" x="106" y="0" width="96" height="89">
<rect x="108.786" y="2.5" width="90.697" height="83.6948" fill="#D9D9D9" stroke="#433129" stroke-width="5"/>
</mask>
<g mask="url(#mask1_175_417)">
<mask id="path-5-inside-2_175_417" fill="white">
<path fill-rule="evenodd" clip-rule="evenodd" d="M159.985 67.074C169.15 64.6677 175.91 56.3266 175.91 46.4065C175.91 34.6061 166.344 25.04 154.544 25.04C142.743 25.04 133.177 34.6061 133.177 46.4065C133.177 56.3266 139.937 64.6677 149.102 67.074L124.959 85.8521L154.544 222.269L184.128 85.8521L159.985 67.074Z"/>
</mask>
<path d="M159.985 67.074L158.715 62.2379L148.927 64.8078L156.915 71.0208L159.985 67.074ZM149.102 67.074L152.172 71.0208L160.16 64.8078L150.372 62.2379L149.102 67.074ZM124.959 85.8521L121.889 81.9053L119.406 83.837L120.073 86.9118L124.959 85.8521ZM154.544 222.269L149.657 223.329L159.43 223.329L154.544 222.269ZM184.128 85.8521L189.014 86.9118L189.681 83.837L187.198 81.9053L184.128 85.8521ZM170.91 46.4065C170.91 53.9983 165.737 60.3944 158.715 62.2379L161.254 71.9101C172.563 68.9411 180.91 58.655 180.91 46.4065H170.91ZM154.544 30.04C163.582 30.04 170.91 37.3676 170.91 46.4065H180.91C180.91 31.8447 169.105 20.04 154.544 20.04V30.04ZM138.177 46.4065C138.177 37.3676 145.505 30.04 154.544 30.04V20.04C139.982 20.04 128.177 31.8447 128.177 46.4065H138.177ZM150.372 62.2379C143.35 60.3943 138.177 53.9982 138.177 46.4065H128.177C128.177 58.6549 136.524 68.941 147.833 71.9101L150.372 62.2379ZM146.033 63.1272L121.889 81.9053L128.029 89.7989L152.172 71.0208L146.033 63.1272ZM120.073 86.9118L149.657 223.329L159.43 221.209L129.846 84.7924L120.073 86.9118ZM159.43 223.329L189.014 86.9118L179.241 84.7924L149.657 221.209L159.43 223.329ZM187.198 81.9053L163.054 63.1273L156.915 71.0208L181.058 89.7989L187.198 81.9053Z" fill="#433129" mask="url(#path-5-inside-2_175_417)"/>
</g>
<mask id="mask2_175_417" style="mask-type:alpha" maskUnits="userSpaceOnUse" x="212" y="0" width="97" height="89">
<rect x="215.072" y="2.5" width="90.697" height="83.6948" fill="#D9D9D9" stroke="#433129" stroke-width="5"/>
</mask>
<g mask="url(#mask2_175_417)">
<mask id="path-8-inside-3_175_417" fill="white">
<path fill-rule="evenodd" clip-rule="evenodd" d="M266.27 67.0743C275.435 64.668 282.196 56.3269 282.196 46.4068C282.196 34.6064 272.63 25.0403 260.829 25.0403C249.029 25.0403 239.463 34.6064 239.463 46.4068C239.463 56.3268 246.223 64.6679 255.388 67.0742L231.245 85.8524L260.829 222.269L290.414 85.8524L266.27 67.0743Z"/>
</mask>
<path d="M266.27 67.0743L265.001 62.2382L255.213 64.8081L263.201 71.021L266.27 67.0743ZM255.388 67.0742L258.458 71.021L266.446 64.8081L256.658 62.2382L255.388 67.0742ZM231.245 85.8524L228.175 81.9056L225.692 83.8372L226.359 86.9121L231.245 85.8524ZM260.829 222.269L255.943 223.329L265.716 223.329L260.829 222.269ZM290.414 85.8524L295.3 86.9121L295.967 83.8372L293.483 81.9056L290.414 85.8524ZM277.196 46.4068C277.196 53.9985 272.022 60.3946 265.001 62.2382L267.54 71.9104C278.849 68.9413 287.196 58.6552 287.196 46.4068H277.196ZM260.829 30.0403C269.868 30.0403 277.196 37.3678 277.196 46.4068H287.196C287.196 31.845 275.391 20.0403 260.829 20.0403V30.0403ZM244.463 46.4068C244.463 37.3678 251.79 30.0403 260.829 30.0403V20.0403C246.268 20.0403 234.463 31.845 234.463 46.4068H244.463ZM256.658 62.2382C249.636 60.3946 244.463 53.9985 244.463 46.4068H234.463C234.463 58.6552 242.81 68.9412 254.119 71.9103L256.658 62.2382ZM252.319 63.1275L228.175 81.9056L234.315 89.7991L258.458 71.021L252.319 63.1275ZM226.359 86.9121L255.943 223.329L265.716 221.21L236.131 84.7926L226.359 86.9121ZM265.716 223.329L295.3 86.9121L285.527 84.7927L255.943 221.21L265.716 223.329ZM293.483 81.9056L269.34 63.1275L263.201 71.021L287.344 89.7991L293.483 81.9056Z" fill="#433129" mask="url(#path-8-inside-3_175_417)"/>
</g>
<mask id="mask3_175_417" style="mask-type:alpha" maskUnits="userSpaceOnUse" x="0" y="131" width="96" height="90">
<rect x="2.5" y="134.092" width="90.697" height="83.6948" fill="#D9D9D9" stroke="#433129" stroke-width="5"/>
</mask>
<g mask="url(#mask3_175_417)">
<mask id="path-11-inside-4_175_417" fill="white">
<path fill-rule="evenodd" clip-rule="evenodd" d="M53.6981 198.666C62.8631 196.26 69.6235 187.919 69.6235 177.999C69.6235 166.198 60.0574 156.632 48.257 156.632C36.4566 156.632 26.8905 166.198 26.8905 177.999C26.8905 187.919 33.6509 196.26 42.8159 198.666L18.6726 217.444L48.2571 353.861L77.8413 217.444L53.6981 198.666Z"/>
</mask>
<path d="M53.6981 198.666L52.4284 193.83L42.6403 196.4L50.6284 202.613L53.6981 198.666ZM42.8159 198.666L45.8856 202.613L53.8736 196.4L44.0856 193.83L42.8159 198.666ZM18.6726 217.444L15.6029 213.498L13.1194 215.429L13.7862 218.504L18.6726 217.444ZM48.2571 353.861L43.3707 354.921H53.1435L48.2571 353.861ZM77.8413 217.444L82.7278 218.504L83.3946 215.429L80.911 213.498L77.8413 217.444ZM64.6235 177.999C64.6235 185.591 59.45 191.987 52.4284 193.83L54.9678 203.502C66.2762 200.533 74.6235 190.247 74.6235 177.999H64.6235ZM48.257 161.632C57.296 161.632 64.6235 168.96 64.6235 177.999H74.6235C74.6235 163.437 62.8188 151.632 48.257 151.632V161.632ZM31.8905 177.999C31.8905 168.96 39.2181 161.632 48.257 161.632V151.632C33.6952 151.632 21.8905 163.437 21.8905 177.999H31.8905ZM44.0856 193.83C37.064 191.987 31.8905 185.591 31.8905 177.999H21.8905C21.8905 190.247 30.2378 200.533 41.5461 203.502L44.0856 193.83ZM39.7462 194.72L15.6029 213.498L21.7423 221.391L45.8856 202.613L39.7462 194.72ZM13.7862 218.504L43.3707 354.921L53.1435 352.802L23.559 216.385L13.7862 218.504ZM53.1435 354.921L82.7278 218.504L72.9549 216.385L43.3706 352.802L53.1435 354.921ZM80.911 213.498L56.7678 194.72L50.6284 202.613L74.7716 221.391L80.911 213.498Z" fill="#433129" mask="url(#path-11-inside-4_175_417)"/>
</g>
<mask id="mask4_175_417" style="mask-type:alpha" maskUnits="userSpaceOnUse" x="106" y="131" width="96" height="90">
<rect x="108.786" y="134.092" width="90.697" height="83.6948" fill="#D9D9D9" stroke="#433129" stroke-width="5"/>
</mask>
<g mask="url(#mask4_175_417)">
<mask id="path-14-inside-5_175_417" fill="white">
<path fill-rule="evenodd" clip-rule="evenodd" d="M159.985 198.666C169.15 196.26 175.91 187.919 175.91 177.999C175.91 166.198 166.344 156.632 154.544 156.632C142.743 156.632 133.177 166.198 133.177 177.999C133.177 187.919 139.937 196.26 149.102 198.666L124.959 217.444L154.544 353.861L184.128 217.444L159.985 198.666Z"/>
</mask>
<path d="M159.985 198.666L158.715 193.83L148.927 196.4L156.915 202.613L159.985 198.666ZM149.102 198.666L152.172 202.613L160.16 196.4L150.372 193.83L149.102 198.666ZM124.959 217.444L121.889 213.498L119.406 215.429L120.073 218.504L124.959 217.444ZM154.544 353.861L149.657 354.921H159.43L154.544 353.861ZM184.128 217.444L189.014 218.504L189.681 215.429L187.198 213.498L184.128 217.444ZM170.91 177.999C170.91 185.591 165.737 191.987 158.715 193.83L161.254 203.502C172.563 200.533 180.91 190.247 180.91 177.999H170.91ZM154.544 161.632C163.582 161.632 170.91 168.96 170.91 177.999H180.91C180.91 163.437 169.105 151.632 154.544 151.632V161.632ZM138.177 177.999C138.177 168.96 145.505 161.632 154.544 161.632V151.632C139.982 151.632 128.177 163.437 128.177 177.999H138.177ZM150.372 193.83C143.35 191.987 138.177 185.591 138.177 177.999H128.177C128.177 190.247 136.524 200.533 147.833 203.502L150.372 193.83ZM146.033 194.72L121.889 213.498L128.029 221.391L152.172 202.613L146.033 194.72ZM120.073 218.504L149.657 354.921L159.43 352.802L129.846 216.385L120.073 218.504ZM159.43 354.921L189.014 218.504L179.241 216.385L149.657 352.802L159.43 354.921ZM187.198 213.498L163.054 194.72L156.915 202.613L181.058 221.391L187.198 213.498Z" fill="#433129" mask="url(#path-14-inside-5_175_417)"/>
</g>
<mask id="mask5_175_417" style="mask-type:alpha" maskUnits="userSpaceOnUse" x="212" y="131" width="97" height="90">
<rect x="215.072" y="134.092" width="90.697" height="83.6948" fill="#D9D9D9" stroke="#433129" stroke-width="5"/>
</mask>
<g mask="url(#mask5_175_417)">
<mask id="path-17-inside-6_175_417" fill="white">
<path fill-rule="evenodd" clip-rule="evenodd" d="M266.27 198.666C275.435 196.26 282.196 187.919 282.196 177.999C282.196 166.198 272.63 156.632 260.829 156.632C249.029 156.632 239.463 166.198 239.463 177.999C239.463 187.919 246.223 196.26 255.388 198.666L231.245 217.444L260.829 353.861L290.414 217.444L266.27 198.666Z"/>
</mask>
<path d="M266.27 198.666L265.001 193.83L255.213 196.4L263.201 202.613L266.27 198.666ZM255.388 198.666L258.458 202.613L266.446 196.4L256.658 193.83L255.388 198.666ZM231.245 217.444L228.175 213.498L225.692 215.429L226.359 218.504L231.245 217.444ZM260.829 353.861L255.943 354.921H265.716L260.829 353.861ZM290.414 217.444L295.3 218.504L295.967 215.429L293.483 213.498L290.414 217.444ZM277.196 177.999C277.196 185.591 272.022 191.987 265.001 193.83L267.54 203.502C278.849 200.533 287.196 190.247 287.196 177.999H277.196ZM260.829 161.632C269.868 161.632 277.196 168.96 277.196 177.999H287.196C287.196 163.437 275.391 151.632 260.829 151.632V161.632ZM244.463 177.999C244.463 168.96 251.79 161.632 260.829 161.632V151.632C246.268 151.632 234.463 163.437 234.463 177.999H244.463ZM256.658 193.83C249.636 191.987 244.463 185.591 244.463 177.999H234.463C234.463 190.247 242.81 200.533 254.119 203.502L256.658 193.83ZM252.319 194.72L228.175 213.498L234.315 221.391L258.458 202.613L252.319 194.72ZM226.359 218.504L255.943 354.921L265.716 352.802L236.131 216.385L226.359 218.504ZM265.716 354.921L295.3 218.504L285.527 216.385L255.943 352.802L265.716 354.921ZM293.483 213.498L269.34 194.72L263.201 202.613L287.344 221.391L293.483 213.498Z" fill="#433129" mask="url(#path-17-inside-6_175_417)"/>
</g>
<mask id="path-19-inside-7_175_417" fill="white">
<rect y="88.6436" width="96.1638" height="56.0177" rx="2"/>
</mask>
<rect y="88.6436" width="96.1638" height="56.0177" rx="2" stroke="#433129" stroke-width="10" mask="url(#path-19-inside-7_175_417)"/>
<path d="M40.0881 128.301C37.191 128.301 34.2939 128.264 31.3981 128.321C30.3532 128.342 29.8682 128.176 29.8764 126.935C29.8997 123.55 29.8341 123.55 33.2298 123.55C34.5042 123.55 35.7814 123.498 37.053 123.564C38.2469 123.625 38.3971 123.331 37.9013 122.214C35.9767 117.881 36.1119 113.615 38.8397 109.642C41.1508 106.278 44.6818 105.147 48.5159 105.05C53.9578 104.912 59.4065 105.035 64.8511 104.991C65.896 104.983 66.2498 105.294 66.2703 106.368C66.3386 109.912 66.3796 109.912 62.891 109.903C61.674 109.901 60.4542 109.944 59.2426 109.87C57.9764 109.792 57.9559 110.177 58.4244 111.24C60.9992 117.071 59.4407 123.282 54.6681 126.416C52.7817 127.655 50.6755 128.261 48.4285 128.291C45.6489 128.328 42.8678 128.299 40.0868 128.301H40.0881ZM42.2832 116.622C42.2654 120.621 44.6954 123.36 48.2209 123.316C51.7341 123.272 54.022 120.679 54.048 116.71C54.0739 112.768 51.7628 110.17 48.2141 110.154C44.6531 110.137 42.301 112.704 42.2832 116.621V116.622Z" fill="#433129"/>
<mask id="path-21-inside-8_175_417" fill="white">
<rect x="106.286" y="88.6436" width="96.1638" height="56.0177" rx="2"/>
</mask>
<rect x="106.286" y="88.6436" width="96.1638" height="56.0177" rx="2" stroke="#433129" stroke-width="10" mask="url(#path-21-inside-8_175_417)"/>
<path d="M146.374 128.301C143.477 128.301 140.58 128.264 137.684 128.321C136.639 128.342 136.154 128.176 136.163 126.935C136.186 123.55 136.12 123.55 139.516 123.55C140.79 123.55 142.067 123.498 143.339 123.564C144.533 123.625 144.683 123.331 144.187 122.214C142.263 117.881 142.398 113.615 145.126 109.642C147.437 106.278 150.968 105.147 154.802 105.05C160.244 104.912 165.693 105.035 171.137 104.991C172.182 104.983 172.536 105.294 172.556 106.368C172.625 109.912 172.666 109.912 169.177 109.903C167.96 109.901 166.74 109.944 165.529 109.87C164.263 109.792 164.242 110.177 164.711 111.24C167.285 117.071 165.727 123.282 160.954 126.416C159.068 127.655 156.962 128.261 154.715 128.291C151.935 128.328 149.154 128.299 146.373 128.301H146.374ZM148.569 116.622C148.552 120.621 150.982 123.36 154.507 123.316C158.02 123.272 160.308 120.679 160.334 116.71C160.36 112.768 158.049 110.17 154.5 110.154C150.939 110.137 148.587 112.704 148.569 116.621V116.622Z" fill="#433129"/>
<mask id="path-23-inside-9_175_417" fill="white">
<rect x="212.572" y="88.6436" width="96.1638" height="56.0177" rx="2"/>
</mask>
<rect x="212.572" y="88.6436" width="96.1638" height="56.0177" rx="2" stroke="#433129" stroke-width="10" mask="url(#path-23-inside-9_175_417)"/>
<path d="M252.66 128.301C249.763 128.301 246.866 128.264 243.97 128.321C242.925 128.342 242.441 128.176 242.449 126.935C242.472 123.55 242.406 123.55 245.802 123.55C247.076 123.55 248.354 123.498 249.625 123.564C250.819 123.625 250.969 123.331 250.474 122.214C248.549 117.881 248.684 113.615 251.412 109.642C253.723 106.278 257.254 105.147 261.088 105.05C266.53 104.912 271.979 105.035 277.423 104.991C278.468 104.983 278.822 105.294 278.843 106.368C278.911 109.912 278.952 109.912 275.463 109.903C274.246 109.901 273.026 109.944 271.815 109.87C270.549 109.792 270.528 110.177 270.997 111.24C273.571 117.071 272.013 123.282 267.24 126.416C265.354 127.655 263.248 128.261 261.001 128.291C258.221 128.328 255.44 128.299 252.659 128.301H252.66ZM254.855 116.622C254.838 120.621 257.268 123.36 260.793 123.316C264.306 123.272 266.594 120.679 266.62 116.71C266.646 112.768 264.335 110.17 260.786 110.154C257.225 110.137 254.873 112.704 254.855 116.621V116.622Z" fill="#433129"/>
<mask id="path-25-inside-10_175_417" fill="white">
<rect y="220.236" width="96.1638" height="56.0177" rx="2"/>
</mask>
<rect y="220.236" width="96.1638" height="56.0177" rx="2" stroke="#433129" stroke-width="10" mask="url(#path-25-inside-10_175_417)"/>
<path d="M40.0881 259.893C37.191 259.893 34.2939 259.856 31.3981 259.914C30.3532 259.934 29.8682 259.769 29.8764 258.527C29.8997 255.143 29.8341 255.143 33.2298 255.143C34.5042 255.143 35.7814 255.091 37.053 255.156C38.2469 255.218 38.3971 254.924 37.9013 253.807C35.9767 249.474 36.1119 245.208 38.8397 241.234C41.1508 237.87 44.6818 236.74 48.5159 236.643C53.9578 236.504 59.4065 236.628 64.8511 236.584C65.896 236.576 66.2498 236.886 66.2703 237.961C66.3386 241.504 66.3796 241.504 62.891 241.496C61.674 241.493 60.4542 241.537 59.2426 241.463C57.9764 241.385 57.9559 241.77 58.4244 242.833C60.9992 248.663 59.4407 254.874 54.6681 258.009C52.7817 259.247 50.6755 259.854 48.4285 259.884C45.6489 259.921 42.8678 259.892 40.0868 259.893H40.0881ZM42.2832 248.215C42.2654 252.214 44.6954 254.952 48.2209 254.909C51.7341 254.865 54.022 252.271 54.048 248.302C54.0739 244.36 51.7628 241.763 48.2141 241.746C44.6531 241.73 42.301 244.296 42.2832 248.213V248.215Z" fill="#433129"/>
<mask id="path-27-inside-11_175_417" fill="white">
<rect x="106.286" y="220.236" width="96.1638" height="56.0177" rx="2"/>
</mask>
<rect x="106.286" y="220.236" width="96.1638" height="56.0177" rx="2" stroke="#433129" stroke-width="10" mask="url(#path-27-inside-11_175_417)"/>
<path d="M146.374 259.893C143.477 259.893 140.58 259.856 137.684 259.914C136.639 259.934 136.154 259.769 136.163 258.527C136.186 255.143 136.12 255.143 139.516 255.143C140.79 255.143 142.067 255.091 143.339 255.156C144.533 255.218 144.683 254.924 144.187 253.807C142.263 249.474 142.398 245.208 145.126 241.234C147.437 237.87 150.968 236.74 154.802 236.643C160.244 236.504 165.693 236.628 171.137 236.584C172.182 236.576 172.536 236.886 172.556 237.961C172.625 241.504 172.666 241.504 169.177 241.496C167.96 241.493 166.74 241.537 165.529 241.463C164.263 241.385 164.242 241.77 164.711 242.833C167.285 248.663 165.727 254.874 160.954 258.009C159.068 259.247 156.962 259.854 154.715 259.884C151.935 259.921 149.154 259.892 146.373 259.893H146.374ZM148.569 248.215C148.552 252.214 150.982 254.952 154.507 254.909C158.02 254.865 160.308 252.271 160.334 248.302C160.36 244.36 158.049 241.763 154.5 241.746C150.939 241.73 148.587 244.296 148.569 248.213V248.215Z" fill="#433129"/>
<mask id="path-29-inside-12_175_417" fill="white">
<rect x="212.572" y="220.236" width="96.1638" height="56.0177" rx="2"/>
</mask>
<rect x="212.572" y="220.236" width="96.1638" height="56.0177" rx="2" stroke="#433129" stroke-width="10" mask="url(#path-29-inside-12_175_417)"/>
<path d="M252.66 259.893C249.763 259.893 246.866 259.856 243.97 259.914C242.925 259.934 242.441 259.769 242.449 258.527C242.472 255.143 242.406 255.143 245.802 255.143C247.076 255.143 248.354 255.091 249.625 255.156C250.819 255.218 250.969 254.924 250.474 253.807C248.549 249.474 248.684 245.208 251.412 241.234C253.723 237.87 257.254 236.74 261.088 236.643C266.53 236.504 271.979 236.628 277.423 236.584C278.468 236.576 278.822 236.886 278.843 237.961C278.911 241.504 278.952 241.504 275.463 241.496C274.246 241.493 273.026 241.537 271.815 241.463C270.549 241.385 270.528 241.77 270.997 242.833C273.571 248.663 272.013 254.874 267.24 258.009C265.354 259.247 263.248 259.854 261.001 259.884C258.221 259.921 255.44 259.892 252.659 259.893H252.66ZM254.855 248.215C254.838 252.214 257.268 254.952 260.793 254.909C264.306 254.865 266.594 252.271 266.62 248.302C266.646 244.36 264.335 241.763 260.786 241.746C257.225 241.73 254.873 244.296 254.855 248.213V248.215Z" fill="#433129"/>
</svg>
