<svg width="404" height="258" viewBox="0 0 404 258" fill="none" xmlns="http://www.w3.org/2000/svg">
<mask id="mask0_175_295" style="mask-type:alpha" maskUnits="userSpaceOnUse" x="136" y="72" width="125" height="116">
<rect x="138.5" y="74.5" width="119.541" height="110.429" fill="#D9D9D9" stroke="#433129" stroke-width="5"/>
</mask>
<g mask="url(#mask0_175_295)">
<mask id="path-2-inside-1_175_295" fill="white">
<path fill-rule="evenodd" clip-rule="evenodd" d="M205.056 156.463C216.984 153.332 225.782 142.476 225.782 129.566C225.782 114.209 213.332 101.76 197.975 101.76C182.618 101.76 170.168 114.209 170.168 129.566C170.168 142.476 178.967 153.332 190.894 156.463L159.474 180.901L197.975 358.436L236.477 180.901L205.056 156.463Z"/>
</mask>
<path d="M205.056 156.463L203.786 151.627L193.998 154.197L201.986 160.41L205.056 156.463ZM190.894 156.463L193.964 160.41L201.952 154.197L192.164 151.627L190.894 156.463ZM159.474 180.901L156.404 176.955L153.921 178.886L154.587 181.961L159.474 180.901ZM197.975 358.436L193.089 359.496H202.862L197.975 358.436ZM236.477 180.901L241.363 181.961L242.03 178.886L239.546 176.955L236.477 180.901ZM220.782 129.566C220.782 140.148 213.571 149.058 203.786 151.627L206.326 161.299C220.397 157.605 230.782 144.805 230.782 129.566H220.782ZM197.975 106.76C210.571 106.76 220.782 116.97 220.782 129.566H230.782C230.782 111.448 216.094 96.7595 197.975 96.7595V106.76ZM175.168 129.566C175.168 116.97 185.379 106.76 197.975 106.76V96.7595C179.856 96.7595 165.168 111.448 165.168 129.566H175.168ZM192.164 151.627C182.38 149.058 175.168 140.148 175.168 129.566H165.168C165.168 144.805 175.554 157.605 189.625 161.299L192.164 151.627ZM187.825 152.516L156.404 176.955L162.543 184.848L193.964 160.41L187.825 152.516ZM154.587 181.961L193.089 359.496L202.862 357.377L164.36 179.842L154.587 181.961ZM202.862 359.496L241.363 181.961L231.59 179.842L193.089 357.377L202.862 359.496ZM239.546 176.955L208.126 152.516L201.986 160.41L233.407 184.848L239.546 176.955Z" fill="#433129" mask="url(#path-2-inside-1_175_295)"/>
</g>
<mask id="path-4-inside-2_175_295" fill="white">
<rect x="135.173" y="184.534" width="125.149" height="72.9023" rx="2"/>
</mask>
<rect x="135.173" y="184.534" width="125.149" height="72.9023" rx="2" stroke="#433129" stroke-width="6" mask="url(#path-4-inside-2_175_295)"/>
<path d="M187.344 236.144C183.574 236.144 179.803 236.096 176.035 236.171C174.675 236.198 174.044 235.982 174.054 234.367C174.085 229.962 173.999 229.962 178.419 229.962C180.077 229.962 181.739 229.894 183.394 229.98C184.948 230.06 185.143 229.677 184.498 228.223C181.993 222.584 182.169 217.032 185.719 211.861C188.727 207.483 193.322 206.012 198.312 205.885C205.394 205.706 212.485 205.866 219.571 205.809C220.931 205.798 221.391 206.202 221.418 207.601C221.507 212.212 221.56 212.212 217.02 212.202C215.436 212.198 213.849 212.255 212.272 212.159C210.624 212.057 210.597 212.558 211.207 213.942C214.558 221.53 212.53 229.613 206.319 233.692C203.864 235.304 201.123 236.093 198.198 236.132C194.581 236.18 190.962 236.143 187.342 236.144H187.344ZM190.201 220.945C190.178 226.15 193.34 229.714 197.928 229.657C202.5 229.6 205.478 226.225 205.512 221.059C205.545 215.93 202.538 212.549 197.919 212.527C193.285 212.506 190.224 215.846 190.201 220.944V220.945Z" fill="#433129"/>
<path fill-rule="evenodd" clip-rule="evenodd" d="M80.4962 38.7294H133.862C138.528 38.7294 143.135 39.7854 147.335 41.8183C158.009 46.9843 164.789 57.7986 164.789 69.6569V188.331H160.233V69.6569C160.233 59.5456 154.452 50.3245 145.35 45.9197C141.768 44.1862 137.841 43.2858 133.862 43.2858H80.4962V38.7294Z" fill="#433129"/>
<path fill-rule="evenodd" clip-rule="evenodd" d="M252 55H230.27C228 55 225.762 55.4797 223.743 56.3992C218.989 58.5643 216 62.9008 216 67.6344V114H220.596V67.6344C220.596 64.4253 222.622 61.4854 225.845 60.0175C227.214 59.3942 228.731 59.069 230.27 59.069H252V55Z" fill="#433129"/>
<path fill-rule="evenodd" clip-rule="evenodd" d="M113.91 154.158H141.618C142.53 154.158 143.44 154.246 144.334 154.423C150.925 155.72 155.677 161.499 155.677 168.216V185.293H151.12V168.216C151.12 163.676 147.908 159.77 143.454 158.893C142.849 158.774 142.234 158.714 141.618 158.714H113.91V154.158Z" fill="#433129"/>
<path fill-rule="evenodd" clip-rule="evenodd" d="M270.346 142.008H248.776C247.372 142.008 245.977 142.242 244.651 142.702C239.576 144.46 236.173 149.24 236.173 154.61V185.293H240.729V154.61C240.729 151.182 242.902 148.13 246.142 147.007C246.989 146.714 247.879 146.564 248.776 146.564H270.346V142.008Z" fill="#433129"/>
<path fill-rule="evenodd" clip-rule="evenodd" d="M65.3083 15.188H15.188C9.31631 15.188 4.55639 19.9479 4.55639 25.8196V110.872C4.55639 116.744 9.31631 121.504 15.188 121.504H65.3083C71.1799 121.504 75.9398 116.744 75.9398 110.872V25.8196C75.9398 19.9479 71.1799 15.188 65.3083 15.188ZM15.188 10.6316C6.79989 10.6316 0 17.4315 0 25.8196V110.872C0 119.26 6.79988 126.06 15.188 126.06H65.3083C73.6964 126.06 80.4962 119.26 80.4962 110.872V25.8196C80.4962 17.4315 73.6964 10.6316 65.3083 10.6316H15.188Z" fill="#433129"/>
<path fill-rule="evenodd" clip-rule="evenodd" d="M68.3459 65.3083H10.6316V62.2708H68.3459V65.3083Z" fill="black"/>
<path fill-rule="evenodd" clip-rule="evenodd" d="M68.3459 69.8645H10.6316V66.8269H68.3459V69.8645Z" fill="black"/>
<path fill-rule="evenodd" clip-rule="evenodd" d="M68.3459 74.4211H10.6316V71.3835H68.3459V74.4211Z" fill="black"/>
<path fill-rule="evenodd" clip-rule="evenodd" d="M68.3459 78.9773H10.6316V75.9397H68.3459V78.9773Z" fill="black"/>
<path fill-rule="evenodd" clip-rule="evenodd" d="M68.3459 92.6467H10.6316V89.6091H68.3459V92.6467Z" fill="black"/>
<path fill-rule="evenodd" clip-rule="evenodd" d="M68.3459 98.7217H10.6316V95.6841H68.3459V98.7217Z" fill="black"/>
<path fill-rule="evenodd" clip-rule="evenodd" d="M68.3459 103.278H10.6316V100.241H68.3459V103.278Z" fill="black"/>
<path fill-rule="evenodd" clip-rule="evenodd" d="M68.3459 107.834H10.6316V104.797H68.3459V107.834Z" fill="black"/>
<path fill-rule="evenodd" clip-rule="evenodd" d="M27.3384 54.6766C34.8876 54.6766 41.0075 48.5567 41.0075 41.0074C41.0075 33.4581 34.8876 27.3383 27.3384 27.3383C19.7891 27.3383 13.6692 33.4581 13.6692 41.0074C13.6692 48.5567 19.7891 54.6766 27.3384 54.6766ZM27.3384 57.7142C36.5653 57.7142 44.0451 50.2343 44.0451 41.0074C44.0451 31.7805 36.5653 24.3007 27.3384 24.3007C18.1115 24.3007 10.6316 31.7805 10.6316 41.0074C10.6316 50.2343 18.1115 57.7142 27.3384 57.7142Z" fill="#433129"/>
<g clip-path="url(#clip0_175_295)">
<path d="M27.3384 39.4886C28.6293 39.4886 29.6621 38.4635 29.6621 37.2104C29.6621 35.9574 28.6293 34.9322 27.3384 34.9322C26.0474 34.9322 25.0146 35.9574 25.0146 37.2104C25.0146 38.4635 26.0474 39.4886 27.3384 39.4886ZM27.3384 41.0074C25.2121 41.0074 23.4958 39.3064 23.4958 37.2104C23.4958 35.1145 25.2121 33.4135 27.3384 33.4135C29.4647 33.4135 31.1809 35.1145 31.1809 37.2104C31.1809 39.3064 29.4647 41.0074 27.3384 41.0074ZM22.0226 47.0826H32.6542V46.0726C32.6542 44.7437 30.8999 43.3692 27.3384 43.3692C23.7768 43.3692 22.0226 44.7437 22.0226 46.0726V47.0826ZM27.3384 41.8504C32.396 41.8504 34.173 44.3792 34.173 46.0726V48.6014H20.5038V46.0726C20.5038 44.3792 22.2808 41.8504 27.3384 41.8504Z" fill="#433129"/>
</g>
<path fill-rule="evenodd" clip-rule="evenodd" d="M299.203 157.955C306.752 157.955 312.872 151.835 312.872 144.286C312.872 136.737 306.752 130.617 299.203 130.617C291.654 130.617 285.534 136.737 285.534 144.286C285.534 151.835 291.654 157.955 299.203 157.955ZM299.203 160.993C308.43 160.993 315.91 153.513 315.91 144.286C315.91 135.059 308.43 127.579 299.203 127.579C289.976 127.579 282.496 135.059 282.496 144.286C282.496 153.513 289.976 160.993 299.203 160.993Z" fill="#433129"/>
<g clip-path="url(#clip1_175_295)">
<path d="M299.203 142.767C300.494 142.767 301.527 141.742 301.527 140.489C301.527 139.236 300.494 138.211 299.203 138.211C297.912 138.211 296.879 139.236 296.879 140.489C296.879 141.742 297.912 142.767 299.203 142.767ZM299.203 144.286C297.077 144.286 295.36 142.585 295.36 140.489C295.36 138.393 297.077 136.692 299.203 136.692C301.329 136.692 303.046 138.393 303.046 140.489C303.046 142.585 301.329 144.286 299.203 144.286ZM293.887 150.361H304.519V149.351C304.519 148.022 302.765 146.648 299.203 146.648C295.641 146.648 293.887 148.022 293.887 149.351V150.361ZM299.203 145.129C304.261 145.129 306.038 147.658 306.038 149.351V151.88H292.368V149.351C292.368 147.658 294.145 145.129 299.203 145.129Z" fill="#433129"/>
</g>
<path fill-rule="evenodd" clip-rule="evenodd" d="M299.203 202C306.752 202 312.872 195.88 312.872 188.331C312.872 180.782 306.752 174.662 299.203 174.662C291.654 174.662 285.534 180.782 285.534 188.331C285.534 195.88 291.654 202 299.203 202ZM299.203 205.038C308.43 205.038 315.91 197.558 315.91 188.331C315.91 179.104 308.43 171.624 299.203 171.624C289.976 171.624 282.496 179.104 282.496 188.331C282.496 197.558 289.976 205.038 299.203 205.038Z" fill="#433129"/>
<g clip-path="url(#clip2_175_295)">
<path d="M299.203 186.812C300.494 186.812 301.527 185.787 301.527 184.534C301.527 183.281 300.494 182.256 299.203 182.256C297.912 182.256 296.879 183.281 296.879 184.534C296.879 185.787 297.912 186.812 299.203 186.812ZM299.203 188.331C297.077 188.331 295.36 186.63 295.36 184.534C295.36 182.438 297.077 180.737 299.203 180.737C301.329 180.737 303.046 182.438 303.046 184.534C303.046 186.63 301.329 188.331 299.203 188.331ZM293.887 194.406H304.519V193.396C304.519 192.067 302.765 190.693 299.203 190.693C295.641 190.693 293.887 192.067 293.887 193.396V194.406ZM299.203 189.174C304.261 189.174 306.038 191.703 306.038 193.396V195.925H292.368V193.396C292.368 191.703 294.145 189.174 299.203 189.174Z" fill="#433129"/>
</g>
<path fill-rule="evenodd" clip-rule="evenodd" d="M337.173 157.955C344.722 157.955 350.842 151.835 350.842 144.286C350.842 136.737 344.722 130.617 337.173 130.617C329.624 130.617 323.504 136.737 323.504 144.286C323.504 151.835 329.624 157.955 337.173 157.955ZM337.173 160.993C346.4 160.993 353.88 153.513 353.88 144.286C353.88 135.059 346.4 127.579 337.173 127.579C327.946 127.579 320.466 135.059 320.466 144.286C320.466 153.513 327.946 160.993 337.173 160.993Z" fill="#433129"/>
<g clip-path="url(#clip3_175_295)">
<path d="M337.173 142.767C338.464 142.767 339.497 141.742 339.497 140.489C339.497 139.236 338.464 138.211 337.173 138.211C335.882 138.211 334.849 139.236 334.849 140.489C334.849 141.742 335.882 142.767 337.173 142.767ZM337.173 144.286C335.047 144.286 333.33 142.585 333.33 140.489C333.33 138.393 335.047 136.692 337.173 136.692C339.299 136.692 341.015 138.393 341.015 140.489C341.015 142.585 339.299 144.286 337.173 144.286ZM331.857 150.361H342.489V149.351C342.489 148.022 340.734 146.648 337.173 146.648C333.611 146.648 331.857 148.022 331.857 149.351V150.361ZM337.173 145.129C342.23 145.129 344.007 147.658 344.007 149.351V151.88H330.338V149.351C330.338 147.658 332.115 145.129 337.173 145.129Z" fill="#433129"/>
</g>
<path fill-rule="evenodd" clip-rule="evenodd" d="M337.173 202C344.722 202 350.842 195.88 350.842 188.331C350.842 180.782 344.722 174.662 337.173 174.662C329.624 174.662 323.504 180.782 323.504 188.331C323.504 195.88 329.624 202 337.173 202ZM337.173 205.038C346.4 205.038 353.88 197.558 353.88 188.331C353.88 179.104 346.4 171.624 337.173 171.624C327.946 171.624 320.466 179.104 320.466 188.331C320.466 197.558 327.946 205.038 337.173 205.038Z" fill="#8F4A2C"/>
<g clip-path="url(#clip4_175_295)">
<path d="M337.173 186.812C338.464 186.812 339.497 185.787 339.497 184.534C339.497 183.281 338.464 182.256 337.173 182.256C335.882 182.256 334.849 183.281 334.849 184.534C334.849 185.787 335.882 186.812 337.173 186.812ZM337.173 188.331C335.047 188.331 333.33 186.63 333.33 184.534C333.33 182.438 335.047 180.737 337.173 180.737C339.299 180.737 341.015 182.438 341.015 184.534C341.015 186.63 339.299 188.331 337.173 188.331ZM331.857 194.406H342.489V193.396C342.489 192.067 340.734 190.693 337.173 190.693C333.611 190.693 331.857 192.067 331.857 193.396V194.406ZM337.173 189.174C342.23 189.174 344.007 191.703 344.007 193.396V195.925H330.338V193.396C330.338 191.703 332.115 189.174 337.173 189.174Z" fill="#8F4A2C"/>
</g>
<path fill-rule="evenodd" clip-rule="evenodd" d="M375.143 157.955C382.692 157.955 388.812 151.835 388.812 144.286C388.812 136.737 382.692 130.617 375.143 130.617C367.594 130.617 361.474 136.737 361.474 144.286C361.474 151.835 367.594 157.955 375.143 157.955ZM375.143 160.993C384.37 160.993 391.85 153.513 391.85 144.286C391.85 135.059 384.37 127.579 375.143 127.579C365.916 127.579 358.436 135.059 358.436 144.286C358.436 153.513 365.916 160.993 375.143 160.993Z" fill="#433129"/>
<g clip-path="url(#clip5_175_295)">
<path d="M375.143 142.767C376.434 142.767 377.467 141.742 377.467 140.489C377.467 139.236 376.434 138.211 375.143 138.211C373.852 138.211 372.819 139.236 372.819 140.489C372.819 141.742 373.852 142.767 375.143 142.767ZM375.143 144.286C373.017 144.286 371.3 142.585 371.3 140.489C371.3 138.393 373.017 136.692 375.143 136.692C377.269 136.692 378.985 138.393 378.985 140.489C378.985 142.585 377.269 144.286 375.143 144.286ZM369.827 150.361H380.459V149.351C380.459 148.022 378.705 146.648 375.143 146.648C371.581 146.648 369.827 148.022 369.827 149.351V150.361ZM375.143 145.129C380.201 145.129 381.978 147.658 381.978 149.351V151.88H368.308V149.351C368.308 147.658 370.085 145.129 375.143 145.129Z" fill="#433129"/>
</g>
<path fill-rule="evenodd" clip-rule="evenodd" d="M375.143 202C382.692 202 388.812 195.88 388.812 188.331C388.812 180.782 382.692 174.662 375.143 174.662C367.594 174.662 361.474 180.782 361.474 188.331C361.474 195.88 367.594 202 375.143 202ZM375.143 205.038C384.37 205.038 391.85 197.558 391.85 188.331C391.85 179.104 384.37 171.624 375.143 171.624C365.916 171.624 358.436 179.104 358.436 188.331C358.436 197.558 365.916 205.038 375.143 205.038Z" fill="#433129"/>
<g clip-path="url(#clip6_175_295)">
<path d="M375.143 186.812C376.434 186.812 377.467 185.787 377.467 184.534C377.467 183.281 376.434 182.256 375.143 182.256C373.852 182.256 372.819 183.281 372.819 184.534C372.819 185.787 373.852 186.812 375.143 186.812ZM375.143 188.331C373.017 188.331 371.3 186.63 371.3 184.534C371.3 182.438 373.017 180.737 375.143 180.737C377.269 180.737 378.985 182.438 378.985 184.534C378.985 186.63 377.269 188.331 375.143 188.331ZM369.827 194.406H380.459V193.396C380.459 192.067 378.705 190.693 375.143 190.693C371.581 190.693 369.827 192.067 369.827 193.396V194.406ZM375.143 189.174C380.201 189.174 381.978 191.703 381.978 193.396V195.925H368.308V193.396C368.308 191.703 370.085 189.174 375.143 189.174Z" fill="#433129"/>
</g>
<path fill-rule="evenodd" clip-rule="evenodd" d="M388.812 121.504H285.534C278.823 121.504 273.384 126.944 273.384 133.654V200.481C273.384 207.192 278.823 212.632 285.534 212.632H388.812C395.523 212.632 400.962 207.192 400.962 200.481V133.654C400.962 126.944 395.523 121.504 388.812 121.504ZM285.534 118.466C277.146 118.466 270.346 125.266 270.346 133.654V200.481C270.346 208.869 277.146 215.669 285.534 215.669H388.812C397.2 215.669 404 208.869 404 200.481V133.654C404 125.266 397.2 118.466 388.812 118.466H285.534Z" fill="#433129"/>
<path fill-rule="evenodd" clip-rule="evenodd" d="M100.241 135.173H50.1203C44.2487 135.173 39.4888 139.933 39.4888 145.804V230.857C39.4888 236.729 44.2487 241.489 50.1203 241.489H100.241C106.112 241.489 110.872 236.729 110.872 230.857V145.804C110.872 139.933 106.112 135.173 100.241 135.173ZM50.1203 130.616C41.7323 130.616 34.9324 137.416 34.9324 145.804V230.857C34.9324 239.245 41.7323 246.045 50.1203 246.045H100.241C108.629 246.045 115.429 239.245 115.429 230.857V145.804C115.429 137.416 108.629 130.616 100.241 130.616H50.1203Z" fill="#433129"/>
<path opacity="0.2" fill-rule="evenodd" clip-rule="evenodd" d="M103.278 185.293H45.564V180.737H103.278V185.293Z" fill="#433129"/>
<path opacity="0.2" fill-rule="evenodd" clip-rule="evenodd" d="M103.278 189.85H45.564V185.293H103.278V189.85Z" fill="#433129"/>
<path opacity="0.2" fill-rule="evenodd" clip-rule="evenodd" d="M103.278 194.406H45.564V189.85H103.278V194.406Z" fill="#433129"/>
<path opacity="0.2" fill-rule="evenodd" clip-rule="evenodd" d="M103.278 198.962H45.564V194.406H103.278V198.962Z" fill="#433129"/>
<path opacity="0.2" fill-rule="evenodd" clip-rule="evenodd" d="M103.278 212.632H45.564V208.075H103.278V212.632Z" fill="#433129"/>
<path opacity="0.2" fill-rule="evenodd" clip-rule="evenodd" d="M103.278 218.707H45.564V214.15H103.278V218.707Z" fill="#433129"/>
<path opacity="0.2" fill-rule="evenodd" clip-rule="evenodd" d="M103.278 223.263H45.564V218.707H103.278V223.263Z" fill="#433129"/>
<path opacity="0.2" fill-rule="evenodd" clip-rule="evenodd" d="M103.278 227.819H45.564V223.263H103.278V227.819Z" fill="#433129"/>
<path fill-rule="evenodd" clip-rule="evenodd" d="M62.2707 173.143C68.9812 173.143 74.4211 167.703 74.4211 160.993C74.4211 154.282 68.9812 148.842 62.2707 148.842C55.5603 148.842 50.1204 154.282 50.1204 160.993C50.1204 167.703 55.5603 173.143 62.2707 173.143ZM62.2707 177.699C71.4976 177.699 78.9775 170.22 78.9775 160.993C78.9775 151.766 71.4976 144.286 62.2707 144.286C53.0438 144.286 45.564 151.766 45.564 160.993C45.564 170.22 53.0438 177.699 62.2707 177.699Z" fill="#433129"/>
<g clip-path="url(#clip7_175_295)">
<path d="M62.2707 159.474C63.5617 159.474 64.5945 158.448 64.5945 157.195C64.5945 155.942 63.5617 154.917 62.2707 154.917C60.9798 154.917 59.947 155.942 59.947 157.195C59.947 158.448 60.9798 159.474 62.2707 159.474ZM62.2707 160.992C60.1444 160.992 58.4282 159.291 58.4282 157.195C58.4282 155.099 60.1444 153.398 62.2707 153.398C64.3971 153.398 66.1133 155.099 66.1133 157.195C66.1133 159.291 64.3971 160.992 62.2707 160.992ZM56.955 167.068H67.5865V166.058C67.5865 164.729 65.8323 163.354 62.2707 163.354C58.7092 163.354 56.955 164.729 56.955 166.058V167.068ZM62.2707 161.835C67.3283 161.835 69.1053 164.364 69.1053 166.058V168.586H55.4362V166.058C55.4362 164.364 57.2131 161.835 62.2707 161.835Z" fill="#433129"/>
</g>
<path d="M53.45 213.872L51.3912 214.782L50.6042 206.729L53.2121 205.576L58.6382 211.578L56.5794 212.489L52.7911 208.076L52.7362 208.1L53.45 213.872ZM51.8401 211.269L55.7106 209.558L56.3416 210.986L52.4711 212.697L51.8401 211.269Z" fill="#8F4A2C"/>
<path d="M62.0189 210.084L59.315 211.279L56.2085 204.252L58.8849 203.069C59.6078 202.749 60.2945 202.614 60.945 202.663C61.5968 202.708 62.182 202.931 62.7005 203.33C63.2203 203.727 63.642 204.291 63.9656 205.023C64.2892 205.755 64.4243 206.447 64.371 207.1C64.3166 207.75 64.0897 208.332 63.6902 208.845C63.2897 209.355 62.7326 209.768 62.0189 210.084ZM60.5069 208.816L61.2343 208.495C61.582 208.341 61.8535 208.154 62.0487 207.934C62.2462 207.712 62.3484 207.436 62.3551 207.105C62.3642 206.773 62.2605 206.362 62.0441 205.873C61.8277 205.383 61.5924 205.03 61.3384 204.814C61.0867 204.598 60.8091 204.489 60.5056 204.489C60.2044 204.489 59.8708 204.569 59.5048 204.731L58.8323 205.028L60.5069 208.816Z" fill="#8F4A2C"/>
<path d="M63.2951 201.119L65.6696 200.07L69.0624 203.328L69.1448 203.291L69.0186 198.589L71.3931 197.539L74.4996 204.567L72.6329 205.392L70.837 201.329L70.7821 201.354L70.989 206.053L69.8636 206.551L66.5151 203.207L66.4602 203.231L68.2682 207.321L66.4016 208.147L63.2951 201.119Z" fill="#8F4A2C"/>
<path d="M74.205 196.296L77.3116 203.324L75.4037 204.167L72.2972 197.14L74.205 196.296Z" fill="#8F4A2C"/>
<path d="M75.5966 197.519L74.917 195.982L81.0248 193.282L81.7044 194.819L79.5907 195.753L82.0176 201.243L80.1373 202.075L77.7103 196.584L75.5966 197.519Z" fill="#8F4A2C"/>
<path d="M82.2302 194.586L81.5507 193.049L87.6585 190.349L88.338 191.886L86.2243 192.821L88.6513 198.311L86.7709 199.142L84.3439 193.652L82.2302 194.586Z" fill="#8F4A2C"/>
<path d="M91.483 197.059L88.3765 190.032L93.4412 187.793L94.1207 189.33L90.9639 190.726L91.4978 191.933L94.3939 190.653L95.0734 192.19L92.1773 193.471L92.7113 194.679L95.8544 193.289L96.5339 194.826L91.483 197.059Z" fill="#8F4A2C"/>
<path d="M100.198 193.207L97.4939 194.402L94.3874 187.375L97.0638 186.191C97.7867 185.872 98.4734 185.737 99.1239 185.785C99.7757 185.831 100.361 186.053 100.879 186.453C101.399 186.85 101.821 187.414 102.144 188.146C102.468 188.878 102.603 189.57 102.55 190.223C102.495 190.873 102.269 191.455 101.869 191.967C101.469 192.478 100.911 192.891 100.198 193.207ZM98.6857 191.939L99.4132 191.617C99.7609 191.464 100.032 191.277 100.228 191.056C100.425 190.835 100.527 190.559 100.534 190.228C100.543 189.896 100.439 189.485 100.223 188.995C100.007 188.506 99.7713 188.153 99.5173 187.937C99.2655 187.72 98.9879 187.612 98.6845 187.612C98.3833 187.611 98.0497 187.692 97.6837 187.854L97.0111 188.151L98.6857 191.939Z" fill="#8F4A2C"/>
<path fill-rule="evenodd" clip-rule="evenodd" d="M101.314 180.512L44.1836 205.767L49.7898 218.449L106.92 193.194L101.314 180.512ZM43.5695 204.378C42.8024 204.717 42.4553 205.614 42.7945 206.381L48.4007 219.063C48.7398 219.831 49.6367 220.178 50.4039 219.838L107.534 194.584C108.301 194.244 108.648 193.348 108.309 192.58L102.703 179.898C102.364 179.131 101.467 178.784 100.7 179.123L43.5695 204.378Z" fill="#8F4A2C"/>
<path fill-rule="evenodd" clip-rule="evenodd" d="M94.9248 233.895C97.8606 233.895 100.241 231.515 100.241 228.579C100.241 225.643 97.8606 223.263 94.9248 223.263C91.989 223.263 89.609 225.643 89.609 228.579C89.609 231.515 91.989 233.895 94.9248 233.895ZM94.9248 235.414C98.6994 235.414 101.759 232.354 101.759 228.579C101.759 224.804 98.6994 221.744 94.9248 221.744C91.1502 221.744 88.0902 224.804 88.0902 228.579C88.0902 232.354 91.1502 235.414 94.9248 235.414Z" fill="#8F4A2C"/>
<path fill-rule="evenodd" clip-rule="evenodd" d="M94.9248 230.857C96.183 230.857 97.203 229.837 97.203 228.579C97.203 227.321 96.183 226.301 94.9248 226.301C93.6666 226.301 92.6466 227.321 92.6466 228.579C92.6466 229.837 93.6666 230.857 94.9248 230.857ZM94.9248 232.376C97.0218 232.376 98.7218 230.676 98.7218 228.579C98.7218 226.482 97.0218 224.782 94.9248 224.782C92.8278 224.782 91.1278 226.482 91.1278 228.579C91.1278 230.676 92.8278 232.376 94.9248 232.376Z" fill="#8F4A2C"/>
<path fill-rule="evenodd" clip-rule="evenodd" d="M216 170L216 146L220 146L220 170L216 170Z" fill="#433129"/>
<path fill-rule="evenodd" clip-rule="evenodd" d="M124.541 51.6392H101.759C99.243 51.6392 97.203 53.6791 97.203 56.1955V92.6467C97.203 95.1631 99.243 97.2031 101.759 97.2031H124.541C127.058 97.2031 129.098 95.1631 129.098 92.6467V56.1955C129.098 53.6791 127.058 51.6392 124.541 51.6392ZM101.759 48.6016C97.5653 48.6016 94.1654 52.0015 94.1654 56.1955V92.6467C94.1654 96.8407 97.5653 100.241 101.759 100.241H124.541C128.735 100.241 132.135 96.8407 132.135 92.6467V56.1955C132.135 52.0015 128.735 48.6016 124.541 48.6016H101.759Z" fill="#433129"/>
<path fill-rule="evenodd" clip-rule="evenodd" d="M110.872 50.1203V41.0076H115.429V50.1203H110.872Z" fill="#433129"/>
<path fill-rule="evenodd" clip-rule="evenodd" d="M361.474 4.55639H267.308C261.437 4.55639 256.677 9.31631 256.677 15.188V80.4962C256.677 86.3679 261.437 91.1278 267.308 91.1278H361.474C367.345 91.1278 372.105 86.3679 372.105 80.4962V15.188C372.105 9.31631 367.345 4.55639 361.474 4.55639ZM267.308 0C258.92 0 252.12 6.79988 252.12 15.188V80.4962C252.12 88.8843 258.92 95.6842 267.308 95.6842H361.474C369.862 95.6842 376.662 88.8843 376.662 80.4962V15.188C376.662 6.79989 369.862 0 361.474 0H267.308Z" fill="#433129"/>
<path d="M278.642 59.2099L276.031 56.3621C275.983 56.3093 275.925 56.2673 275.862 56.2388C275.798 56.2102 275.73 56.1955 275.662 56.1956H270.441C270.164 56.1956 269.898 56.3156 269.703 56.5292C269.507 56.7428 269.397 57.0325 269.397 57.3347V58.4738H268.353C268.076 58.4738 267.81 58.5938 267.614 58.8074C267.418 59.021 267.308 59.3107 267.308 59.6129V69.8647C267.308 70.1668 267.418 70.4566 267.614 70.6702C267.81 70.8838 268.076 71.0038 268.353 71.0038H275.662C275.939 71.0038 276.204 70.8838 276.4 70.6702C276.596 70.4566 276.706 70.1668 276.706 69.8647V68.7256H277.75C278.027 68.7256 278.293 68.6056 278.488 68.392C278.684 68.1784 278.794 67.8886 278.794 67.5865V59.6129C278.794 59.538 278.781 59.4639 278.755 59.3948C278.728 59.3257 278.69 59.2628 278.642 59.2099ZM275.662 69.8647H268.353V59.6129H273.357L275.662 62.1267V69.8647ZM277.75 67.5865H276.706V61.891C276.706 61.8162 276.693 61.7421 276.666 61.673C276.64 61.6039 276.602 61.541 276.553 61.4881L273.943 58.6403C273.894 58.5875 273.837 58.5455 273.773 58.517C273.71 58.4884 273.642 58.4737 273.573 58.4738H270.441V57.3347H275.446L277.75 59.8485V67.5865ZM274.095 65.3083C274.095 65.4594 274.04 65.6043 273.943 65.7111C273.845 65.8179 273.712 65.8779 273.573 65.8779H270.441C270.302 65.8779 270.17 65.8179 270.072 65.7111C269.974 65.6043 269.919 65.4594 269.919 65.3083C269.919 65.1573 269.974 65.0124 270.072 64.9056C270.17 64.7988 270.302 64.7388 270.441 64.7388H273.573C273.712 64.7388 273.845 64.7988 273.943 64.9056C274.04 65.0124 274.095 65.1573 274.095 65.3083ZM274.095 67.5865C274.095 67.7376 274.04 67.8825 273.943 67.9893C273.845 68.0961 273.712 68.1561 273.573 68.1561H270.441C270.302 68.1561 270.17 68.0961 270.072 67.9893C269.974 67.8825 269.919 67.7376 269.919 67.5865C269.919 67.4355 269.974 67.2906 270.072 67.1838C270.17 67.077 270.302 67.017 270.441 67.017H273.573C273.712 67.017 273.845 67.077 273.943 67.1838C274.04 67.2906 274.095 67.4355 274.095 67.5865Z" fill="#433129"/>
<path d="M124.259 66.3169L119.426 61.0595C119.336 60.9619 119.23 60.8845 119.112 60.8317C118.995 60.779 118.869 60.7518 118.742 60.752H109.077C108.565 60.752 108.073 60.9735 107.71 61.3679C107.348 61.7623 107.144 62.2972 107.144 62.8549V64.9579H105.211C104.699 64.9579 104.207 65.1794 103.844 65.5738C103.482 65.9682 103.278 66.5031 103.278 67.0608V85.9873C103.278 86.5451 103.482 87.08 103.844 87.4744C104.207 87.8687 104.699 88.0903 105.211 88.0903H118.742C119.255 88.0903 119.747 87.8687 120.109 87.4744C120.472 87.08 120.675 86.5451 120.675 85.9873V83.8844H122.608C123.121 83.8844 123.613 83.6628 123.975 83.2685C124.338 82.8741 124.541 82.3392 124.541 81.7815V67.0608C124.541 66.9227 124.517 66.7859 124.468 66.6582C124.42 66.5306 124.348 66.4146 124.259 66.3169ZM118.742 85.9873H105.211V67.0608H114.476L118.742 71.7017V85.9873ZM122.608 81.7815H120.675V71.2667C120.675 71.1286 120.651 70.9918 120.602 70.8641C120.553 70.7365 120.482 70.6205 120.393 70.5228L115.56 65.2654C115.47 65.1678 115.364 65.0904 115.246 65.0376C115.129 64.9848 115.003 64.9577 114.876 64.9579H109.077V62.8549H118.342L122.608 67.4958V81.7815ZM115.843 77.5756C115.843 77.8544 115.741 78.1219 115.56 78.3191C115.378 78.5162 115.133 78.627 114.876 78.627H109.077C108.821 78.627 108.575 78.5162 108.394 78.3191C108.213 78.1219 108.111 77.8544 108.111 77.5756C108.111 77.2967 108.213 77.0292 108.394 76.832C108.575 76.6349 108.821 76.5241 109.077 76.5241H114.876C115.133 76.5241 115.378 76.6349 115.56 76.832C115.741 77.0292 115.843 77.2967 115.843 77.5756ZM115.843 81.7815C115.843 82.0603 115.741 82.3278 115.56 82.525C115.378 82.7221 115.133 82.8329 114.876 82.8329H109.077C108.821 82.8329 108.575 82.7221 108.394 82.525C108.213 82.3278 108.111 82.0603 108.111 81.7815C108.111 81.5026 108.213 81.2351 108.394 81.0379C108.575 80.8408 108.821 80.73 109.077 80.73H114.876C115.133 80.73 115.378 80.8408 115.56 81.0379C115.741 81.2351 115.843 81.5026 115.843 81.7815Z" fill="#433129"/>
<path d="M299.905 12.1271L297.294 9.27939C297.246 9.22651 297.188 9.18459 297.125 9.156C297.061 9.12742 296.993 9.11273 296.925 9.11279H291.704C291.427 9.11279 291.161 9.2328 290.966 9.44643C290.77 9.66005 290.66 9.94978 290.66 10.2519V11.391H289.616C289.339 11.391 289.073 11.511 288.877 11.7246C288.681 11.9382 288.571 12.228 288.571 12.5301V22.782C288.571 23.0841 288.681 23.3738 288.877 23.5874C289.073 23.8011 289.339 23.9211 289.616 23.9211H296.925C297.202 23.9211 297.467 23.8011 297.663 23.5874C297.859 23.3738 297.969 23.0841 297.969 22.782V21.6429H299.013C299.29 21.6429 299.556 21.5229 299.751 21.3092C299.947 21.0956 300.057 20.8059 300.057 20.5038V12.5301C300.057 12.4553 300.044 12.3812 300.018 12.312C299.992 12.2429 299.953 12.1801 299.905 12.1271ZM296.925 22.782H289.616V12.5301H294.62L296.925 15.0439V22.782ZM299.013 20.5038H297.969V14.8083C297.969 14.7335 297.956 14.6594 297.929 14.5902C297.903 14.5211 297.865 14.4583 297.816 14.4053L295.206 11.5576C295.157 11.5047 295.1 11.4628 295.036 11.4342C294.973 11.4056 294.905 11.3909 294.836 11.391H291.704V10.2519H296.709L299.013 12.7657V20.5038ZM295.359 18.2256C295.359 18.3766 295.304 18.5215 295.206 18.6283C295.108 18.7351 294.975 18.7951 294.836 18.7951H291.704C291.565 18.7951 291.433 18.7351 291.335 18.6283C291.237 18.5215 291.182 18.3766 291.182 18.2256C291.182 18.0745 291.237 17.9297 291.335 17.8228C291.433 17.716 291.565 17.656 291.704 17.656H294.836C294.975 17.656 295.108 17.716 295.206 17.8228C295.304 17.9297 295.359 18.0745 295.359 18.2256ZM295.359 20.5038C295.359 20.6548 295.304 20.7997 295.206 20.9065C295.108 21.0133 294.975 21.0733 294.836 21.0733H291.704C291.565 21.0733 291.433 21.0133 291.335 20.9065C291.237 20.7997 291.182 20.6548 291.182 20.5038C291.182 20.3527 291.237 20.2078 291.335 20.101C291.433 19.9942 291.565 19.9342 291.704 19.9342H294.836C294.975 19.9342 295.108 19.9942 295.206 20.101C295.304 20.2078 295.359 20.3527 295.359 20.5038Z" fill="#433129"/>
<path d="M295.348 45.5406L292.738 42.6928C292.689 42.64 292.632 42.598 292.568 42.5695C292.505 42.5409 292.437 42.5262 292.368 42.5262H287.148C286.871 42.5262 286.605 42.6463 286.409 42.8599C286.213 43.0735 286.103 43.3632 286.103 43.6653V44.8044H285.059C284.782 44.8044 284.517 44.9245 284.321 45.1381C284.125 45.3517 284.015 45.6414 284.015 45.9435V56.1954C284.015 56.4975 284.125 56.7873 284.321 57.0009C284.517 57.2145 284.782 57.3345 285.059 57.3345H292.368C292.645 57.3345 292.911 57.2145 293.107 57.0009C293.303 56.7873 293.413 56.4975 293.413 56.1954V55.0563H294.457C294.734 55.0563 294.999 54.9363 295.195 54.7227C295.391 54.5091 295.501 54.2193 295.501 53.9172V45.9435C295.501 45.8687 295.488 45.7946 295.461 45.7255C295.435 45.6563 295.397 45.5935 295.348 45.5406ZM292.368 56.1954H285.059V45.9435H290.064L292.368 48.4574V56.1954ZM294.457 53.9172H293.413V48.2217C293.413 48.1469 293.399 48.0728 293.373 48.0037C293.347 47.9345 293.308 47.8717 293.26 47.8188L290.649 44.971C290.601 44.9182 290.543 44.8762 290.48 44.8476C290.417 44.8191 290.349 44.8044 290.28 44.8044H287.148V43.6653H292.152L294.457 46.1792V53.9172ZM290.802 51.639C290.802 51.7901 290.747 51.9349 290.649 52.0418C290.551 52.1486 290.419 52.2086 290.28 52.2086H287.148C287.009 52.2086 286.876 52.1486 286.778 52.0418C286.68 51.9349 286.625 51.7901 286.625 51.639C286.625 51.488 286.68 51.3431 286.778 51.2363C286.876 51.1295 287.009 51.0695 287.148 51.0695H290.28C290.419 51.0695 290.551 51.1295 290.649 51.2363C290.747 51.3431 290.802 51.488 290.802 51.639ZM290.802 53.9172C290.802 54.0683 290.747 54.2131 290.649 54.32C290.551 54.4268 290.419 54.4868 290.28 54.4868H287.148C287.009 54.4868 286.876 54.4268 286.778 54.32C286.68 54.2131 286.625 54.0683 286.625 53.9172C286.625 53.7662 286.68 53.6213 286.778 53.5145C286.876 53.4077 287.009 53.3477 287.148 53.3477H290.28C290.419 53.3477 290.551 53.4077 290.649 53.5145C290.747 53.6213 290.802 53.7662 290.802 53.9172Z" fill="#433129"/>
<path d="M296.867 75.9164L294.257 73.0687C294.208 73.0158 294.15 72.9739 294.087 72.9453C294.024 72.9167 293.956 72.902 293.887 72.9021H288.666C288.389 72.9021 288.124 73.0221 287.928 73.2357C287.732 73.4494 287.622 73.7391 287.622 74.0412V75.1803H286.578C286.301 75.1803 286.035 75.3003 285.84 75.5139C285.644 75.7276 285.534 76.0173 285.534 76.3194V86.5713C285.534 86.8734 285.644 87.1631 285.84 87.3767C286.035 87.5904 286.301 87.7104 286.578 87.7104H293.887C294.164 87.7104 294.43 87.5904 294.626 87.3767C294.821 87.1631 294.931 86.8734 294.931 86.5713V85.4322H295.976C296.252 85.4322 296.518 85.3122 296.714 85.0985C296.91 84.8849 297.02 84.5952 297.02 84.2931V76.3194C297.02 76.2446 297.006 76.1705 296.98 76.1013C296.954 76.0322 296.915 75.9694 296.867 75.9164ZM293.887 86.5713H286.578V76.3194H291.583L293.887 78.8332V86.5713ZM295.976 84.2931H294.931V78.5976C294.931 78.5228 294.918 78.4487 294.892 78.3795C294.866 78.3104 294.827 78.2476 294.779 78.1946L292.168 75.3469C292.12 75.294 292.062 75.2521 291.999 75.2235C291.935 75.1949 291.867 75.1802 291.799 75.1803H288.666V74.0412H293.671L295.976 76.555V84.2931ZM292.321 82.0149C292.321 82.1659 292.266 82.3108 292.168 82.4176C292.07 82.5244 291.937 82.5844 291.799 82.5844H288.666C288.528 82.5844 288.395 82.5244 288.297 82.4176C288.199 82.3108 288.144 82.1659 288.144 82.0149C288.144 81.8638 288.199 81.719 288.297 81.6121C288.395 81.5053 288.528 81.4453 288.666 81.4453H291.799C291.937 81.4453 292.07 81.5053 292.168 81.6121C292.266 81.719 292.321 81.8638 292.321 82.0149ZM292.321 84.2931C292.321 84.4441 292.266 84.589 292.168 84.6958C292.07 84.8026 291.937 84.8626 291.799 84.8626H288.666C288.528 84.8626 288.395 84.8026 288.297 84.6958C288.199 84.589 288.144 84.4441 288.144 84.2931C288.144 84.142 288.199 83.9972 288.297 83.8903C288.395 83.7835 288.528 83.7235 288.666 83.7235H291.799C291.937 83.7235 292.07 83.7835 292.168 83.8903C292.266 83.9972 292.321 84.142 292.321 84.2931Z" fill="#433129"/>
<path d="M278.642 30.3526L276.031 27.5049C275.983 27.452 275.925 27.41 275.862 27.3815C275.798 27.3529 275.73 27.3382 275.662 27.3383H270.441C270.164 27.3383 269.898 27.4583 269.703 27.6719C269.507 27.8855 269.397 28.1752 269.397 28.4774V29.6165H268.353C268.076 29.6165 267.81 29.7365 267.614 29.9501C267.418 30.1637 267.308 30.4534 267.308 30.7556V41.0074C267.308 41.3095 267.418 41.5993 267.614 41.8129C267.81 42.0265 268.076 42.1465 268.353 42.1465H275.662C275.939 42.1465 276.204 42.0265 276.4 41.8129C276.596 41.5993 276.706 41.3095 276.706 41.0074V39.8683H277.75C278.027 39.8683 278.293 39.7483 278.488 39.5347C278.684 39.3211 278.794 39.0313 278.794 38.7292V30.7556C278.794 30.6807 278.781 30.6066 278.755 30.5375C278.728 30.4684 278.69 30.4055 278.642 30.3526ZM275.662 41.0074H268.353V30.7556H273.357L275.662 33.2694V41.0074ZM277.75 38.7292H276.706V33.0337C276.706 32.9589 276.693 32.8848 276.666 32.8157C276.64 32.7466 276.602 32.6837 276.553 32.6308L273.943 29.783C273.894 29.7302 273.837 29.6882 273.773 29.6597C273.71 29.6311 273.642 29.6164 273.573 29.6165H270.441V28.4774H275.446L277.75 30.9912V38.7292ZM274.095 36.451C274.095 36.6021 274.04 36.747 273.943 36.8538C273.845 36.9606 273.712 37.0206 273.573 37.0206H270.441C270.302 37.0206 270.17 36.9606 270.072 36.8538C269.974 36.747 269.919 36.6021 269.919 36.451C269.919 36.3 269.974 36.1551 270.072 36.0483C270.17 35.9415 270.302 35.8815 270.441 35.8815H273.573C273.712 35.8815 273.845 35.9415 273.943 36.0483C274.04 36.1551 274.095 36.3 274.095 36.451ZM274.095 38.7292C274.095 38.8803 274.04 39.0252 273.943 39.132C273.845 39.2388 273.712 39.2988 273.573 39.2988H270.441C270.302 39.2988 270.17 39.2388 270.072 39.132C269.974 39.0252 269.919 38.8803 269.919 38.7292C269.919 38.5782 269.974 38.4333 270.072 38.3265C270.17 38.2197 270.302 38.1597 270.441 38.1597H273.573C273.712 38.1597 273.845 38.2197 273.943 38.3265C274.04 38.4333 274.095 38.5782 274.095 38.7292Z" fill="#433129"/>
<path fill-rule="evenodd" clip-rule="evenodd" d="M309.336 16.7068H299.962V15.188H309.336C312.288 15.188 315.119 16.3607 317.206 18.448L318.356 19.5983C319.707 20.9491 320.466 22.7813 320.466 24.6916C320.466 24.8155 320.47 24.9383 320.478 25.0602H326.541V26.579H320.787C321.565 28.7906 323.673 30.376 326.15 30.376H329.579V31.8948H326.15C322.825 31.8948 320.026 29.6417 319.197 26.579H316.278C312.354 26.579 308.59 28.1379 305.815 30.9129C302.269 34.459 297.46 36.4511 292.445 36.4511H277.94V34.9324H292.445C297.057 34.9324 301.48 33.1002 304.741 29.839C307.801 26.7792 311.951 25.0602 316.278 25.0602H318.957C318.95 24.9381 318.947 24.8152 318.947 24.6916C318.947 23.1841 318.348 21.7382 317.282 20.6722L316.132 19.522C314.33 17.7194 311.885 16.7068 309.336 16.7068ZM328.06 36.4511C325.124 36.4511 322.744 38.8311 322.744 41.7669V56.0968C322.744 61.3551 320.788 66.4116 317.277 70.2928C318.638 71.0028 320.161 71.3835 321.724 71.3835H326.541V72.9023H321.724C319.763 72.9023 317.855 72.3846 316.183 71.4248L309.949 77.6587C311.575 78.0277 313.25 78.2181 314.944 78.2181H328.06V79.7369H314.944C312.811 79.7369 310.707 79.4541 308.683 78.9092C305.495 81.8763 301.295 83.5339 296.925 83.5339V82.0151C300.613 82.0151 304.168 80.7206 306.982 78.3834C303.599 77.1987 300.49 75.2628 297.907 72.6799C294.159 68.9324 289.076 66.8271 283.777 66.8271H277.94V65.3083H283.777C289.479 65.3083 294.948 67.5736 298.981 71.6059C301.596 74.2212 304.787 76.1285 308.255 77.2046L314.897 70.5626C314.533 70.2794 314.184 69.9723 313.854 69.6423C311.767 67.5549 310.594 64.7239 310.594 61.7719V58.658C310.594 56.7965 309.854 55.0112 308.538 53.6949C307.222 52.3786 305.437 51.6391 303.575 51.6391H294.647V50.1203H303.575C305.839 50.1203 308.011 51.0198 309.612 52.6209C311.213 54.2221 312.113 56.3936 312.113 58.658V61.7719C312.113 64.321 313.125 66.7658 314.928 68.5683C315.255 68.8957 315.604 69.197 315.97 69.4709C319.342 65.8432 321.226 61.0671 321.226 56.0968V41.7669C321.226 37.9923 324.285 34.9324 328.06 34.9324V36.4511Z" fill="#433129"/>
<path d="M355.399 22.782H352.361V13.6692H353.88V10.6316H329.579V13.6692H331.098V22.782H328.06C327.657 22.782 327.271 22.942 326.986 23.2268C326.701 23.5116 326.541 23.898 326.541 24.3008V37.9699H356.917V24.3008C356.917 23.898 356.757 23.5116 356.472 23.2268C356.188 22.942 355.801 22.782 355.399 22.782ZM344.767 34.9323V28.8572H338.692V34.9323H334.135V13.6692H349.323V34.9323H344.767Z" fill="#433129"/>
<path d="M337.173 16.7068H340.211V19.7444H337.173V16.7068ZM343.248 16.7068H346.286V19.7444H343.248V16.7068ZM337.173 22.782H340.211V25.8196H337.173V22.782ZM343.248 22.782H346.286V25.8196H343.248V22.782Z" fill="black"/>
<path d="M340.211 50.1204L349.323 59.2331V62.8995H355.399V78.0875H356.917V81.1251H323.504V78.0875H325.023V62.8995H331.098V59.2331L340.211 50.1204ZM349.323 78.0875H352.361V65.9371H349.323V78.0875ZM331.098 65.9371H328.06V78.0875H331.098V65.9371ZM334.135 60.4907V78.0875H338.692V67.4559H341.729V78.0875H346.286V60.4907L340.211 54.4155L334.135 60.4907Z" fill="#433129"/>
<defs>
<clipPath id="clip0_175_295">
<rect width="15.188" height="15.188" fill="white" transform="translate(19.7444 33.4135)"/>
</clipPath>
<clipPath id="clip1_175_295">
<rect width="15.188" height="15.188" fill="white" transform="translate(291.609 136.692)"/>
</clipPath>
<clipPath id="clip2_175_295">
<rect width="15.188" height="15.188" fill="white" transform="translate(291.609 180.737)"/>
</clipPath>
<clipPath id="clip3_175_295">
<rect width="15.188" height="15.188" fill="white" transform="translate(329.579 136.692)"/>
</clipPath>
<clipPath id="clip4_175_295">
<rect width="15.188" height="15.188" fill="white" transform="translate(329.579 180.737)"/>
</clipPath>
<clipPath id="clip5_175_295">
<rect width="15.188" height="15.188" fill="white" transform="translate(367.549 136.692)"/>
</clipPath>
<clipPath id="clip6_175_295">
<rect width="15.188" height="15.188" fill="white" transform="translate(367.549 180.737)"/>
</clipPath>
<clipPath id="clip7_175_295">
<rect width="15.188" height="15.188" fill="white" transform="translate(54.6768 153.398)"/>
</clipPath>
</defs>
</svg>
